<?xml version="1.0" encoding="iso-8859-1"?>
<!-- Generator: Adobe Illustrator 19.0.0, SVG Export Plug-In . SVG Version: 6.00 Build 0)  -->
<svg version="1.1" id="Capa_1" xmlns="http://www.w3.org/2000/svg" xmlns:xlink="http://www.w3.org/1999/xlink" x="0px" y="0px"
	 viewBox="0 0 512.001 512.001" style="enable-background:new 0 0 512.001 512.001;" xml:space="preserve">
<path style="fill:#3BBC56;" d="M254.239,111.071c-4.73-17.871-30.687-96.049-124.189-103.137c-4.447-0.337-8.096,3.473-7.539,7.898
	c3.457,27.498,22.939,112.833,131.097,99.058C253.81,113.609,254.023,112.338,254.239,111.071z"/>
<path style="fill:#30AA44;" d="M142.512,15.833c-0.303-2.409,0.646-4.629,2.286-6.104c-4.722-0.793-9.628-1.406-14.748-1.794
	c-4.447-0.337-8.096,3.473-7.539,7.898c3.32,26.407,21.433,106.135,118.651,100.223C161.375,110.662,145.59,40.318,142.512,15.833z"
	/>
<path style="fill:#93603E;" d="M260.048,169.67c9.891-36.931,36.711-96.393,68.482-129.2c3.458-3.571,3.772-9.055-0.147-12.113
	L304.675,9.86c-5.414-4.224-13.319-2.593-16.605,3.436c-10.942,20.072-39.5,96.137-44.889,155.084
	C248.673,170.034,254.427,170.458,260.048,169.67z"/>
<path style="fill:#7F573C;" d="M306.07,13.296c0.303-0.556,0.657-1.061,1.033-1.542l-2.429-1.895
	c-5.414-4.224-13.319-2.593-16.605,3.436c-10.942,20.072-39.5,96.137-44.888,155.084c5.491,1.654,11.246,2.078,16.866,1.29
	c0.477-1.783,1.006-3.633,1.561-5.515C267.919,105.854,295.389,32.893,306.07,13.296z"/>
<path style="fill:#EA473B;" d="M271.438,164.274c-18.91,8.942-36.173-0.952-34.508-0.263
	c-75.475-31.236-159.71,22.664-161.368,104.331c-0.019,0.952-0.029,1.909-0.029,2.87c0,82.272,71.122,233.289,153.395,233.289
	c9.246,0,18.292-0.849,27.073-2.461c8.78,1.612,17.826,2.461,27.072,2.461c82.272,0,153.395-151.016,153.395-233.289
	C436.466,178.861,345.532,129.24,271.438,164.274z"/>
<path style="fill:#DD332F;" d="M95.534,271.212c0-0.962,0.01-1.918,0.029-2.871c1.259-61.992,50.103-107.973,106.576-112.871
	C137.701,149.858,76.968,199.12,75.562,268.34c-0.019,0.952-0.029,1.909-0.029,2.871c0,82.272,71.122,233.289,153.395,233.289
	c4.029,0,8.018-0.171,11.965-0.486C162.079,494.684,95.534,350.793,95.534,271.212z"/>
<path d="M433.782,302.345c-4.066-0.791-8.003,1.863-8.796,5.928C409.968,385.408,350.789,497,283.072,497
	c-2.954,0-6.013-0.1-9.095-0.296c-4.129-0.256-7.698,2.874-7.963,7.008c-0.263,4.134,2.874,7.698,7.008,7.962
	c3.397,0.216,6.777,0.326,10.049,0.326c76.687,0,140.243-116.651,156.639-200.861C440.503,307.075,437.849,303.137,433.782,302.345z
	"/>
<path d="M228.928,512.001c3.27,0,6.65-0.11,10.048-0.326c4.134-0.264,7.271-3.828,7.008-7.962c-0.264-4.134-3.844-7.269-7.962-7.008
	c-3.081,0.196-6.14,0.296-9.094,0.296c-77.363,0-147.446-149.802-145.866-228.506c1.571-77.332,81.252-126.419,151.002-97.551
	c2.723,1.127,4.184,1.778,6.875,2.592c10.165,3.219,22.696,2.726,33.706-2.479c69.161-32.701,156.399,13.643,154.277,103.472
	c-0.098,4.141,3.18,7.578,7.32,7.676c4.168,0.103,7.578-3.179,7.676-7.32c0.029-1.236,0.048-2.462,0.048-3.67
	c0-97.008-94.648-149.377-172.568-115.156c12.033-36.036,35.978-82.962,62.519-110.367c3.347-3.456,5.085-8.048,4.769-12.598
	c-0.294-4.231-2.315-8.013-5.69-10.647l-23.709-18.5c-4.322-3.374-9.881-4.668-15.245-3.556c-5.36,1.112-9.939,4.507-12.56,9.316
	C275.168,21.292,262.443,52,251.871,87.672c-4.815-10.97-12.048-24.183-22.66-36.998C204.238,20.519,170.394,3.622,128.617,0.455
	c-9.206-0.696-16.692,7.208-15.548,16.313c2.115,16.821,10.667,58.762,44.314,84.85c24.261,18.81,54.225,24.092,85.205,21.714
	c-2.423,10.939-4.423,21.908-5.79,32.561c-79.109-30.371-168.765,25.936-168.765,115.319
	C68.033,356.475,141.026,512.001,228.928,512.001z M294.655,16.887c0.697-1.278,1.825-1.681,2.436-1.808
	c0.615-0.128,1.816-0.206,2.97,0.695l23.654,18.459c-0.029,0.192-0.158,0.591-0.573,1.02
	c-30.749,31.752-57.336,85.87-68.884,125.292c-1.348-0.015-1.872-0.057-2.906-0.16C258.114,103.054,284.691,35.165,294.655,16.887z
	 M166.575,89.763c-28.854-22.372-36.553-58.995-38.55-74.309c81.439,6.446,108.611,70.703,115.573,92.762
	C211.908,111.034,186.022,104.842,166.575,89.763z"/>
<path d="M323.822,426.849c2.917,0,5.691-1.712,6.905-4.566c24.613-57.869,45.018-132.22,21.146-190.039
	c-15.052-36.46-40.785-48.57-41.873-49.068c-3.766-1.722-8.216-0.066-9.941,3.701c-1.723,3.767-0.066,8.218,3.701,9.941
	c0.212,0.097,21.423,10.091,34.246,41.151c12.316,29.832,18.655,85.005-21.085,178.443
	C314.818,421.359,318.463,426.849,323.822,426.849z"/>
<g>
</g>
<g>
</g>
<g>
</g>
<g>
</g>
<g>
</g>
<g>
</g>
<g>
</g>
<g>
</g>
<g>
</g>
<g>
</g>
<g>
</g>
<g>
</g>
<g>
</g>
<g>
</g>
<g>
</g>
</svg>
