<?xml version="1.0" encoding="iso-8859-1"?>
<!-- Generator: Adobe Illustrator 19.0.0, SVG Export Plug-In . SVG Version: 6.00 Build 0)  -->
<svg version="1.1" id="Capa_1" xmlns="http://www.w3.org/2000/svg" xmlns:xlink="http://www.w3.org/1999/xlink" x="0px" y="0px"
	 viewBox="0 0 512.001 512.001" style="enable-background:new 0 0 512.001 512.001;" xml:space="preserve">
<path style="fill:#3BBC56;" d="M266.701,9.712c-5.861-3.61-12.857-3.61-18.718,0c-31.067,19.144-55.312,52.844-64.283,95.032
	c15.677,7.484,28.842,18,39.962,30.958c7.53-7.646,15.538-14.229,24.848-19.966c5.531-3.408,12.135-3.407,17.664,0
	c9.304,5.734,17.313,12.316,24.848,19.966c12.037-14.026,25.487-24.048,39.963-30.958C322.014,62.559,297.77,28.858,266.701,9.712z"
	/>
<path style="fill:#30AA44;" d="M208.81,107.283c-2.977-1.6-4.491-5.048-3.67-8.326c9.808-39.17,32.949-70.482,62.252-88.805
	c-0.231-0.145-0.46-0.297-0.693-0.44c-5.861-3.61-12.857-3.61-18.718,0c-31.067,19.144-55.312,52.844-64.283,95.032
	c15.677,7.484,28.842,18,39.962,30.958c3.449-3.502,7.007-6.77,10.736-9.848C226.752,118.604,218.262,112.363,208.81,107.283z"/>
<path style="fill:#3BBC56;" d="M368.07,101.057c-3.569-4.404-9.006-6.314-14.542-5.103c-22.491,4.905-45.053,17.841-63.213,39.028
	c16.506,16.755,28.505,37.281,35.608,59.624l0.035,0.09l0.469-0.19l0.221,0.4c20.073-11.072,42.828-16.178,65.815-14.743
	l0.515,0.032l0.019-0.516C394.085,150.159,385.233,122.236,368.07,101.057z"/>
<path style="fill:#30AA44;" d="M313.347,131.403c15.251-16.548,33.274-27.587,51.622-33.238c-3.277-2.286-7.331-3.11-11.441-2.21
	c-22.491,4.905-45.053,17.841-63.213,39.028c16.506,16.755,28.505,37.281,35.608,59.624l0.035,0.09l0.469-0.19l0.221,0.4
	c5.358-2.955,10.912-5.472,16.606-7.566c-6.738-18.079-16.769-34.782-29.89-49.003C311.559,136.382,311.543,133.361,313.347,131.403
	z"/>
<path style="fill:#3BBC56;" d="M161.158,95.954c-5.538-1.211-10.973,0.699-14.543,5.103c-16.539,20.408-26.041,47.813-24.907,79.139
	c24.461-1.541,46.904,3.975,66.867,15.007c7.473-23.526,19.544-43.698,35.796-60.221
	C206.518,114.123,184.008,100.938,161.158,95.954z"/>
<path style="fill:#30AA44;" d="M166.717,103.067c1.466-1.81,3.253-3.191,5.228-4.115c-3.577-1.195-7.176-2.211-10.787-2.998
	c-5.538-1.211-10.973,0.699-14.543,5.103c-16.539,20.408-26.041,47.813-24.907,79.139c6.85-0.431,13.536-0.29,20.06,0.352
	C141.022,149.914,150.471,123.114,166.717,103.067z"/>
<g>
	<path style="fill:#3BBC56;" d="M417.403,190.919c-2.577-5.689-7.802-9.652-13.975-10.6c-26.439-4.059-53.878,0.809-77.265,13.71
		l-0.361,0.199l0.125,0.393c17.808,56.039,4.765,123.198-42.176,165.149c5.747,2.209,17.123,2.751,23.115,2.75
		C394.751,362.516,453.925,271.542,417.403,190.919z"/>
	<path style="fill:#3BBC56;" d="M188.883,194.227c-24.095-13.31-51.504-17.92-77.626-13.909c-6.173,0.948-11.397,4.911-13.975,10.6
		c-18.431,40.686-13.139,88.034,13.812,123.565c39.335,51.861,102.627,51.901,119.841,45.284
		C184.764,318.506,170.53,252.033,188.883,194.227z"/>
	<path style="fill:#3BBC56;" d="M417.403,190.919c-2.577-5.689-7.802-9.652-13.975-10.6c-26.439-4.059-53.878,0.809-77.265,13.71
		l-0.361,0.199l0.125,0.393c17.808,56.039,4.765,123.198-42.176,165.149c5.747,2.209,17.123,2.751,23.115,2.75
		C394.751,362.516,453.925,271.542,417.403,190.919z"/>
</g>
<g>
	<path style="fill:#30AA44;" d="M316.702,362.094c-5.378-0.439-7.826-6.896-4.122-10.82c39.779-42.144,50.374-103.386,33.723-155.78
		l0,0c-0.232-0.736,0.088-1.534,0.766-1.904l0.307-0.168c15.053-8.303,30.676-12.652,47.739-14.061
		c-23.815-1.974-48.009,3.114-68.953,14.667l-0.361,0.199l0.125,0.393c17.808,56.039,4.764,123.198-42.176,165.149
		c5.747,2.209,17.123,2.751,23.115,2.75c3.373,0,6.697-0.15,9.982-0.412L316.702,362.094z"/>
	<path style="fill:#30AA44;" d="M131.196,314.484c-26.951-35.532-32.243-82.88-13.812-123.565c2.577-5.689,7.802-9.652,13.975-10.6
		c2.765-0.424,5.547-0.731,8.335-0.963c-9.503-0.788-19.053-0.478-28.437,0.963c-6.173,0.948-11.397,4.911-13.975,10.6
		c-18.431,40.686-13.139,88.034,13.812,123.565c32.781,43.22,82.196,50.446,107.717,47.826
		C192.256,359.941,156.695,348.103,131.196,314.484z"/>
</g>
<path style="fill:#3BBC56;" d="M310.116,437.826l-23.511-78.138c-0.319-0.095-0.634-0.188-0.948-0.29
	c0.003-0.002,0.67-0.617,0.672-0.619l-0.343-1.146c-17.451,14.219-40.625,13.577-57.289,0l-0.343,1.146
	c0.022,0.02,0.651,0.599,0.672,0.62c-0.319,0.103-0.627,0.194-0.948,0.289l-23.234,77.215c-5.046,16.77-1.948,34.447,8.5,48.502
	c22.083,29.706,66.761,29.371,88.381,0.288C312.039,471.824,315.096,454.377,310.116,437.826z"/>
<path style="fill:#30AA44;" d="M233.449,485.406c-10.448-14.054-13.546-31.732-8.5-48.502l21.161-70.327
	c-6.197-1.643-12.132-4.642-17.411-8.943l-0.343,1.146c0.022,0.02,0.651,0.599,0.672,0.62c-0.319,0.103-0.627,0.194-0.948,0.289
	l-23.234,77.215c-5.046,16.77-1.948,34.447,8.5,48.502c13.274,17.857,34.71,24.842,54.397,21.271
	C254.65,504.301,242.253,497.249,233.449,485.406z"/>
<path style="fill:#3BBC56;" d="M266.7,114.878c-5.685-3.502-13.031-3.502-18.717,0c-79.99,49.29-91.448,174.393-22.356,241.358
	c17.783,17.236,45.644,17.237,63.428,0C358.249,289.174,346.559,164.087,266.7,114.878z"/>
<path style="fill:#30AA44;" d="M245.731,356.236c-68.89-66.769-57.694-191.328,21.663-240.914c-0.233-0.146-0.458-0.299-0.693-0.443
	c-5.685-3.502-13.031-3.502-18.717,0c-79.99,49.29-91.448,174.393-22.356,241.358c11.52,11.165,27.266,15.088,41.765,11.788
	C259.51,366.23,251.994,362.307,245.731,356.236z"/>
<path d="M426.002,254.38c4.154,0.17,7.687-3.023,7.879-7.182c0.938-20.284-2.981-40.749-11.332-59.184
	c-3.562-7.863-10.783-13.34-19.315-14.65c-1.462-0.224-2.93-0.408-4.397-0.581c-0.424-28.566-9.728-55.382-26.564-76.156
	c-5.199-6.417-13.437-9.308-21.506-7.548c-5.55,1.21-11.026,2.89-16.394,4.959c-10.374-38.354-33.801-70.941-65.243-90.317
	c-8.049-4.961-18.051-4.961-26.1,0c-31.443,19.375-54.87,51.963-65.243,90.317c-5.366-2.07-10.842-3.748-16.392-4.958
	c-8.069-1.764-16.309,1.131-21.508,7.547c-16.834,20.772-26.139,47.589-26.563,76.156c-1.467,0.173-2.934,0.357-4.396,0.581
	c-8.531,1.311-15.753,6.787-19.316,14.65c-40.354,89.08,29.733,188.763,127.012,181.141l-19.775,65.722
	c-9.786,32.515,8.408,65.865,39.211,76.366c3.94,1.346,8.225-0.763,9.568-4.703c1.344-3.941-0.762-8.225-4.703-9.568
	c-23.911-8.15-36.931-33.519-29.639-57.751l20.727-68.883c15.007,7.785,32.955,7.876,48.138,0l21.005,69.805
	c7.166,23.815-6.208,49.423-29.811,57.083c-9.384,3.045-4.924,17.441,4.655,14.341c30.726-9.972,49.42-43.112,39.594-75.768
	l-20.053-66.643c43.38,3.398,85.787-15.335,112.397-50.42c7.903-10.421,14.144-21.913,18.547-34.156
	c1.408-3.917-0.625-8.236-4.543-9.645c-3.917-1.409-8.235,0.624-9.645,4.543c-3.885,10.804-9.394,20.947-16.372,30.148
	c-22.896,30.186-59.108,46.72-96.49,44.684c38.01-41.994,49.359-103.001,34.714-155.996c20.365-9.861,43.869-13.567,66.799-10.047
	c3.477,0.534,6.42,2.766,7.87,5.969c7.373,16.276,10.833,34.349,10.005,52.265C418.628,250.66,421.843,254.188,426.002,254.38z
	 M250.939,16.557c3.266-2.012,7.014-2.012,10.281,0c28.85,17.778,50.22,48.127,59.25,83.868
	c-10.813,5.863-21.737,14.057-31.096,23.736c-6.365-5.768-13.231-10.951-20.246-15.272c0,0,0,0,0-0.001
	c-13.474-8.305-24.325-1.793-34.883,5.919c-4.082,2.985-7.955,6.176-11.461,9.354c-8.917-9.221-19.718-17.568-31.096-23.736
	C200.719,64.684,222.09,34.335,250.939,16.557z M151.6,106.12c1.639-2.022,4.039-2.869,6.581-2.309
	c20.438,4.457,39.243,15.731,53.99,31.074c-12.852,14.419-22.753,31.276-29.439,48.961c-17.349-8.063-35.99-11.957-54.32-11.957
	C129.006,147.117,137.114,123.995,151.6,106.12z M103.343,194.237c1.452-3.204,4.395-5.437,7.872-5.97
	c21.931-3.369,45.596-0.214,66.798,10.048c-14.69,53.164-3.243,114.054,34.715,155.995
	C128.009,358.914,68.176,271.868,103.343,194.237z M281.709,350.914c-15.521,14.535-38.78,14.962-59.248-8.36
	c-57.321-65.666-43.41-176.528,28.479-220.827c3.12-1.925,7.159-1.926,10.281,0v-0.001
	C337.169,168.527,347.397,288.005,281.709,350.914z M329.428,183.846c-6.658-17.607-16.586-34.546-29.44-48.961
	c14.65-15.24,33.421-26.588,53.992-31.075c2.536-0.554,4.94,0.287,6.579,2.311c14.487,17.874,22.594,40.997,23.188,65.769
	C365.444,171.889,346.815,175.768,329.428,183.846z"/>
<g>
</g>
<g>
</g>
<g>
</g>
<g>
</g>
<g>
</g>
<g>
</g>
<g>
</g>
<g>
</g>
<g>
</g>
<g>
</g>
<g>
</g>
<g>
</g>
<g>
</g>
<g>
</g>
<g>
</g>
</svg>
