<?xml version="1.0" encoding="iso-8859-1"?>
<!-- Generator: Adobe Illustrator 19.0.0, SVG Export Plug-In . SVG Version: 6.00 Build 0)  -->
<svg version="1.1" id="Capa_1" xmlns="http://www.w3.org/2000/svg" xmlns:xlink="http://www.w3.org/1999/xlink" x="0px" y="0px"
	 viewBox="0 0 512 512" style="enable-background:new 0 0 512 512;" xml:space="preserve">
<path style="fill:#30AA44;" d="M413.669,251.756c-3.038-6.635-7.647-12.048-13.175-16.023c-6.372-23.39-6.214-52.373,5.366-88.139
	c0.445-1.374,1.754-2.292,3.198-2.246c0.016,0,0.031,0.001,0.047,0.001c1.479,0.047,2.922,0.411,4.24,1.085
	c23.276,11.9,104.208,61.513,90.962,170.611c-0.65,5.354-6.03,8.782-11.147,7.078c-17.093-5.694-52.906-20.835-75.876-53.034
	C417.675,264.651,416.541,258.027,413.669,251.756z"/>
<path style="fill:#269E35;" d="M437.285,271.087c-10.181-12.381-16.791-35.355-16.791-35.355
	c-6.072-22.287-6.206-49.658,3.812-83.131c-4.34-2.656-8.092-4.7-10.962-6.169c-1.317-0.674-2.761-1.038-4.24-1.085
	c-0.016,0-0.031-0.001-0.047-0.001c-1.444-0.046-2.753,0.871-3.198,2.246c-11.58,35.766-11.738,64.75-5.366,88.139
	c5.529,3.975,10.137,9.39,13.175,16.023c2.873,6.273,4.007,12.895,3.615,19.332c22.97,32.199,58.783,47.34,75.876,53.034
	c3.926,1.307,7.999-0.412,9.979-3.698C484.425,312.871,456.409,297.894,437.285,271.087z"/>
<circle style="fill:#EA473B;" cx="376.775" cy="268.392" r="40.585"/>
<circle style="fill:#EA4E4E;" cx="303.938" cy="285.584" r="32.796"/>
<circle style="fill:#EA473B;" cx="238.592" cy="321.907" r="38.374"/>
<circle style="fill:#F76A66;" cx="277.965" cy="191.205" r="32.796"/>
<circle style="fill:#EA4E4E;" cx="183.177" cy="368.312" r="25.272"/>
<circle style="fill:#EA473B;" cx="148.804" cy="423.037" r="25.272"/>
<circle style="fill:#F76A66;" cx="138.093" cy="359.331" r="19.876"/>
<circle style="fill:#EA473B;" cx="143.183" cy="293.855" r="23.338"/>
<circle style="fill:#EA4E4E;" cx="49.254" cy="423.037" r="23.338"/>
<circle style="fill:#F76A66;" cx="96.179" cy="399.134" r="23.338"/>
<circle style="fill:#EA473B;" cx="41.552" cy="340.479" r="32.796"/>
<path style="fill:#DD332F;" d="M359.874,285.287c-9.334-20.378-0.38-44.464,19.999-53.798c2.261-1.036,4.569-1.833,6.897-2.428
	c-8.673-2.21-18.128-1.589-26.898,2.428c-20.378,9.334-29.332,33.419-19.999,53.798c8.298,18.118,28.255,27.191,46.901,22.427
	C375.295,304.788,365.19,296.895,359.874,285.287z"/>
<path style="fill:#DD4747;" d="M294.118,299.237c-7.543-16.467-0.307-35.932,16.16-43.475c1.207-0.552,2.431-1.016,3.664-1.412
	c-7.518-2.411-15.922-2.134-23.666,1.412c-16.468,7.543-23.703,27.006-16.16,43.475c6.99,15.261,24.217,22.584,39.811,17.574
	C305.457,314.095,298.114,307.962,294.118,299.237z"/>
<path style="fill:#DD332F;" d="M223.712,337.881c-8.824-19.266-0.359-42.037,18.907-50.861c1.962-0.899,3.961-1.609,5.979-2.155
	c-8.348-2.259-17.503-1.727-25.98,2.155c-19.266,8.824-27.731,31.595-18.907,50.861c7.925,17.304,27.1,25.885,44.882,21.062
	C237.97,356.067,228.654,348.67,223.712,337.881z"/>
<path style="fill:#EA4E4E;" d="M268.155,204.862c-7.543-16.468-0.307-35.932,16.16-43.475c1.207-0.552,2.431-1.016,3.663-1.412
	c-7.517-2.411-15.922-2.134-23.665,1.412c-16.468,7.543-23.703,27.006-16.16,43.475c6.99,15.261,24.217,22.584,39.811,17.574
	C279.494,219.718,272.151,213.586,268.155,204.862z"/>
<path style="fill:#DD4747;" d="M180.202,378.836c-5.812-12.687-0.236-27.684,12.451-33.494c0.175-0.08,0.353-0.15,0.529-0.226
	c-6.338-2.732-13.762-2.874-20.531,0.226c-12.687,5.812-18.262,20.807-12.451,33.494c5.731,12.512,20.393,18.099,32.966,12.677
	C187.624,389.124,182.914,384.754,180.202,378.836z"/>
<path style="fill:#DD332F;" d="M145.836,433.559c-5.812-12.687-0.237-27.684,12.451-33.494c0.175-0.08,0.353-0.15,0.529-0.226
	c-6.338-2.731-13.762-2.874-20.531,0.226c-12.687,5.811-18.262,20.807-12.451,33.494c5.731,12.512,20.393,18.099,32.966,12.677
	C153.257,443.847,148.547,439.477,145.836,433.559z"/>
<path style="fill:#EA4E4E;" d="M140.028,367.606c-4.296-9.38-0.678-20.361,8.058-25.443c-5.392-3.131-12.165-3.698-18.266-0.904
	c-9.98,4.571-14.365,16.366-9.794,26.346s16.367,14.365,26.346,9.794c0.6-0.275,1.177-0.579,1.736-0.904
	C144.68,374.505,141.805,371.485,140.028,367.606z"/>
<path style="fill:#DD332F;" d="M141.97,303.574c-5.323-11.624-0.298-25.34,11.22-30.8c-6.014-2.85-13.197-3.125-19.722-0.137
	c-11.719,5.367-16.868,19.218-11.5,30.937c5.367,11.718,19.218,16.868,30.937,11.5c0.095-0.044,0.186-0.092,0.28-0.137
	C148.397,312.668,144.349,308.768,141.97,303.574z"/>
<path style="fill:#DD4747;" d="M48.034,432.756c-5.323-11.623-0.298-25.34,11.22-30.8c-6.014-2.85-13.197-3.125-19.722-0.137
	c-11.719,5.367-16.868,19.218-11.5,30.937c5.367,11.719,19.218,16.868,30.937,11.5c0.095-0.044,0.186-0.092,0.28-0.137
	C54.461,441.849,50.414,437.949,48.034,432.756z"/>
<path style="fill:#EA4E4E;" d="M94.966,408.852c-5.323-11.623-0.298-25.34,11.22-30.8c-6.014-2.85-13.198-3.125-19.722-0.137
	c-11.719,5.367-16.868,19.218-11.5,30.937c5.367,11.719,19.218,16.868,30.937,11.5c0.095-0.044,0.186-0.092,0.28-0.137
	C101.392,417.946,97.345,414.047,94.966,408.852z"/>
<path style="fill:#DD332F;" d="M31.736,354.133c-7.543-16.467-0.307-35.932,16.16-43.475c1.207-0.553,2.43-1.016,3.663-1.412
	c-7.518-2.411-15.922-2.134-23.665,1.412c-16.468,7.543-23.703,27.007-16.16,43.475c6.99,15.261,24.217,22.584,39.811,17.574
	C43.075,368.99,35.732,362.858,31.736,354.133z"/>
<path d="M3.658,357.525c15.969,34.867,67.708,29.747,76.023-8.246c6.498,0.217,12.983-0.14,20.222-1.282
	c-15.635,14.497-28.801,29.782-40.157,46.552c-25.796-10.631-51.421,15.934-39.789,41.33c13.095,28.591,56.297,21.401,58.791-10.48
	c11.555,7.085,25.965,5.79,36.043-2.67c-0.2,18.205,14.56,33.076,32.808,33.076c30.149,0,44.04-37.375,21.766-57.228
	c24.726,10.231,50.173-11.772,44.571-37.238c0.812,0.479,1.635,0.944,2.482,1.377c3.688,1.89,8.208,0.43,10.095-3.259
	c1.887-3.687,0.428-8.207-3.259-10.094c-22.832-11.687-22.201-44.789,1.229-55.523c15.475-7.088,33.83-0.263,40.919,15.211
	c6.9,15.064,0.759,32.773-13.98,40.316c-3.687,1.888-5.146,6.407-3.259,10.095c1.327,2.594,3.956,4.085,6.683,4.085
	c1.15,0,2.317-0.266,3.411-0.825c16.092-8.236,25.277-24.624,24.962-41.616c5.945,3.271,12.664,5.04,19.519,5.04
	c5.605,0,11.298-1.176,16.719-3.658c9.69-4.438,16.772-12.264,20.507-21.433c5.098,5.605,11.488,9.959,18.795,12.674
	c5.458,2.028,11.125,3.039,16.779,3.039c18.399,0,36.345-10.786,44.196-29.226c27.4,29.927,68.104,44.522,74.87,44.522
	c7.925,0,14.897-5.911,15.892-14.114c4.069-33.521-0.13-64.674-12.483-92.595c-1.676-3.788-6.105-5.502-9.895-3.824
	c-3.788,1.676-5.501,6.105-3.824,9.894c11.245,25.415,15.05,53.919,11.311,84.719c-0.04,0.329-0.2,0.584-0.477,0.76
	c-1,0.633-45.577-13.542-71.512-48.143c0.038-14.432-6.553-28.331-17.773-37.43c-4.534-18.36-4.386-38.844,0.412-61.14
	c10.15,30.028,27.076,67.447,55.307,109.694c1.446,2.164,3.822,3.334,6.244,3.334c5.956,0,9.565-6.678,6.23-11.669
	c-29.48-44.116-46.162-82.961-55.608-112.994c13.415,8.1,32.761,22.301,49.008,44.082c2.477,3.318,7.176,4.005,10.497,1.527
	c3.32-2.477,4.004-7.177,1.527-10.497c-23.993-32.166-54.225-49.171-66.11-54.988c-0.185-0.091-0.376-0.166-0.568-0.241
	c-6.103-24.859-6.63-40.581-6.667-43.899c3.54-18.27,3.303-30.224,3.282-31.04c-0.11-4.142-3.566-7.434-7.697-7.3
	c-4.141,0.109-7.409,3.555-7.3,7.696c0.305,11.108-3.267,61.333-39.508,110.656c-17.378,9.028-31.867,8.895-38.867,8.037
	c-5.751-25.198-33.091-38.283-56.09-27.75c-32.527,14.898-30.804,61.941,2.739,74.409c23.84,8.862,49.877-6.3,53.867-31.565
	c6.569,0.544,13.229,0.145,19.715-1.009c-47.195,49.113-85.456,52.671-163.52,98.617c0.185-4.678-0.687-9.466-2.767-14.006
	c-11.445-24.988-47.431-23.491-56.943,2.096c-5.8,15.6,1.78,32.851,17.101,39.201c-9.088,4.554-28.192,12.454-50.048,11.705
	c-4.342-26.474-32.619-41.141-56.561-30.176C3.313,313.36-5.595,337.323,3.658,357.525z M42.476,437.881
	c-3.965-1.474-7.12-4.403-8.881-8.25C28.802,419.165,36.48,407.2,47.97,407.2c6.007,0,11.762,3.433,14.422,9.241
	C68.286,429.31,55.576,442.756,42.476,437.881z M267.901,215.183c-6.334-2.354-11.371-7.034-14.184-13.177
	c-5.809-12.681-0.216-27.724,12.465-33.531c12.68-5.809,27.725-0.217,33.531,12.465C309.03,201.284,289.059,223.054,267.901,215.183
	z M389.29,298.734c-8.035,3.678-17.021,4.01-25.304,0.932c-8.283-3.079-14.871-9.2-18.551-17.234
	c-14.048-30.674,21.861-60.29,49.341-40.681C415.837,257.425,411.925,288.367,389.29,298.734z M374.409,172.805
	c8.505-13.13,15.569-27.009,21.172-41.624c0.754,3.674,1.636,7.593,2.663,11.738c-9.646,28.819-12.775,55.501-9.367,79.559
	c-5.997-1.745-12.181-2.298-18.276-1.667C368.221,212.961,365.453,196.101,374.409,172.805z M353.35,200.438
	c-0.376,10.426,1.174,18.664,2.79,24.221c-13.559,5.977-23.004,17.292-26.88,30.891c-8.087-7.09-18.788-10.706-29.569-9.9
	C319.668,232.965,337.754,217.981,353.35,200.438z M278.967,277.034c7.859-21.14,37.39-22.063,46.709-1.719
	c5.809,12.681,0.216,27.724-12.465,33.531c-12.682,5.811-27.724,0.216-33.532-12.465
	C276.865,290.238,276.612,283.368,278.967,277.034z M270.095,262.127c-4.589,6.325-7.217,13.791-7.665,21.408
	c-6.515-4.245-14.03-6.8-21.808-7.372C256.145,268.59,263.58,265.295,270.095,262.127z M89.407,413.979
	c-13.173-4.896-13.87-23.383-1.076-29.243c7.918-3.629,17.35-0.154,20.994,7.804C115.208,405.385,102.537,418.854,89.407,413.979z
	 M154.949,439.191c-8.929,4.087-19.462,0.175-23.552-8.756c-5.313-11.603,3.036-24.979,15.898-25.158
	c0.493,0.044,0.666,0.081,1.348,0.019C166.933,406.448,171.764,431.486,154.949,439.191z M156.651,391.566
	c0.126-0.641,0.253-1.281,0.386-1.918c0.951,1.112,1.975,2.156,3.065,3.128C159.102,392.362,158.298,392.045,156.651,391.566z
	 M198.571,374.504c-1.653,4.448-4.94,7.986-9.255,9.963c-4.314,1.975-9.142,2.151-13.589,0.5c-4.448-1.653-7.986-4.939-9.962-9.255
	c-6.581-14.368,7.593-29.534,22.344-24.052C197.311,355.081,201.994,365.298,198.571,374.504z M192.403,312.828
	c-1.667,8.2-1.113,16.912,2.006,25.2c-5.436-2.237-11.143-2.957-16.736-2.219C182.605,327,187.718,319.273,192.403,312.828z
	 M174.984,311.347c-5.782,8.578-11.832,18.735-17.301,30.226c-3.753-4.419-8.837-7.553-14.688-8.916
	c1-0.603,1.968-1.168,2.906-2.486C154.844,323.899,164.505,317.648,174.984,311.347z M127.532,300.718
	c-5.833-12.735,6.667-26.371,19.917-21.44c13.174,4.896,13.871,23.383,1.077,29.243C140.586,312.16,131.167,308.656,127.532,300.718
	z M141.153,347.731c10.294,3.826,10.837,18.272,0.841,22.85c-6.203,2.84-13.563,0.106-16.405-6.099
	C121.031,354.531,130.8,343.876,141.153,347.731z M142.443,386.125c-0.326,1.552-0.637,3.115-0.924,4.691
	c-5.699,1.078-11.208,3.693-15.75,7.74c-0.119-6.459-2.28-12.803-6.3-18.088C125.788,385.645,134.216,387.846,142.443,386.125z
	 M109.457,359.459c0.024,5.656,1.811,11.305,5.364,16.121c-4.248-3.577-9.384-5.937-14.816-6.853
	C103.035,365.604,106.183,362.517,109.457,359.459z M29.762,317.746c12.681-5.81,27.724-0.217,33.531,12.465
	c5.822,12.71,0.249,27.711-12.464,33.531c-12.681,5.812-27.724,0.216-33.532-12.465S17.081,323.555,29.762,317.746z"/>
<g>
</g>
<g>
</g>
<g>
</g>
<g>
</g>
<g>
</g>
<g>
</g>
<g>
</g>
<g>
</g>
<g>
</g>
<g>
</g>
<g>
</g>
<g>
</g>
<g>
</g>
<g>
</g>
<g>
</g>
</svg>
