<?xml version="1.0" encoding="iso-8859-1"?>
<!-- Generator: Adobe Illustrator 19.0.0, SVG Export Plug-In . SVG Version: 6.00 Build 0)  -->
<svg version="1.1" id="Capa_1" xmlns="http://www.w3.org/2000/svg" xmlns:xlink="http://www.w3.org/1999/xlink" x="0px" y="0px"
	 viewBox="0 0 512 512" style="enable-background:new 0 0 512 512;" xml:space="preserve">
<path style="fill:#3BBC56;" d="M96.616,159.913c-3.835,0.337-7.456-1.814-9.132-5.28c-14.927-30.839-57.026-35.004-72.819-9.315
	c-12.882,20.952-1.155,37.279,5.072,43.8c2.046,2.142,3.4,4.855,3.86,7.783c0.333,2.118,0.776,4.089,1.299,5.944
	c12.66-3.985,31.311-2.785,42.025,11.467c1.675,2.229,4.548,3.253,7.227,2.479c6.686-1.934,21.852-4.011,34.346,10.841l1.876-4.31
	c6.381-14.663,17.791-24.978,32.492-26.854C140.247,190.924,128.768,157.08,96.616,159.913z"/>
<g>
	<path style="fill:#30AA44;" d="M44.729,196.899c-0.46-2.927-1.814-5.64-3.86-7.783c-6.227-6.52-17.953-22.847-5.072-43.799
		c4.999-8.132,12.637-13.262,21.212-15.512c-16.081-3.985-33.415,0.989-42.344,15.512c-12.882,20.952-1.155,37.279,5.072,43.799
		c2.046,2.142,3.4,4.855,3.86,7.783c0.333,2.118,0.776,4.089,1.299,5.944c6.071-1.911,13.52-2.624,20.81-1.283
		C45.329,200.079,44.988,198.546,44.729,196.899z"/>
	<path style="fill:#30AA44;" d="M107.344,231.577l2.155-4.953c-12.494-14.853-28.666-13.782-35.352-11.847
		c-2.678,0.775-5.552-0.25-7.227-2.479c-14.911-19.837-45.413-16.924-53.056,3.537c-6.233,16.689,4.379,26.658,9.715,30.423
		c1.753,1.237,3.094,2.977,3.829,4.993c7.656,20.99,26.205,19.142,34.705,17.032c2.204-0.547,4.428,0.558,5.501,2.56
		c2.583,4.814,14.182,11.101,42.587,0.52C103.104,259.863,101.442,245.141,107.344,231.577z"/>
</g>
<path style="fill:#269E35;" d="M50.12,251.743c-0.763-2.091-2.152-3.895-3.971-5.178c-5.534-3.904-16.538-14.243-10.075-31.549
	c2.567-6.874,7.63-11.824,13.816-14.695c-14.456-4.408-30.729,1.335-36.025,15.516c-6.233,16.689,4.379,26.658,9.715,30.423
	c1.753,1.237,3.094,2.977,3.829,4.993c7.656,20.99,26.205,19.142,34.705,17.032c0.746-0.185,1.49-0.167,2.195-0.003
	C58.668,265.733,53.418,260.786,50.12,251.743z"/>
<path style="fill:#F7991E;" d="M493.273,361.566L167.648,200.629c-22.33-11.036-49.351-1.153-59.29,21.687l-4.031,9.263
	c-10.523,24.179,2.991,52.047,28.491,58.759l352.397,92.752C498.677,386.633,505.752,367.733,493.273,361.566z"/>
<path style="fill:#EA8B18;" d="M148.964,272.287c-25.501-6.712-39.014-34.58-28.491-58.759l4.031-9.263
	c0.222-0.511,0.464-1.008,0.703-1.506c-7.207,4.499-13.189,11.145-16.849,19.556l-4.031,9.263
	c-10.523,24.179,2.991,52.047,28.491,58.759l352.397,92.752c12.133,3.193,19.07-11.839,11.187-19.355L148.964,272.287z"/>
<path style="fill:#3BBC56;" d="M376.451,192.823c12.979-31.244,34.027-33.844,44.622-32.91c3.835,0.337,7.456-1.814,9.132-5.28
	c14.927-30.839,57.026-35.004,72.819-9.315c12.882,20.952,1.155,37.279-5.072,43.8c-4.112,4.305-3.434,7.606-5.159,13.727
	c-12.66-3.985-31.311-2.785-42.025,11.467c-1.676,2.229-4.548,3.253-7.227,2.479c-6.686-1.934-21.852-4.011-34.346,10.841
	l-1.876-4.31c-6.381-14.663-17.791-24.978-32.492-26.854C375.377,195.3,375.921,194.098,376.451,192.823z"/>
<g>
	<path style="fill:#30AA44;" d="M410.023,198.618c-4.323-1.67-6.463-6.504-4.644-10.766c0.03-0.07,0.056-0.132,0.078-0.185
		c12.98-31.249,31.692-28.687,42.287-27.754c3.85,0.339,7.443-1.798,9.126-5.278c5.988-12.373,16.352-20.442,27.634-24.022
		c-18.958-6.496-43.674,1.935-54.35,24.124c-1.663,3.458-5.347,5.495-9.169,5.168c-10.623-0.911-31.592,1.76-44.535,32.918
		c-0.529,1.275-1.073,2.478-1.623,3.644c14.7,1.876,26.111,12.191,32.492,26.854l1.876,4.31c6.729-8,14.232-11.084,20.769-11.929
		C424.953,207.776,418.173,201.767,410.023,198.618z"/>
	<path style="fill:#30AA44;" d="M410.344,231.577l-2.155-4.953c12.494-14.853,28.666-13.782,35.352-11.847
		c2.678,0.775,5.552-0.25,7.227-2.479c14.911-19.837,45.413-16.924,53.056,3.537c6.233,16.689-4.379,26.658-9.715,30.423
		c-1.753,1.237-3.094,2.977-3.829,4.993c-7.656,20.99-26.205,19.142-34.705,17.032c-2.204-0.547-4.428,0.558-5.501,2.56
		c-2.583,4.814-14.182,11.101-42.586,0.52C414.584,259.863,416.247,245.141,410.344,231.577z"/>
</g>
<path style="fill:#269E35;" d="M429.484,276.905c7.296-9.998,10.319-23.086,6.897-36.208l0,0c-0.872-3.345,0.456-6.918,3.368-8.78
	c13.189-8.432,26.397-5.311,32.028-2.681c2.526,1.179,5.524,0.612,7.523-1.33c7.311-7.1,16.624-9.997,25.367-9.471
	c-0.24-0.849-0.513-1.713-0.844-2.599c-7.642-20.461-38.144-23.374-53.056-3.537c-1.675,2.229-4.549,3.253-7.227,2.479
	c-6.686-1.934-22.858-3.006-35.352,11.847l2.155,4.953c5.903,13.564,4.24,28.286-2.858,39.786
	C416.391,274.68,423.642,276.338,429.484,276.905z"/>
<path style="fill:#FFA92C;" d="M24.416,361.566l325.625-160.937c22.33-11.036,49.351-1.153,59.29,21.687l4.031,9.263
	c10.523,24.179-2.991,52.047-28.491,58.759L32.473,383.089C19.011,386.633,11.936,367.733,24.416,361.566z"/>
<path style="fill:#F7991E;" d="M368.725,272.287c25.501-6.712,39.014-34.58,28.491-58.759l-4.031-9.263
	c-0.222-0.511-0.464-1.008-0.703-1.506c7.207,4.499,13.189,11.145,16.849,19.556l4.031,9.263
	c10.523,24.179-2.991,52.047-28.491,58.759L32.473,383.089c-12.133,3.193-19.07-11.839-11.187-19.355L368.725,272.287z"/>
<path d="M12.867,194.329c1.646,1.723,1.793,3.337,2.151,5.28c-14.471,12.11-18.472,37.805,2.798,52.815
	c0.507,0.358,0.885,0.846,1.091,1.414c6.606,18.113,22.085,26.32,41.642,22.222c8.455,12.483,27.97,8.988,42.355,4.297
	c9.204,11.493,19.451,15.402,30.486,18.307L19.807,354.799c-8.967,4.432-12.93,14.447-9.423,23.816
	c2.889,7.717,9.89,12.437,17.676,12.437c1.664,0,3.366-0.215,5.07-0.664l224.376-59.057l98.486,25.922
	c0.005,0.001,0.011,0.003,0.016,0.004c135.83,35.752,127.306,33.794,130.942,33.794c19.47-0.001,26.719-27.127,8.253-36.253
	l-113.582-56.136c5.685-1.496,19.319-4.363,30.486-18.307c14.391,4.694,33.907,8.184,42.356-4.296
	c19.559,4.095,35.034-4.109,41.644-22.223c0.206-0.567,0.583-1.054,1.089-1.411c21.255-14.998,17.281-40.696,2.8-52.815
	c1.059-5.75,1.416-3.595,6.368-10.299c2.477-3.352,1.767-8.078-1.585-10.555c-3.35-2.478-8.078-1.769-10.555,1.585
	c-2.989,4.043-6.157,5.964-8.112,12.226c-15.65-4.032-32.372,1.855-42.333,14.795c-9.787-2.621-21.342-1.114-31.5,6.602
	c-6.113-10.556-15.778-18.677-28.073-22.774c10.959-22.253,26.407-24.509,34.943-23.758c6.891,0.608,13.543-3.217,16.587-9.511
	c12.427-25.675,47.052-29.053,59.597-8.649c0.71,1.155,1.342,2.322,1.931,3.564c1.785,3.768,6.286,5.373,10.051,3.59
	c3.768-1.784,5.375-6.284,3.59-10.052c-0.815-1.72-1.729-3.405-2.715-5.01c-18.954-30.831-68.528-26.203-86.041,9.98
	c-0.327,0.675-1.013,1.104-1.676,1.049c-10.499-0.923-36.33,0.825-51.651,36.156c-7.998-0.124-15.97,1.646-23.386,5.312
	l-87.927,43.457l-87.927-43.457c-7.416-3.666-15.387-5.436-23.385-5.312c-15.323-35.332-41.152-37.082-51.651-36.156
	c-0.663,0.056-1.35-0.374-1.677-1.05c-5.773-11.926-15.64-21.273-27.783-26.321c-3.847-1.599-8.266,0.224-9.866,4.072
	c-1.599,3.849,0.223,8.266,4.072,9.866c8.729,3.628,15.828,10.361,19.989,18.958c3.046,6.293,9.716,10.117,16.588,9.511
	c8.549-0.751,23.983,1.506,34.942,23.758c-12.28,4.093-21.95,12.202-28.073,22.774c-9.82-7.465-21.109-9.351-31.499-6.601
	c-10.182-13.223-27.04-18.734-42.333-14.795c-1.007-3.223-2.745-6.175-5.119-8.661c-16.489-17.264-6.881-37.631,6.618-44.535
	c3.711-1.898,5.181-6.444,3.284-10.156c-1.897-3.71-6.443-5.18-10.156-3.284C1.358,137.266-10.774,169.577,12.867,194.329z
	 M436.994,221.368c3.271,0.413,4.714,1.526,8.524,1.129c8.008-0.834,9.791-6.404,14.205-10.093
	c7.388-6.193,18.624-8.242,28.157-2.962c9.865,5.862,13.763,21.371,0.613,30.65c-3.032,2.139-5.303,5.105-6.567,8.574
	c-4.151,11.378-12.834,15.512-25.794,12.294c-5.498-1.368-11.242,1.23-13.973,6.316c-1.106,2.064-7.197,4.172-22.343-0.313
	c4.606-11.927,4.751-25.653-0.971-38.797C423.937,223.366,430.021,220.5,436.994,221.368z M488.515,368.332
	c2.823,1.395,2.449,3.726,1.975,4.991c-0.474,1.264-1.715,3.269-4.767,2.467l-117.958-31.047l2.416-6.79
	c1.398-3.928-0.653-8.244-4.581-9.641c-3.924-1.397-8.242,0.653-9.641,4.58l-2.845,7.995l-65.959-17.361
	c3.764-0.99,68.473-18.022,72.236-19.013L488.515,368.332z M316.588,224.956c3.787,4.063,9.611,10.735,13.118,16.816
	c1.398,2.423,3.936,3.778,6.545,3.778c1.279,0,2.576-0.326,3.764-1.01c3.611-2.082,4.849-6.698,2.767-10.309
	c-3.32-5.756-8.131-11.705-12.125-16.229l21.463-10.608c16.511-8.162,36.012-2.475,45.823,12.102
	c2.692,4.003,8.638,16.895,9.721,23.611c2.887,18-8.341,35.289-25.979,39.931l-68.283,17.972
	c-4.298-14.96-12.52-28.424-12.927-29.086c-2.187-3.55-6.838-4.654-10.384-2.469c-3.549,2.186-4.655,6.835-2.469,10.384
	c0.088,0.141,7.456,12.204,11.187,25.013c-6.096,1.604-131.185,34.529-137.204,36.113l-5.155-12.677
	c-1.571-3.862-5.976-5.719-9.835-4.149c-3.861,1.571-5.719,5.973-4.148,9.835l4.419,10.866L29.287,375.791
	c-3.044,0.8-4.294-1.203-4.767-2.467c-0.474-1.266-0.847-3.597,1.975-4.991l153.396-75.814l3.193,7.081
	c1.259,2.792,4.007,4.447,6.884,4.447c1.038,0,2.091-0.215,3.098-0.669c3.8-1.714,5.491-6.183,3.778-9.982l-3.413-7.569
	L316.588,224.956z M113.865,225.326c8.105-18.625,30.293-27.192,49.026-17.932l10.859,5.367
	c-3.962,4.788-8.643,11.944-12.931,22.369c-1.586,3.855,0.254,8.266,4.109,9.851c0.94,0.386,1.911,0.57,2.868,0.57
	c2.969,0,5.784-1.763,6.983-4.678c4.788-11.64,9.932-18.047,13.031-21.163l52.664,26.028l-37.439,18.504l-49.038,24.237
	l-20.669-5.44c-10.307-2.713-18.887-9.923-23.314-19.774C102.775,247.12,109.713,234.866,113.865,225.326z M19.523,218.476
	c5.389-14.426,27.204-16.494,38.767-3.102c1.391,1.61,3.125,4.594,7.684,6.289c8.785,3.266,12.618-4.084,24.095,2.035
	c2.217,1.18,4.24,2.714,6.098,4.468c-0.047,0.109-0.121,0.277-0.175,0.4l0,0c-5.265,12.098-5.608,25.924-0.797,38.396
	c-15.142,4.485-21.235,2.375-22.344,0.311c-2.737-5.1-8.494-7.677-13.97-6.315c-12.966,3.22-21.645-0.915-25.794-12.291
	c-1.264-3.469-3.535-6.434-6.568-8.575C21.078,236.253,15.449,229.386,19.523,218.476z"/>
<g>
</g>
<g>
</g>
<g>
</g>
<g>
</g>
<g>
</g>
<g>
</g>
<g>
</g>
<g>
</g>
<g>
</g>
<g>
</g>
<g>
</g>
<g>
</g>
<g>
</g>
<g>
</g>
<g>
</g>
</svg>
