<?xml version="1.0" encoding="iso-8859-1"?>
<!-- Generator: Adobe Illustrator 19.0.0, SVG Export Plug-In . SVG Version: 6.00 Build 0)  -->
<svg version="1.1" id="Capa_1" xmlns="http://www.w3.org/2000/svg" xmlns:xlink="http://www.w3.org/1999/xlink" x="0px" y="0px"
	 viewBox="0 0 511.998 511.998" style="enable-background:new 0 0 511.998 511.998;" xml:space="preserve">
<path style="fill:#30AA44;" d="M333.545,127.178c10.112-9.753,31.031-35.78,6.935-66.763c-2.204-2.834-3.473-6.242-3.67-9.858
	c-2.559-46.911-60.301-59.605-85.505-18.668c9.759,15.851,11.051,34.166,4.738,50.626c-1.802,4.698-0.547,10.061,3.124,13.341
	c10.293,9.194,25.022,30.25,8.029,67.974c-1.248,2.769-2.127,5.067-3.112,7.787c16.573,0,30.661-1.122,50.544,8.834
	c11.605-11.427,25.743-29.441,17.707-43.53C330.479,133.66,330.976,129.654,333.545,127.178z"/>
<path style="fill:#269E35;" d="M284.235,164.829c16.993-37.724,2.263-58.779-8.029-67.974c-3.671-3.28-4.926-8.642-3.124-13.341
	c5.635-14.696,5.21-30.872-1.892-45.451c-1.739-3.571-1.253-7.87,1.218-10.98c8.725-10.974,20.126-16.933,31.626-18.449
	c-18.233-4.653-39.775,2.217-52.727,23.254c9.759,15.851,11.051,34.166,4.738,50.626c-1.802,4.698-0.547,10.061,3.124,13.341
	c10.293,9.194,25.022,30.25,8.029,67.974c-1.248,2.769-2.126,5.067-3.112,7.787c5.978,0,11.634-0.144,17.355,0.137
	C282.302,169.403,283.124,167.296,284.235,164.829z"/>
<path style="fill:#3BBC56;" d="M259.834,95.109c-3.363-3.005-4.511-7.922-2.856-12.237c15.461-40.322-17.095-82.313-54.169-74.708
	c-30.598,6.286-35.254,31.741-35.835,42.393c-0.197,3.614-1.466,7.023-3.67,9.858c-24.095,30.981-3.176,57.009,6.936,66.763v-0.001
	c2.568,2.479,3.065,6.484,1.208,9.743c-8.996,15.778,9.502,36.375,23.039,48.49c23.955-15.849,42.385-13.793,70.641-13.793
	C268.923,161.175,290.4,122.414,259.834,95.109z"/>
<g>
	<path style="fill:#30AA44;" d="M191.449,136.919c1.858-3.258,1.361-7.264-1.208-9.743v0.001
		c-10.113-9.754-31.031-35.781-6.936-66.763c2.204-2.834,3.473-6.243,3.67-9.858c0.573-10.506,5.128-35.396,34.606-42.109
		c-5.966-1.423-12.3-1.611-18.772-0.283c-30.598,6.286-35.254,31.741-35.835,42.393c-0.197,3.614-1.466,7.023-3.67,9.858
		c-24.095,30.981-3.176,57.009,6.936,66.763v-0.001c2.568,2.479,3.065,6.484,1.208,9.743c-8.996,15.778,9.502,36.375,23.039,48.49
		c4.377-2.896,8.569-5.189,12.673-7.011C195.356,166.283,184.014,149.958,191.449,136.919z"/>
	<path style="fill:#30AA44;" d="M261.763,171.607c1.108,0.005,2.225,0.01,3.364,0.01c0.008-0.022,0.018-0.046,0.026-0.069
		C264.01,171.56,262.881,171.579,261.763,171.607z"/>
</g>
<path style="fill:#FFA92C;" d="M277.636,171.116c-13.634,0-24.043,0-37.677,0c-50.056,0-88.678,44.373-81.391,93.896
	c10.227,69.51,34.616,164.218,92.641,236.134c3.886,4.816,11.293,4.816,15.178,0c58.024-71.916,82.413-166.624,92.64-236.134
	C366.315,215.49,327.692,171.116,277.636,171.116z"/>
<path style="fill:#F7991E;" d="M179.532,265.012c-7.286-49.523,31.336-93.896,81.391-93.896c-6.731,0-13.344,0-20.964,0
	c-50.056,0-88.678,44.373-81.391,93.896c10.228,69.509,34.616,164.218,92.641,236.134c3.886,4.816,11.293,4.816,15.178,0
	c0.982-1.217,1.93-2.456,2.893-3.686C213.351,426.015,189.585,333.345,179.532,265.012z"/>
<path d="M282.54,286.62c0-4.143-3.357-7.5-7.5-7.5h-30.898c-4.143,0-7.5,3.357-7.5,7.5c0,4.143,3.357,7.5,7.5,7.5h30.898
	C279.182,294.12,282.54,290.763,282.54,286.62z"/>
<path d="M261.972,388.372h30.898c4.143,0,7.5-3.357,7.5-7.5c0-4.143-3.357-7.5-7.5-7.5h-30.898c-4.143,0-7.5,3.357-7.5,7.5
	C254.472,385.015,257.829,388.372,261.972,388.372z"/>
<path d="M278.256,17.792c3.823-1.595,5.63-5.986,4.035-9.81s-5.985-5.63-9.81-4.035c-7.786,3.247-14.927,8.477-20.788,15.111
	c-30.903-35.099-89.16-19.934-91.932,30.859c-0.119,2.184-0.882,4.239-2.205,5.941c-11.644,14.97-15.358,31.288-10.745,47.192
	c3.731,12.867,12.036,22.821,18.346,28.906c0.293,0.283,0.215,0.837-0.014,1.237c-5.604,9.829-6.647,26.356,17.523,50.621
	c-24.263,19.964-36.305,51.018-31.742,82.03c10.095,68.61,34.637,165.899,94.225,239.752c6.894,8.542,19.969,8.531,26.852-0.001
	c34.13-42.3,60.375-96.609,78.007-161.421c1.087-3.997-1.271-8.118-5.269-9.207c-3.99-1.08-8.118,1.271-9.206,5.269
	c-17.084,62.797-42.387,115.262-75.207,155.94c-0.886,1.099-2.62,1.095-3.502,0c-34.344-42.565-56.646-93.455-71.135-141.77h21.42
	c4.143,0,7.5-3.357,7.5-7.5c0-4.143-3.357-7.5-7.5-7.5h-25.699c-7.344-27.119-12.304-53.04-15.645-75.745
	c-1.052-7.151-1.02-14.33-0.012-21.337h23.006c4.143,0,7.5-3.357,7.5-7.5s-3.357-7.5-7.5-7.5h-19.222
	c10.987-29.934,39.396-48.966,70.199-48.966c42.484,0,51.29-1.316,68.978,6.857c17.486,8.049,31.828,22.844,38.898,42.107h-20.826
	c-4.143,0-7.5,3.357-7.5,7.5s3.357,7.5,7.5,7.5h24.61c1.461,10.163,1.663,19.904-7.524,63.327c-0.857,4.053,1.733,8.033,5.785,8.891
	c4.052,0.852,8.032-1.733,8.891-5.785c4.285-20.255,12.584-56.578,6.276-76.226c-5.259-22.444-19.031-42.062-38.527-54.709
	c18.476-21.158,16.933-35.799,11.896-44.628c-0.229-0.4-0.307-0.954-0.012-1.237c22.937-22.124,27.684-50.275,7.6-76.1
	c-1.323-1.701-2.086-3.755-2.205-5.94c-0.553-10.108-4.612-34.775-30.322-45.487c-3.824-1.595-8.214,0.215-9.809,4.038
	s0.215,8.215,4.038,9.809c17.219,7.175,20.619,23.417,21.112,32.46c0.287,5.252,2.135,10.209,5.344,14.333
	c18.414,23.679,6.807,43.572-6.172,56.09c-5.207,5.02-6.279,13.023-2.606,19.467c3.773,6.616-0.775,17.385-12.505,29.924
	c-4.997-2.139-9.856-3.696-14.645-4.809c18.082-48.376,3.987-108.373,3.352-111.005c-0.97-4.026-5.017-6.5-9.044-5.533
	c-4.025,0.968-6.505,5.017-5.539,9.043c0.147,0.613,14.272,60.922-4.021,105.318c-2.323-0.14-4.648-0.205-6.982-0.205
	c10.248-24.872,10.199-51.461-8.707-71.033c-2.578-2.669-5.052-3.875-3.768-7.237c6.971-18.209,5.266-37.468-2.803-53.122
	C265.267,25.59,271.451,20.63,278.256,17.792z M260.592,160.695c-0.347,0.77-1,2.287-1.157,2.662
	c-9.173,0-18.419-0.427-28.089,0.469c-24.761-48.077-19.551-109.625-19.473-110.479c0.38-4.125-2.654-7.777-6.779-8.158
	c-4.112-0.374-7.777,2.655-8.158,6.779c-0.244,2.647-5.487,63.271,19.009,114.562c-6.616,1.775-13.486,4.482-20.71,8.613
	c-14.921-14.409-21.274-27.125-17.058-34.521c3.671-6.438,2.601-14.442-2.603-19.463c-0.001,0-0.001-0.001-0.002-0.001
	c-12.981-12.52-24.59-32.414-6.172-56.094c3.208-4.127,5.055-9.082,5.342-14.332c0.596-10.931,5.215-30.012,29.456-34.991
	c30.842-6.337,58.27,29.631,45.088,64.007c-2.837,7.397-0.828,15.865,4.997,21.068C271.669,116.349,270.189,139.391,260.592,160.695
	z"/>
<g>
</g>
<g>
</g>
<g>
</g>
<g>
</g>
<g>
</g>
<g>
</g>
<g>
</g>
<g>
</g>
<g>
</g>
<g>
</g>
<g>
</g>
<g>
</g>
<g>
</g>
<g>
</g>
<g>
</g>
</svg>
