<?xml version="1.0" encoding="iso-8859-1"?>
<!-- Generator: Adobe Illustrator 19.0.0, SVG Export Plug-In . SVG Version: 6.00 Build 0)  -->
<svg version="1.1" id="Capa_1" xmlns="http://www.w3.org/2000/svg" xmlns:xlink="http://www.w3.org/1999/xlink" x="0px" y="0px"
	 viewBox="0 0 512 512" style="enable-background:new 0 0 512 512;" xml:space="preserve">
<path style="fill:#3BBC56;" d="M307.912,71.817c-0.541,0.557-114.428,112.715-220.82-13.722c-1.057-1.256-1.242-3.123-0.216-4.653
	C90.278,48.367,202.677-21.658,307.912,71.817z"/>
<path style="fill:#30AA44;" d="M95.722,47.344c-5.232,3.01-8.322,5.319-8.844,6.097c-1.025,1.53-0.841,3.397,0.216,4.653
	c106.392,126.437,220.278,14.279,220.819,13.723c-4.063-3.609-8.137-6.973-12.215-10.107
	C264.574,85.602,178.865,136.022,95.722,47.344z"/>
<path style="fill:#93603E;" d="M194.353,280.352c28.096-53.582,61.31-97.733,92.181-129.651c2.512-2.598,6.91-1.022,7.218,2.578
	c3.425,39.992,11.988,96.709,32.913,147.757c3.103-0.766,6.241-1.37,9.407-1.779c16.937-2.189,27.316-8.623,32.754-11.433
	c-26.833-63.363-32.137-138.424-33.07-172.412c-0.166-6.035,2.579-11.762,7.353-15.457c45.22-35.004,80.001-50.023,80.39-50.19
	c11.168-4.733,16.401-17.618,11.685-28.8c-4.717-11.192-17.617-16.443-28.816-11.722c-1.99,0.838-49.368,21.096-107.604,69.958
	c-44.129,37.025-101.833,99.178-146.505,186.785C171.874,277.745,180.839,276.037,194.353,280.352z"/>
<path style="fill:#7F573C;" d="M315.554,95.193c58.236-48.862,105.615-69.12,107.604-69.958c4.284-1.806,8.815-2.149,13.044-1.262
	c-0.264-1.011-0.601-2.016-1.019-3.007c-4.717-11.192-17.617-16.443-28.816-11.722c-1.99,0.838-49.368,21.096-107.604,69.958
	c-44.129,37.025-101.833,99.178-146.505,186.785c8.302,4.977,14.694,7.538,20.333,9.167
	C216.74,191.141,272.581,131.248,315.554,95.193z"/>
<g>
	<path style="fill:#EA473B;" d="M399.461,276.888c-30.232,2.651-34.298,16.611-63.389,20.369
		c-66.37,8.574-95.712,87.648-55.639,152.357c31.309,50.558,92.226,69.537,136.061,42.391c0.276-0.171,0.535-0.36,0.808-0.533
		c0.323-0.024,0.643-0.028,0.966-0.056c51.363-4.502,88.791-56.177,83.598-115.417C496.671,316.759,450.825,272.385,399.461,276.888
		z"/>
	<path style="fill:#EA473B;" d="M182.628,275.502c-10.481-1.751-20.562-5.521-29.619-11.079
		c-9.902-6.077-21.009-10.124-32.974-11.621c-51.162-6.399-98.618,36.249-105.999,95.257C6.634,407.241,42.414,460.73,94.272,466.58
		c42.818,29.518,104.953,12.915,138.323-36.768C275.178,366.413,248.388,286.483,182.628,275.502z"/>
</g>
<g>
	<path style="fill:#DD332F;" d="M33.7,349.674c5.824-46.561,34.853-83.649,71.632-97.377c-45.26,2.512-84.629,42.459-91.295,95.762
		c-6.89,55.087,23.635,105.234,69.713,116.629C48.634,443.321,27.619,398.286,33.7,349.674z"/>
	<path style="fill:#DD332F;" d="M300.932,450.586c-36.732-59.315-17.911-130.122,33.83-153.136
		c-65.44,9.442-94.136,87.885-54.33,152.165c21.272,34.35,56.211,54.115,90.174,54.749
		C343.569,496.852,318.041,478.212,300.932,450.586z"/>
</g>
<path d="M90.305,473.823c15.348,10.108,32.855,13.84,36.965,13.84c3.633,0,6.825-2.646,7.401-6.348
	c0.636-4.092-2.166-7.926-6.258-8.561c-11.248-1.75-21.686-5.818-31.145-12.35c-1.451-0.999-2.706-1.221-4.286-1.356
	C46.71,453.262,13.246,404.741,20.22,348.99c8.276-66.168,70.446-110.954,127.61-78.176l0,0h0.001
	c25.534,15.667,38.529,8.11,61.865,23.786c39.3,26.397,46.217,85.178,15.417,131.032c-15.652,23.303-39.174,39.999-64.532,45.807
	c-4.037,0.924-6.56,4.946-5.635,8.983s4.947,6.564,8.983,5.635c41.184-9.432,77.099-43.315,90.211-87.013
	c8.266,84.29,98.714,139.593,164.345,99.768c46.219-4.474,82.823-43.919,89.158-96.227c0.498-4.111-2.432-7.849-6.543-8.346
	c-4.118-0.5-7.849,2.432-8.346,6.543c-5.141,42.451-34.451,79.972-77.275,83.215c-1.878,0.142-3.028,0.857-4.189,1.635
	c-39.674,24.568-96.173,7.777-125.738-39.964c-37.283-60.204-10.447-133.133,50.225-140.973c11.889-1.536,23.009-5.364,32.77-10.902
	c51.699-29.114,113.017,10.089,123.488,74.108c0.668,4.087,4.524,6.857,8.61,6.19c4.087-0.669,6.859-4.524,6.19-8.61
	c-11.588-70.841-76.569-113.744-135.284-89.766c-23.428-59.468-28.598-125.582-29.556-160.507c-0.099-3.604,1.563-7.09,4.446-9.321
	c44.106-34.142,78.417-49.082,78.727-49.216c24.089-10.208,23.839-44.619-0.393-54.477c-7.298-2.97-15.315-2.919-22.576,0.142
	c-1.878,0.792-43.418,18.541-96.458,60.491c-42.026-35.799-88.935-51.251-139.511-45.934c-40.928,4.303-71.957,21.313-83.398,28.427
	c-0.912,0.567-1.692,1.323-2.287,2.218c-0.907,1.366-1.821,2.731-2.754,4.097c-1.884,2.754-1.722,6.421,0.398,8.997
	c45.353,55.132,103.003,80.035,168.486,55.983c-32.684,34.105-68.479,79.499-98.805,137.139
	c-61.52-30.038-132.998,17.175-142.529,93.376C-2.603,410.622,35.99,466.528,90.305,473.823z M258.793,353.493
	c-3.483-36.382-24.126-65.764-55.039-79.164c22.422-41.202,49.934-79.22,81.93-113.195c3.51,36.021,11.532,85.607,29.736,133.039
	C289.545,303.235,268.328,323.937,258.793,353.493z M192.183,110.598c-35.239-1.655-68.244-19.979-98.186-54.495
	C117.785,42.24,204.5,0.67,291.249,70.321c-65.533,9.674-140.766-14.983-141.532-15.237c-3.929-1.31-8.174,0.815-9.483,4.743
	c-1.31,3.929,0.814,8.176,4.743,9.485c2.708,0.903,55.698,18.3,113.176,18.3c4.671,0,9.373-0.12,14.08-0.368
	C252.764,99.393,224.357,112.106,192.183,110.598z M302.328,84.946C359.746,36.77,406.08,16.973,408.025,16.153
	c3.569-1.506,7.512-1.531,11.099-0.071c11.878,4.832,12.073,21.743,0.165,26.79c-1.459,0.625-36.25,15.718-82.027,51.153
	c-6.654,5.15-10.488,13.223-10.258,21.592c0.991,36.152,6.388,104.856,31.05,166.777c-12.867,6.526-23.753,7.262-28.021,8.008
	c-19.28-49.523-26.997-101.93-30.067-137.764c-0.859-10.027-13.102-14.365-20.079-7.152
	c-35.681,36.891-66.131,78.583-90.572,123.998c-7.421-1.811-15.707-2.095-28.319-8.496
	C205.522,176.253,262.179,118.632,302.328,84.946z"/>
<g>
</g>
<g>
</g>
<g>
</g>
<g>
</g>
<g>
</g>
<g>
</g>
<g>
</g>
<g>
</g>
<g>
</g>
<g>
</g>
<g>
</g>
<g>
</g>
<g>
</g>
<g>
</g>
<g>
</g>
</svg>
