<?xml version="1.0" encoding="iso-8859-1"?>
<!-- Generator: Adobe Illustrator 19.0.0, SVG Export Plug-In . SVG Version: 6.00 Build 0)  -->
<svg version="1.1" id="Capa_1" xmlns="http://www.w3.org/2000/svg" xmlns:xlink="http://www.w3.org/1999/xlink" x="0px" y="0px"
	 viewBox="0 0 512.001 512.001" style="enable-background:new 0 0 512.001 512.001;" xml:space="preserve">
<path id="SVGCleanerId_0" style="fill:#3BBC56;" d="M127.903,301.873c-8.081-11.405-21.433-18.165-35.851-17.463
	c-14.926,0.726-29.766-3.131-41.693-12.136c-17.442-13.169-35.814-33.793-39.099-63.46c-0.138-1.247-1.949-1.25-2.062,0
	c-1.667,18.478-0.145,59.428,36.649,99.497c7.71,8.396,6.805,18.481,6.805,17.481c0,20.439,14.804,37.408,34.271,40.803
	c-6.202-13.593-4.057-27.725,1.892-39.803C96.055,312.093,108.849,303.52,127.903,301.873z"/>
<path id="SVGCleanerId_1" style="fill:#30AA44;" d="M74.116,325.793c0,1,0.905-9.085-6.805-17.481
	c-14.531-15.824-23.546-31.781-29.051-46.442c-13.06-12.835-24.479-30.277-27.001-53.055c-0.138-1.247-1.949-1.25-2.062,0
	c-1.667,18.478-0.145,59.428,36.649,99.497c7.71,8.396,6.805,18.481,6.805,17.481c0,20.439,14.804,37.408,34.271,40.803
	c-2.245-4.921-3.383-9.913-3.656-14.853C77.546,344.642,74.116,335.621,74.116,325.793z"/>
<path id="SVGCleanerId_2" style="fill:#EA473B;" d="M377.7,407.947c56.85-25.403,95.872-64.618,115.568-90.341
	c2.894-3.779-1.989-8.546-5.711-5.576c-55.182,44.037-112.082,56.515-159.299,54.827C341.759,381.676,358.078,395.902,377.7,407.947
	z"/>
<path id="SVGCleanerId_3" style="fill:#EA473B;" d="M186.204,315.348c-1.896-1.083-3.829-2.134-5.831-3.119
	c-37.948-18.694-81.389-12.173-94.559,14.563c-14.628,29.697,11.806,71.082,56.1,87.027l0,0c2.608,0.978,7.07,2.359,11.326,3.361
	c61.407,17.43,116.063,18.964,160.612,11.319C270.669,407.383,226.354,372.213,186.204,315.348z"/>
<path id="SVGCleanerId_4" style="fill:#DD332F;" d="M183.743,417.18c-4.255-1.001-8.718-2.383-11.326-3.361l0,0
	c-44.295-15.944-70.729-57.33-56.1-87.027c6.259-12.705,19.36-20.835,35.452-23.873c-28.968-4.919-56.039,3.745-65.955,23.873
	c-14.628,29.697,11.806,71.082,56.1,87.027l0,0c2.608,0.978,7.07,2.359,11.326,3.361c44.965,12.763,86.305,16.996,122.713,15.349
	C247.487,431.273,216.582,426.501,183.743,417.18z"/>
<g>
	<path id="SVGCleanerId_0_1_" style="fill:#3BBC56;" d="M127.903,301.873c-8.081-11.405-21.433-18.165-35.851-17.463
		c-14.926,0.726-29.766-3.131-41.693-12.136c-17.442-13.169-35.814-33.793-39.099-63.46c-0.138-1.247-1.949-1.25-2.062,0
		c-1.667,18.478-0.145,59.428,36.649,99.497c7.71,8.396,6.805,18.481,6.805,17.481c0,20.439,14.804,37.408,34.271,40.803
		c-6.202-13.593-4.057-27.725,1.892-39.803C96.055,312.093,108.849,303.52,127.903,301.873z"/>
</g>
<g>
	<path id="SVGCleanerId_1_1_" style="fill:#30AA44;" d="M74.116,325.793c0,1,0.905-9.085-6.805-17.481
		c-14.531-15.824-23.546-31.781-29.051-46.442c-13.06-12.835-24.479-30.277-27.001-53.055c-0.138-1.247-1.949-1.25-2.062,0
		c-1.667,18.478-0.145,59.428,36.649,99.497c7.71,8.396,6.805,18.481,6.805,17.481c0,20.439,14.804,37.408,34.271,40.803
		c-2.245-4.921-3.383-9.913-3.656-14.853C77.546,344.642,74.116,335.621,74.116,325.793z"/>
</g>
<g>
	<path id="SVGCleanerId_2_1_" style="fill:#EA473B;" d="M377.7,407.947c56.85-25.403,95.872-64.618,115.568-90.341
		c2.894-3.779-1.989-8.546-5.711-5.576c-55.182,44.037-112.082,56.515-159.299,54.827
		C341.759,381.676,358.078,395.902,377.7,407.947z"/>
</g>
<g>
	<path id="SVGCleanerId_3_1_" style="fill:#EA473B;" d="M186.204,315.348c-1.896-1.083-3.829-2.134-5.831-3.119
		c-37.948-18.694-81.389-12.173-94.559,14.563c-14.628,29.697,11.806,71.082,56.1,87.027l0,0c2.608,0.978,7.07,2.359,11.326,3.361
		c61.407,17.43,116.063,18.964,160.612,11.319C270.669,407.383,226.354,372.213,186.204,315.348z"/>
</g>
<g>
	<path id="SVGCleanerId_4_1_" style="fill:#DD332F;" d="M183.743,417.18c-4.255-1.001-8.718-2.383-11.326-3.361l0,0
		c-44.295-15.944-70.729-57.33-56.1-87.027c6.259-12.705,19.36-20.835,35.452-23.873c-28.968-4.919-56.039,3.745-65.955,23.873
		c-14.628,29.697,11.806,71.082,56.1,87.027l0,0c2.608,0.978,7.07,2.359,11.326,3.361c44.965,12.763,86.305,16.996,122.713,15.349
		C247.487,431.273,216.582,426.501,183.743,417.18z"/>
</g>
<path id="SVGCleanerId_5" style="fill:#3BBC56;" d="M233.53,202.674c1.179-13.928-4.665-27.704-16.137-36.467
	c-11.876-9.071-20.73-21.589-24.037-36.162c-4.837-21.312-5.579-48.923,11.044-73.715c0.699-1.042-0.684-2.212-1.576-1.33
	c-13.191,13.046-38.436,45.325-36.157,99.677c0.27,6.439-1.849,12.754-6.011,17.674c-13.271,15.689-12.867,38.219-0.185,53.36
	c4.026-14.388,12.487-22.741,24.821-28.134C200.307,191.012,217.906,191.646,233.53,202.674z"/>
<path id="SVGCleanerId_6" style="fill:#30AA44;" d="M180.657,172.351c4.161-4.919,6.281-11.236,6.011-17.674
	c-0.662-15.79,1.008-29.705,4.021-41.839c-1.437-17.874,1.285-37.978,13.709-56.509c0.699-1.042-0.684-2.212-1.576-1.33
	c-13.191,13.046-38.436,45.325-36.157,99.677c0.27,6.439-1.848,12.754-6.011,17.674c-13.271,15.689-12.867,38.219-0.185,53.36
	c2.282-8.158,5.994-14.371,11.025-19.21C169.381,194.77,172.318,182.21,180.657,172.351z"/>
<path id="SVGCleanerId_7" style="fill:#EA473B;" d="M271.503,261.226c-0.256-1.07-0.652-2.544-0.652-2.544l0,0
	c-12.461-46.938-54.114-77.854-85.558-64.106c-30.331,13.262-36.818,61.939-13.248,102.69c-0.233,0.276,6.273,9.583,6.489,9.873
	C291.43,474.545,439.991,464.095,502.621,450.326c4.649-1.022,3.99-7.814-0.768-7.945
	C325.322,437.551,277.383,282.987,271.503,261.226z"/>
<path id="SVGCleanerId_8" style="fill:#DD332F;" d="M198.534,307.139c-0.215-0.29-6.722-9.597-6.489-9.873
	c-23.57-40.752-17.083-89.429,13.248-102.69c2.022-0.884,4.086-1.58,6.183-2.102c-8.956-2.034-17.923-1.51-26.184,2.102
	c-30.332,13.261-36.819,61.939-13.248,102.69c-0.233,0.276,6.273,9.583,6.489,9.873c87.131,129.199,195.501,152.46,269.22,150.019
	C375.329,454.746,278.08,425.092,198.534,307.139z"/>
<g>
	<path id="SVGCleanerId_5_1_" style="fill:#3BBC56;" d="M233.53,202.674c1.179-13.928-4.665-27.704-16.137-36.467
		c-11.876-9.071-20.73-21.589-24.037-36.162c-4.837-21.312-5.579-48.923,11.044-73.715c0.699-1.042-0.684-2.212-1.576-1.33
		c-13.191,13.046-38.436,45.325-36.157,99.677c0.27,6.439-1.849,12.754-6.011,17.674c-13.271,15.689-12.867,38.219-0.185,53.36
		c4.026-14.388,12.487-22.741,24.821-28.134C200.307,191.012,217.906,191.646,233.53,202.674z"/>
</g>
<g>
	<path id="SVGCleanerId_6_1_" style="fill:#30AA44;" d="M180.657,172.351c4.161-4.919,6.281-11.236,6.011-17.674
		c-0.662-15.79,1.008-29.705,4.021-41.839c-1.437-17.874,1.285-37.978,13.709-56.509c0.699-1.042-0.684-2.212-1.576-1.33
		c-13.191,13.046-38.436,45.325-36.157,99.677c0.27,6.439-1.848,12.754-6.011,17.674c-13.271,15.689-12.867,38.219-0.185,53.36
		c2.282-8.158,5.994-14.371,11.025-19.21C169.381,194.77,172.318,182.21,180.657,172.351z"/>
</g>
<g>
	<path id="SVGCleanerId_7_1_" style="fill:#EA473B;" d="M271.503,261.226c-0.256-1.07-0.652-2.544-0.652-2.544l0,0
		c-12.461-46.938-54.114-77.854-85.558-64.106c-30.331,13.262-36.818,61.939-13.248,102.69c-0.233,0.276,6.273,9.583,6.489,9.873
		C291.43,474.545,439.991,464.095,502.621,450.326c4.649-1.022,3.99-7.814-0.768-7.945
		C325.322,437.551,277.383,282.987,271.503,261.226z"/>
</g>
<g>
	<path id="SVGCleanerId_8_1_" style="fill:#DD332F;" d="M198.534,307.139c-0.215-0.29-6.722-9.597-6.489-9.873
		c-23.57-40.752-17.083-89.429,13.248-102.69c2.022-0.884,4.086-1.58,6.183-2.102c-8.956-2.034-17.923-1.51-26.184,2.102
		c-30.332,13.261-36.819,61.939-13.248,102.69c-0.233,0.276,6.273,9.583,6.489,9.873c87.131,129.199,195.501,152.46,269.22,150.019
		C375.329,454.746,278.08,425.092,198.534,307.139z"/>
</g>
<path d="M43.894,325.793c0,22.506,15.184,41.825,36.627,47.352c9.684,18.619,26.613,33.289,45.587,42.636
	c16.764,8.258,50.511,15.731,68.15,18.831c4.084,0.717,7.969-2.01,8.686-6.09c0.717-4.08-2.009-7.969-6.09-8.686
	c-14.941-2.625-48.45-9.794-64.116-17.514c-55.362-27.27-61.413-88.015-5.4-92.984c17.121-1.491,35.315,3.316,50.464,11.72
	c18.375,25.821,39.349,49.667,63.213,70.224c-59.148-6.06-88.022-19.658-102.004-30.604c-3.26-2.553-7.977-1.979-10.529,1.283
	c-2.554,3.261-1.979,7.976,1.282,10.53c17.295,13.539,54.306,30.693,132.418,35.569c7.838,5.699,15.951,11.055,24.358,16.023
	c-17.964,1.637-36.505,1.699-55.374,0.172c-4.133-0.326-7.746,2.742-8.081,6.872c-0.334,4.129,2.742,7.748,6.872,8.082
	c26.348,2.131,53.017,1.382,79.429-2.921c61.181,29.268,129.501,35.451,193.59,21.362c13.251-2.913,11.388-22.397-2.173-22.768
	c-42.71-1.169-77.731-11.186-106.416-26.241c50.038-25.362,83.694-60.502,103.583-86.477c8.252-10.779-5.753-24.454-16.344-15.999
	c-45.838,36.579-96.1,54.478-149.451,53.265c-15.817-17.964-27.862-37.155-36.968-55.201c-1.865-3.698-6.379-5.184-10.075-3.317
	c-3.698,1.866-5.184,6.378-3.316,10.076C320.744,388.132,386.793,437.01,471.594,447.7
	c-101.602,11.85-200.548-27.255-274.981-126.341c-17.065-22.701-21.254-30.653-24.462-37.987
	c-24.778-56.672,10.013-106.891,55.8-74.571c28.856,20.384,33.441,51.355,39.667,69.025c1.378,3.907,5.663,5.961,9.567,4.582
	c3.907-1.376,5.959-5.659,4.582-9.567c-2.241-6.362-3.615-11.134-4.249-13.47c-0.21-0.873-0.44-1.747-0.672-2.613
	c-5.997-22.6-19.111-43.87-36.943-57.765c-0.056-14.682-6.731-29.199-19.211-38.746c-10.957-8.369-18.513-19.684-21.276-31.862
	c-5.966-26.285-2.615-49.123,9.958-67.877c5.679-8.466-5.773-18.068-13.08-10.841c-15.345,15.177-40.736,49.042-38.375,105.324
	c0.221,5.268-2.03,10.314-4.312,12.596c-14.514,17.201-15.367,41.758-2.543,59.81c-5.388,23.945,0.302,50.031,11.871,71.189
	c-11.02-3.344-22.169-4.863-32.832-4.447c-9.674-11.375-24.241-17.972-39.669-17.223c-13.776,0.672-26.843-3.105-36.809-10.63
	c-21.512-16.242-33.679-35.857-36.163-58.302c-1.13-10.177-16.062-10.045-16.988,0.155c-1.939,21.497,0.495,63.755,38.594,105.243
	C44.638,319.452,43.894,326.793,43.894,325.793z M346.844,374.313c42.534-1.723,83.048-15.006,120.915-39.632
	c-20.638,22.156-49.817,46.693-88.752,64.767C367.63,392.169,356.868,383.756,346.844,374.313z M158.336,208.398
	c-2.998-10.567-0.74-22.281,6.79-31.204c5.367-6.346,8.13-14.455,7.777-22.833c-0.943-22.513,2.996-40.967,8.857-55.698
	c-0.571,10.538,0.429,21.605,3.023,33.041c3.539,15.596,13.057,29.967,26.796,40.462c5.664,4.329,9.712,10.224,11.783,16.836
	C197.021,177.363,171.401,185.947,158.336,208.398z M44.582,278.261c12.765,9.637,29.309,14.482,46.577,13.641
	c7.219-0.351,14.11,1.612,19.859,5.267c-27.309,7.999-41.735,30.876-37.187,56.76c-9.106-6.142-14.934-16.551-14.934-28.226
	c0.01-8.311-3.108-16.289-8.781-22.466c-15.239-16.596-24.129-33.24-29.15-48.278C27.323,263.38,35.225,271.195,44.582,278.261z"/>
<path d="M204.268,250.539c-0.755-4.062-4.662-6.75-8.724-6.006c-4.074,0.745-6.774,4.652-6.029,8.728
	c0.401,2.195,10.667,54.499,83.284,118.943c1.429,1.267,3.205,1.89,4.976,1.89c2.07,0,4.131-0.852,5.613-2.522
	c2.75-3.098,2.467-7.839-0.631-10.589C214.625,300.521,204.416,251.296,204.268,250.539z"/>
<g>
</g>
<g>
</g>
<g>
</g>
<g>
</g>
<g>
</g>
<g>
</g>
<g>
</g>
<g>
</g>
<g>
</g>
<g>
</g>
<g>
</g>
<g>
</g>
<g>
</g>
<g>
</g>
<g>
</g>
</svg>
