<?xml version="1.0" encoding="iso-8859-1"?>
<!-- Generator: Adobe Illustrator 19.0.0, SVG Export Plug-In . SVG Version: 6.00 Build 0)  -->
<svg version="1.1" id="Capa_1" xmlns="http://www.w3.org/2000/svg" xmlns:xlink="http://www.w3.org/1999/xlink" x="0px" y="0px"
	 viewBox="0 0 511.999 511.999" style="enable-background:new 0 0 511.999 511.999;" xml:space="preserve">
<path style="fill:#9AB748;" d="M343.545,244.007V161.33l39.293-32.994C382.839,128.336,384.606,162.008,343.545,244.007z"/>
<path style="fill:#EA8B18;" d="M258.878,7.5c-48.738,0-88.616,53.839-88.616,119.642c0,15.67,0,94.904,0,110.566
	c62.061,84.101,81.423,166.135,79.931,160.898c12.517-53.15,68.772-109.444,97.301-156.799c0-25.62,0-90.903,0-114.665
	C347.494,61.339,307.618,7.5,258.878,7.5z"/>
<g>
	<path style="fill:#DB7B12;" d="M250.193,398.607c0.097,0.341,0.104,0.304,0.018-0.072
		C250.205,398.559,250.199,398.583,250.193,398.607z"/>
	<path style="fill:#DB7B12;" d="M204.454,237.71c0-15.664,0-94.897,0-110.566c0-57.912,30.889-106.551,71.52-117.384
		C270.438,8.282,264.723,7.5,258.878,7.5c-48.738,0-88.616,53.839-88.616,119.642c0,15.67,0,94.904,0,110.566
		c58.019,78.623,78.718,155.431,79.949,160.825c3.476-14.714,10.303-29.668,18.961-44.605
		C256.856,323.382,236.267,280.819,204.454,237.71z"/>
</g>
<path style="fill:#9AB748;" d="M170.263,221.376l-23.023-28.741c-3.497-3.984-10.02-2.462-11.393,2.657
	c-49.2,183.492,38.703,239.961,89.088,296.456c12.463,13.974,27.626,12.713,35.497,12.713
	C290.626,355.423,170.263,221.376,170.263,221.376z"/>
<path style="fill:#8CA532;" d="M244.935,491.749c-49.819-55.862-136.301-111.715-90.673-290.347l-7.022-8.767
	c-3.497-3.984-10.02-2.462-11.393,2.657c-49.2,183.492,38.703,239.961,89.088,296.456c12.463,13.974,27.626,12.713,35.497,12.713
	c0.143-0.704,0.259-1.405,0.395-2.108C255.531,500.602,250.009,497.439,244.935,491.749z"/>
<path style="fill:#9AB748;" d="M341.848,234.227c-45.092,65.089-80.808,102.609-91.567,147.678
	c-0.058,0.241-0.028,0.493,0.018,0.737c4.812,25.666,17.726,61.735,10.423,120.148c-0.109,0.875,0.508,1.671,1.39,1.671
	c11.379,0,20.3-4.327,26.742-11.492c48.036-53.429,129.443-113.432,96.773-364.517c-0.206-1.579-2.464-1.675-2.787-0.116
	C378.717,148.229,366.412,198.769,341.848,234.227z"/>
<path style="fill:#8CA532;" d="M272.145,382.642c-0.046-0.244-0.076-0.496-0.018-0.737c10.76-45.069,46.475-82.589,91.567-147.678
	c11.68-16.861,20.584-37.127,27.159-55.892c-1.219-15.738-2.944-32.343-5.226-49.882c-0.206-1.579-2.464-1.675-2.787-0.116
	c-4.123,19.893-16.427,70.433-40.99,105.891c-45.092,65.089-80.808,102.609-91.567,147.678c-0.058,0.241-0.028,0.493,0.018,0.737
	c4.812,25.666,17.726,61.735,10.423,120.148c-0.109,0.875,0.508,1.671,1.389,1.671c8.318,0,15.317-2.32,21-6.363
	C289.17,442.438,276.826,407.612,272.145,382.642z"/>
<path d="M375.679,123.499l-21.941,18.423c0-13.784,0.08-17.935-0.258-24.07C349.876,52.172,308.332,0,257.622,0h-0.001
	c-48.475,0.001-92.233,49.662-95.873,118.196c-0.341,6.449-0.241,7.033-0.241,81.821c-0.17-0.212-9.707-12.124-9.886-12.328
	c-7.44-8.478-21.353-5.233-24.274,5.661c-19.557,72.934-19.644,132.814-0.267,183.063c16.857,43.714,45.508,73.089,70.788,99.005
	c7.194,7.376,13.989,14.342,20.214,21.322c14.961,16.775,33.014,15.221,43.819,15.221c11.889,0,23.289-5.095,31.274-13.978
	c35.485-39.474,88.755-82.422,102.783-201.045c0.486-4.113-2.454-7.843-6.567-8.329c-4.114-0.477-7.842,2.453-8.329,6.567
	c-11.824,99.988-53.012,143.71-86.109,178.842c-13.748,14.595-16.828,19.976-27.21,22.298c1.117-11.163,1.503-21.489,1.383-31.084
	c1.613-12.428,8.651-38.124,37.204-74.961c13.736-17.722,25.761-35.835,35.74-53.837c2.008-3.622,0.699-8.188-2.923-10.195
	c-3.624-2.009-8.187-0.698-10.196,2.924c-9.609,17.334-21.208,34.802-34.476,51.919c-13.499,17.416-22.578,32.691-28.667,45.618
	c-2.859-18.002-6.864-32.424-9.176-44.307c12.11-48.459,70.154-110.109,96.031-153.047c0.016-0.027,0.027-0.056,0.042-0.082
	c0.01-0.016,0.019-0.032,0.028-0.048c0.039-0.068,0.081-0.133,0.118-0.202c12.774-21.317,21.817-46.019,27.842-66.423
	c3.413,35.619,4.467,68.514,3.131,98.131c-0.187,4.138,3.017,7.644,7.154,7.83c4.124,0.217,7.644-3.017,7.83-7.154
	c1.78-39.476-0.575-84.531-7.001-133.912C390.752,119.378,380.305,116.923,375.679,123.499z M257.622,17.446
	c1.592,3.353,3.402,9.176,5.15,17.385c-4.735-0.152-7.713-0.095-10.293-0.031C254.224,26.608,256.033,20.795,257.622,17.446z
	 M249.787,49.903c5.313-0.229,9.769-0.245,15.681,0.07c1.155,7.76,2.197,16.757,3.021,26.963
	c-7.317-0.468-14.457-0.495-21.729-0.082C247.587,66.65,248.631,57.658,249.787,49.903z M245.76,91.958
	c7.695-0.54,15.529-0.546,23.73,0.093c0.438,8.31,0.731,17.268,0.839,26.861c-8.374-0.645-16.626-0.701-25.41-0.113
	C245.028,109.213,245.321,100.262,245.76,91.958z M239.721,23.484c-0.993,3.664-1.926,7.782-2.806,12.388
	c-2.557,0.291-5.089,0.637-7.596,1.038C232.581,31.477,236.083,26.97,239.721,23.484z M234.419,51.294
	c-1.143,8.358-2.081,17.459-2.804,27.089c-6.407,0.933-12.637,2.213-18.62,3.825c2.038-10.204,4.779-19.773,8.174-28.435
	C225.468,52.758,229.894,51.931,234.419,51.294z M220.103,289.64c-3.469-6.75-7.439-14.084-11.387-20.989v-2.129
	c6.704-2.296,13.791-4.09,21.149-5.362v26.629C226.573,288.307,223.319,288.931,220.103,289.64z M229.866,302.998v6.685
	c-0.879-1.907-1.792-3.861-2.889-6.162C227.935,303.336,228.9,303.166,229.866,302.998z M208.716,250.763v-26.09
	c6.656-2.273,13.748-4.065,21.149-5.338v26.632C222.576,247.111,215.494,248.71,208.716,250.763z M208.716,208.936v-26.052
	c6.649-2.264,13.753-4.062,21.149-5.348v26.6C222.55,205.283,215.468,206.896,208.716,208.936z M208.716,167.073v-26.017
	c6.649-2.265,13.753-4.063,21.149-5.349v26.587C222.533,163.437,215.452,165.042,208.716,167.073z M208.738,125.236
	c0.069-9.064,0.617-17.958,1.639-26.539c6.413-2.088,13.22-3.757,20.289-4.951c-0.422,8.643-0.683,17.586-0.767,26.713
	C222.562,121.601,215.478,123.206,208.738,125.236z M214.689,32.212c-1.589,2.837-3.106,5.829-4.541,8.973
	c-2.006,0.584-3.977,1.216-5.925,1.876C207.53,39.032,211.029,35.411,214.689,32.212z M189.917,65.733
	c4.168-2.375,8.642-4.491,13.349-6.361c-2.719,8.739-4.917,18.214-6.516,28.269c-6.093,2.469-11.81,5.313-17.048,8.516
	C182.07,84.913,185.552,74.843,189.917,65.733z M176.87,116.737c5.007-4.391,11.012-8.307,17.769-11.666
	c-0.998,11.803-0.923,20.457-0.923,25.652c-6.199,2.699-11.973,5.803-17.21,9.286C176.506,127.669,176.401,123.716,176.87,116.737z
	 M178.867,222.18c-0.794-1.105-1.582-2.195-2.361-3.261v-18.212c4.856-4.324,10.67-8.188,17.21-11.525v25.24
	C188.444,216.718,183.47,219.308,178.867,222.18z M193.716,230.997v12.99c-2.112-3.272-4.204-6.441-6.264-9.489
	C189.457,233.268,191.556,232.107,193.716,230.997z M176.506,181.839v-22.96c4.856-4.324,10.67-8.188,17.21-11.525v25.199
	C187.517,175.252,181.743,178.355,176.506,181.839z M253.915,475.75c-0.141,7.133-0.574,14.21-1.326,21.211
	c-9.663,0-17.704-3.914-23.314-10.205c-49.427-55.419-134.901-110.2-87.885-287.857l21.667,27.047
	c49.117,66.605,89.55,156.796,90.877,240.455C253.498,471.402,253.767,474.556,253.915,475.75z M270.379,319.27
	c-8.049,12.201-15.66,25.141-21.267,38.5c-1.359-3.991-2.846-8.16-4.247-11.953v-44.663c8.538-0.632,17.002-0.596,25.514,0.109
	V319.27z M270.379,286.226c-4.44-0.336-8.923-0.521-13.444-0.521c-4.058,0-8.082,0.148-12.07,0.418v-26.8
	c8.534-0.629,17.083-0.593,25.514,0.098V286.226z M270.379,244.381c-8.566-0.643-17.035-0.664-25.514-0.092v-26.781
	c3.976-0.293,8-0.46,12.07-0.46c4.529,0,9.016,0.209,13.444,0.58V244.381z M270.379,202.55c-4.422-0.33-8.909-0.501-13.444-0.501
	c-4.058,0-8.086,0.138-12.07,0.409v-26.784c8.491-0.64,16.953-0.604,25.514,0.109V202.55z M270.379,160.746
	c-8.425-0.651-16.715-0.705-25.514-0.113v-26.788c8.49-0.64,16.953-0.604,25.514,0.108V160.746z M275.523,23.484
	c3.693,3.538,7.246,8.125,10.549,13.668c-2.545-0.43-5.113-0.814-7.714-1.13C277.47,31.355,276.528,27.189,275.523,23.484z
	 M280.858,51.534c4.57,0.696,9.047,1.586,13.392,2.665c3.357,8.651,6.063,18.199,8.075,28.369c-5.988-1.673-12.236-3.01-18.68-3.996
	C282.927,68.963,281.994,59.881,280.858,51.534z M284.589,93.967c7.109,1.26,13.929,2.998,20.332,5.165
	c1.009,8.614,1.542,17.541,1.592,26.636c-6.743-2.114-13.832-3.811-21.164-5.036C285.267,111.587,285.008,102.628,284.589,93.967z
	 M306.528,268.819c-5.55,7.545-9.948,13.487-14.963,20.341c-2.045-0.42-4.111-0.79-6.187-1.134v-26.63
	c7.374,1.344,14.459,3.218,21.149,5.601v1.822H306.528z M306.528,251.187c-6.769-2.126-13.846-3.798-21.149-5.004v-26.566
	c7.406,1.356,14.511,3.22,21.149,5.569V251.187z M306.528,209.303c-6.73-2.104-13.81-3.775-21.149-4.978v-26.564
	c7.422,1.353,14.525,3.221,21.149,5.562V209.303z M306.528,167.602c-6.739-2.113-13.823-3.81-21.149-5.035v-26.635
	c7.422,1.353,14.525,3.221,21.149,5.562V167.602z M305.298,41.637c-1.495-3.309-3.079-6.455-4.743-9.426
	c3.854,3.369,7.53,7.207,10.99,11.495C309.494,42.976,307.416,42.28,305.298,41.637z M312.189,60.05
	c4.866,2.004,9.452,4.266,13.657,6.792c4.409,9.441,7.719,19.63,9.885,30.26c-5.244-3.347-10.994-6.322-17.147-8.904
	C317.019,78.196,314.861,68.762,312.189,60.05z M321.527,248.217v-16.478c2.89,1.535,5.649,3.166,8.224,4.911
	C326.776,240.882,324.257,244.415,321.527,248.217z M338.738,223.366c-0.184,0.297-0.371,0.579-0.556,0.873
	c-5.089-3.463-10.669-6.557-16.655-9.257v-25.118c6.596,3.504,12.413,7.561,17.211,12.102V223.366z M338.738,182.818
	c-5.201-3.563-10.981-6.757-17.211-9.551v-25.233c6.596,3.504,12.413,7.561,17.211,12.102V182.818z M338.738,140.989
	c-5.201-3.563-10.981-6.757-17.211-9.551c0-5.468,0.094-13.929-0.867-25.676c6.824,3.536,12.837,7.658,17.788,12.281
	C338.807,124.154,338.738,125.389,338.738,140.989z M353.738,193.898V161.51l15.299-12.846
	C365.505,161.864,360.489,177.934,353.738,193.898z"/>
<g>
</g>
<g>
</g>
<g>
</g>
<g>
</g>
<g>
</g>
<g>
</g>
<g>
</g>
<g>
</g>
<g>
</g>
<g>
</g>
<g>
</g>
<g>
</g>
<g>
</g>
<g>
</g>
<g>
</g>
</svg>
