<?xml version="1.0" encoding="iso-8859-1"?>
<!-- Generator: Adobe Illustrator 19.0.0, SVG Export Plug-In . SVG Version: 6.00 Build 0)  -->
<svg version="1.1" id="Capa_1" xmlns="http://www.w3.org/2000/svg" xmlns:xlink="http://www.w3.org/1999/xlink" x="0px" y="0px"
	 viewBox="0 0 512.001 512.001" style="enable-background:new 0 0 512.001 512.001;" xml:space="preserve">
<path style="fill:#744EAA;" d="M317.656,193.704c-0.514-3.552-2.804-6.573-6.058-8.087c-7.848-3.652-13.044-9.383-16.495-15.509
	c-50.027,38.83-110.144,112.506-167.972,121.916C70.792,301.19-6.946,323.917,11.607,393.71s141.287,80.039,263.63-41.469
	c33.26-33.033,71.515-76.35,90.997-118.84C327.646,231.502,319.386,205.666,317.656,193.704z"/>
<path style="fill:#67449E;" d="M44.651,382.127c-11.236-42.267,12.846-67.268,46.101-82.454
	c-47.815,12.831-93.888,38.569-79.143,94.037c13.021,48.982,77.354,68.627,156.852,33.992
	C104.67,444.526,55.811,424.109,44.651,382.127z"/>
<path style="fill:#9266CC;" d="M330.499,224.667c-17.148,25.36-44.481,56.393-87.445,93.587
	C147.828,400.69,57.213,412.969,9.921,385.972c13.552,78.682,140.803,89.935,265.317-33.73
	c50.222-49.879,76.916-88.572,90.485-117.719C349.126,234.757,337.987,230.524,330.499,224.667z"/>
<path style="fill:#7B54BA;" d="M51.398,398.231c-16.001-1.489-30.014-5.717-41.477-12.26c5.469,31.751,29.458,52.512,64.306,57.868
	c0.427,0.065,0.853,0.131,1.283,0.191c0.624,0.089,1.257,0.164,1.887,0.242c1.307,0.16,2.624,0.306,3.959,0.425
	c0.071,0.006,0.141,0.013,0.211,0.019c18.003,1.564,38.588-0.693,60.832-7.397c0.36-0.109,0.719-0.217,1.08-0.328
	c0.965-0.296,1.931-0.598,2.902-0.911c0.805-0.26,1.614-0.531,2.423-0.803c1.076-0.361,2.155-0.732,3.238-1.113
	c0.942-0.332,1.885-0.668,2.831-1.016c0.579-0.212,1.158-0.426,1.739-0.644c1.52-0.572,3.043-1.155,4.575-1.767
	c0.105-0.042,0.211-0.087,0.317-0.129c1.584-0.635,3.175-1.294,4.771-1.973c0.243-0.103,0.486-0.207,0.729-0.311
	c0.447-0.192,0.897-0.398,1.345-0.593C113.423,442.183,69.606,429.001,51.398,398.231z"/>
<path style="fill:#3BBC56;" d="M504.556,106.747c-62.516-25.918-116.232,6.589-147.012,33.628c-4.04,3.549-9.094,5.842-14.463,6.14
	c-15.033,0.834-32.007,10.908-50.311,25.411c3.012,7.173,8.232,14.398,17.285,18.611c2.987,1.39,5.09,4.164,5.562,7.425
	c1.668,11.532,9.921,37.127,50.104,36.557c12.351-26.531,13.827-45.154,12.255-57.092c-0.448-3.404,0.549-6.845,2.814-9.426
	c43.092-49.086,99.574-58.433,122.945-57.468C505.942,110.628,506.594,107.592,504.556,106.747z"/>
<path d="M263.557,372.443c3.072-2.779,3.31-7.521,0.531-10.593c-2.779-3.071-7.521-3.309-10.593-0.531
	c-106.127,96.006-210.051,92.809-233.279,38.09c12.508,4.418,26.981,6.831,43.035,6.83c50.101-0.003,115.454-23.447,183.456-82.314
	c36.473-31.574,64.876-61.48,84.537-88.999c6.614,3.587,14.014,5.604,21.392,6.497c-15.188,28.499-40.078,60.6-74.14,95.595
	c-2.889,2.968-2.825,7.716,0.144,10.605c2.967,2.889,7.716,2.826,10.605-0.144c39.717-40.806,102.343-114.599,94.913-171.028
	c-0.17-1.295,0.2-2.571,1.015-3.5c39.96-45.519,92.334-55.948,116.998-54.922c10.578,0.397,13.685-14.198,4.002-18.211
	c-30.894-12.809-62.8-13.409-94.831-1.78c-3.894,1.414-5.904,5.715-4.491,9.609c1.413,3.894,5.714,5.902,9.609,4.491
	c18.746-6.805,37.423-8.892,55.819-6.266c-29.292,5.913-67.4,21.896-98.379,57.184c-11.538,13.145,4.786,19.952-14.248,63.885
	c-19.419-0.886-34.387-9.712-37.696-28.982c-2.848-16.568-12.558-10.829-20.911-23.926c40.693-30.765,42.771-12.713,60.195-28.022
	c3.786-3.326,7.646-6.476,11.553-9.448c0.239-0.159,0.481-0.312,0.719-0.476c0.333-0.229,0.633-0.486,0.917-0.756
	c3.945-2.939,7.934-5.695,11.946-8.234c3.5-2.215,4.542-6.848,2.327-10.348c-2.214-3.5-6.848-4.541-10.348-2.327
	c-4.788,3.03-9.541,6.338-14.226,9.884c-7.53,4.873-16.486,6.667-25.345,5.037c-9.202-1.694-17.194-6.87-22.503-14.574
	c-8.298-12.042-5.253-28.591,6.79-36.89c8.952-6.17,21.255-3.905,27.426,5.048c2.351,3.41,7.021,4.269,10.432,1.92
	c3.411-2.351,4.27-7.021,1.92-10.432c-10.864-15.764-32.527-19.75-48.29-8.888c-18.853,12.992-23.621,38.9-10.629,57.754
	c5.921,8.592,14.184,14.968,23.775,18.507c-58.231,19.274-133.405,131.505-203.031,142.834
	C52.615,296.345-15.494,325.109,3.102,395.636C21.914,466.983,140.4,483.855,263.557,372.443z M127.079,299.426
	c57.19-9.306,112.919-74.874,162.175-115.986c3.147,4.589,7.11,8.489,12.041,11.545c5.677,3.517,5.232,1.748,5.878,5.516
	c1.627,9.435,5.666,18.242,12.188,25.254c-18.969,26.666-46.681,55.846-82.472,86.829c-43.16,37.361-88.608,62.704-131.433,73.285
	c-35.206,8.699-66.952,6.996-89.935-4.728C8.987,327.752,73.761,308.101,127.079,299.426z"/>
<g>
</g>
<g>
</g>
<g>
</g>
<g>
</g>
<g>
</g>
<g>
</g>
<g>
</g>
<g>
</g>
<g>
</g>
<g>
</g>
<g>
</g>
<g>
</g>
<g>
</g>
<g>
</g>
<g>
</g>
</svg>
