<?xml version="1.0" encoding="iso-8859-1"?>
<!-- Generator: Adobe Illustrator 19.0.0, SVG Export Plug-In . SVG Version: 6.00 Build 0)  -->
<svg version="1.1" id="Capa_1" xmlns="http://www.w3.org/2000/svg" xmlns:xlink="http://www.w3.org/1999/xlink" x="0px" y="0px"
	 viewBox="0 0 512 512" style="enable-background:new 0 0 512 512;" xml:space="preserve">
<path style="fill:#CC9A5E;" d="M149.85,149.205c8.382-1.168,16.969-1.776,25.715-1.776c8.746,0,17.332,0.609,25.714,1.776
	c2.587-14.401,8.269-42.711,18.527-60.189c1.197-2.04-1.082-4.359-3.163-3.236l-14.499,7.821c-5.226,2.82-11.749,0.871-14.573-4.352
	l-9.346-17.29c-1.143-2.115-4.177-2.115-5.32,0l-9.346,17.29c-2.824,5.224-9.347,7.172-14.573,4.352l-14.499-7.821
	c-2.082-1.123-4.361,1.197-3.163,3.236C141.583,106.494,147.264,134.804,149.85,149.205z"/>
<path style="fill:#B78855;" d="M150.846,94.384c-0.632-0.201-1.255-0.457-1.86-0.783l-14.499-7.821
	c-2.082-1.123-4.361,1.197-3.163,3.236c10.259,17.478,15.94,45.789,18.526,60.189c5.382-0.75,10.85-1.266,16.388-1.541
	C163.805,134.348,158.998,111.187,150.846,94.384z"/>
<ellipse style="fill:#EA473B;" cx="175.561" cy="294.598" rx="166.81" ry="150.169"/>
<path style="fill:#DD332F;" d="M29.884,294.602c0-79.743,69.042-144.958,156.244-149.865c-3.494-0.197-7.014-0.308-10.564-0.308
	c-92.126,0-166.808,67.235-166.808,150.173s74.683,150.173,166.808,150.173c3.549,0,7.069-0.112,10.564-0.308
	C98.926,439.559,29.884,374.345,29.884,294.602z"/>
<ellipse style="fill:#F7E9A9;" cx="338.951" cy="294.598" rx="166.81" ry="150.169"/>
<path style="fill:#EAD992;" d="M192.206,294.602c0-79.905,69.322-145.223,156.774-149.895c-3.32-0.177-6.663-0.278-10.034-0.278
	c-92.126,0-166.808,67.235-166.808,150.173s74.683,150.173,166.808,150.173c3.37,0,6.713-0.101,10.034-0.278
	C261.528,439.825,192.206,374.506,192.206,294.602z"/>
<path style="fill:#EA473B;" d="M313.271,227.993c0-20.315-22.115-33.143-39.592-22.786c-71.413,42.32-71.37,136.495,0,178.79
	c17.477,10.357,39.592-2.471,39.592-22.786V227.993z"/>
<path style="fill:#DD332F;" d="M293.683,383.996c-71.37-42.295-71.413-136.47,0-178.79c1.067-0.632,2.151-1.175,3.246-1.638
	c-7.158-2.982-15.643-2.87-23.249,1.638c-71.413,42.32-71.37,136.495,0,178.79c7.606,4.508,16.091,4.62,23.249,1.638
	C295.834,385.172,294.749,384.629,293.683,383.996z"/>
<path style="fill:#EA473B;" d="M364.625,227.993c0-20.315,22.115-33.143,39.592-22.786c71.413,42.32,71.37,136.495,0,178.79
	c-17.477,10.357-39.592-2.471-39.592-22.786V227.993z"/>
<path style="fill:#DD332F;" d="M384.962,361.21V227.993c0-11.401,6.965-20.441,16.167-24.351
	c-16.884-7.267-36.503,5.216-36.503,24.351V361.21c0,19.135,19.619,31.62,36.503,24.352
	C391.928,381.651,384.962,372.611,384.962,361.21z"/>
<path d="M268.598,198.754c-35.846,21.242-57.247,57.073-57.247,95.848s21.4,74.605,57.247,95.848
	c22.441,13.297,50.917-3.042,50.917-29.239V227.993c0-12.342-6.414-23.364-17.159-29.486
	C291.713,192.442,279.094,192.534,268.598,198.754z M304.514,361.21c0,14.573-15.832,23.703-28.268,16.334
	c-31.242-18.514-49.894-49.521-49.894-82.943s18.652-64.429,49.894-82.942c2.934-1.739,6.171-2.609,9.42-2.609
	c3.169,0,6.349,0.83,9.264,2.49c6.001,3.42,9.585,9.57,9.585,16.453L304.514,361.21L304.514,361.21z"/>
<path d="M406.786,390.449c35.846-21.242,57.247-57.073,57.247-95.848s-21.4-74.606-57.247-95.848
	c-10.496-6.219-23.115-6.313-33.758-0.247c-10.745,6.121-17.159,17.145-17.159,29.486v133.217
	C355.869,387.405,384.333,403.754,406.786,390.449z M370.869,361.21V227.993c0-6.883,3.583-13.033,9.585-16.453
	c2.915-1.66,6.093-2.49,9.264-2.49c3.247,0,6.485,0.871,9.42,2.609c31.242,18.514,49.894,49.521,49.894,82.942
	s-18.652,64.429-49.894,82.943C386.705,384.914,370.869,375.785,370.869,361.21z"/>
<path d="M389.967,253.504c0.19,0.45,0.42,0.88,0.69,1.29c0.27,0.41,0.59,0.8,0.93,1.14c1.4,1.4,3.33,2.2,5.3,2.2
	c0.49,0,0.99-0.05,1.47-0.149c0.48-0.101,0.95-0.24,1.4-0.431c0.46-0.18,0.89-0.42,1.3-0.689c0.41-0.271,0.79-0.58,1.14-0.931
	c0.34-0.34,0.66-0.729,0.93-1.14c0.27-0.411,0.5-0.84,0.69-1.29c0.19-0.46,0.33-0.93,0.43-1.41c0.1-0.479,0.14-0.97,0.14-1.46
	s-0.04-0.99-0.14-1.47s-0.24-0.95-0.43-1.4c-0.19-0.46-0.42-0.89-0.69-1.3c-0.27-0.41-0.59-0.79-0.93-1.14
	c-0.35-0.34-0.73-0.66-1.14-0.931c-0.41-0.27-0.84-0.5-1.3-0.689c-0.45-0.19-0.92-0.33-1.4-0.43c-2.43-0.49-5.03,0.31-6.77,2.05
	c-0.34,0.35-0.66,0.729-0.93,1.14c-0.27,0.411-0.5,0.84-0.69,1.3c-0.19,0.45-0.33,0.92-0.43,1.4c-0.1,0.479-0.15,0.979-0.15,1.47
	s0.05,0.98,0.15,1.46C389.637,252.573,389.776,253.044,389.967,253.504z"/>
<path d="M389.967,299.716c0.19,0.46,0.42,0.89,0.69,1.3c0.27,0.41,0.58,0.79,0.93,1.141c0.35,0.34,0.73,0.66,1.14,0.93
	c0.41,0.27,0.84,0.5,1.3,0.69c0.45,0.189,0.92,0.329,1.4,0.43c0.48,0.09,0.98,0.14,1.46,0.14c1.98,0,3.91-0.8,5.31-2.189
	c0.34-0.351,0.66-0.73,0.93-1.141c0.27-0.411,0.5-0.84,0.69-1.3c0.19-0.45,0.33-0.92,0.43-1.399c0.09-0.48,0.14-0.98,0.14-1.471
	c0-0.479-0.05-0.979-0.14-1.46c-0.1-0.479-0.24-0.95-0.43-1.41c-0.19-0.449-0.42-0.88-0.69-1.29c-0.27-0.409-0.59-0.79-0.93-1.14
	c-1.74-1.74-4.33-2.54-6.77-2.05c-0.48,0.1-0.95,0.24-1.4,0.43c-0.46,0.19-0.89,0.42-1.3,0.69c-0.41,0.27-0.79,0.58-1.14,0.93
	s-0.66,0.73-0.93,1.14c-0.27,0.41-0.5,0.841-0.69,1.29c-0.19,0.46-0.33,0.931-0.43,1.41c-0.1,0.48-0.15,0.98-0.15,1.46
	c0,0.49,0.05,0.99,0.15,1.471C389.637,298.796,389.776,299.266,389.967,299.716z"/>
<path d="M389.967,345.939c0.19,0.45,0.42,0.891,0.69,1.29c0.27,0.41,0.58,0.801,0.93,1.141c0.35,0.35,0.73,0.66,1.14,0.93
	c0.41,0.271,0.84,0.51,1.29,0.69c0.46,0.189,0.93,0.34,1.41,0.43c0.48,0.1,0.98,0.15,1.46,0.15c0.49,0,0.99-0.051,1.47-0.15
	c0.48-0.09,0.95-0.24,1.4-0.43c0.46-0.181,0.89-0.42,1.3-0.69c0.41-0.27,0.79-0.58,1.14-0.93c0.34-0.34,0.66-0.73,0.93-1.141
	c0.27-0.399,0.5-0.84,0.69-1.29c0.19-0.46,0.33-0.93,0.43-1.409c0.1-0.48,0.14-0.971,0.14-1.46c0-1.98-0.8-3.91-2.19-5.301
	c-0.35-0.35-0.73-0.66-1.14-0.939c-0.41-0.271-0.84-0.5-1.3-0.69c-0.45-0.18-0.92-0.33-1.4-0.42c-0.97-0.2-1.96-0.2-2.93,0
	c-0.48,0.09-0.95,0.24-1.41,0.42c-0.45,0.19-0.88,0.42-1.29,0.69c-0.41,0.279-0.79,0.59-1.14,0.939c-0.35,0.34-0.66,0.721-0.93,1.13
	c-0.27,0.41-0.5,0.851-0.69,1.301c-0.19,0.449-0.33,0.92-0.43,1.399c-0.1,0.49-0.15,0.98-0.15,1.471c0,0.489,0.05,0.979,0.15,1.46
	C389.637,345.009,389.776,345.479,389.967,345.939z"/>
<path d="M414.928,276.604c0.19,0.461,0.42,0.891,0.69,1.301c0.27,0.41,0.59,0.79,0.93,1.14c0.35,0.34,0.73,0.66,1.14,0.93
	c0.41,0.271,0.85,0.5,1.3,0.69c0.45,0.189,0.92,0.33,1.4,0.43c0.48,0.09,0.98,0.141,1.47,0.141c1.97,0,3.91-0.801,5.3-2.19
	c0.34-0.35,0.66-0.729,0.93-1.14c0.27-0.411,0.5-0.84,0.69-1.301c0.19-0.449,0.33-0.92,0.43-1.399c0.1-0.48,0.15-0.98,0.15-1.47
	c0-0.48-0.05-0.98-0.15-1.46c-0.1-0.48-0.24-0.95-0.43-1.4c-0.19-0.46-0.42-0.89-0.69-1.3c-0.27-0.41-0.59-0.79-0.93-1.141
	c-0.35-0.34-0.73-0.659-1.14-0.93c-0.41-0.27-0.84-0.5-1.3-0.689c-0.45-0.19-0.92-0.33-1.4-0.431c-0.97-0.189-1.96-0.189-2.93,0
	c-0.48,0.101-0.95,0.24-1.4,0.431c-0.45,0.189-0.89,0.42-1.3,0.689c-0.41,0.271-0.79,0.59-1.14,0.93
	c-0.34,0.351-0.66,0.73-0.93,1.141c-0.27,0.411-0.5,0.84-0.69,1.3c-0.19,0.45-0.33,0.92-0.43,1.4c-0.09,0.479-0.14,0.979-0.14,1.46
	c0,0.489,0.05,0.989,0.14,1.47C414.598,275.685,414.737,276.155,414.928,276.604z"/>
<path d="M421.859,327.458c0.49,0,0.98-0.05,1.46-0.15c0.48-0.09,0.95-0.239,1.41-0.42c0.45-0.189,0.88-0.42,1.29-0.689
	c0.41-0.28,0.8-0.591,1.14-0.94c0.35-0.34,0.66-0.72,0.93-1.14c0.27-0.4,0.51-0.84,0.69-1.29c0.19-0.45,0.33-0.931,0.43-1.4
	c0.1-0.49,0.15-0.979,0.15-1.47s-0.05-0.98-0.15-1.46c-0.1-0.48-0.24-0.95-0.43-1.41c-0.18-0.45-0.42-0.89-0.69-1.29
	c-0.27-0.41-0.58-0.8-0.93-1.14c-0.34-0.351-0.73-0.66-1.14-0.931c-0.41-0.27-0.84-0.51-1.29-0.689c-0.46-0.19-0.93-0.34-1.41-0.431
	c-0.96-0.199-1.96-0.199-2.93,0c-0.48,0.091-0.95,0.24-1.4,0.431c-0.45,0.18-0.89,0.42-1.3,0.689c-0.41,0.271-0.79,0.58-1.14,0.931
	c-0.34,0.34-0.66,0.729-0.93,1.14c-0.27,0.4-0.5,0.84-0.69,1.29c-0.19,0.46-0.33,0.93-0.43,1.41c-0.09,0.479-0.14,0.97-0.14,1.46
	c0,1.979,0.8,3.91,2.19,5.3C417.948,326.658,419.878,327.458,421.859,327.458z"/>
<path d="M285.7,247.763c-0.18-0.46-0.42-0.89-0.69-1.3c-0.27-0.41-0.58-0.79-0.93-1.14c-0.34-0.34-0.73-0.66-1.14-0.931
	c-0.41-0.27-0.84-0.5-1.29-0.689c-0.46-0.19-0.93-0.33-1.41-0.43c-0.96-0.19-1.96-0.19-2.93,0c-0.48,0.1-0.95,0.239-1.4,0.43
	c-0.45,0.189-0.89,0.42-1.3,0.689c-0.41,0.271-0.79,0.591-1.14,0.931c-0.34,0.35-0.66,0.729-0.93,1.14
	c-0.27,0.411-0.5,0.84-0.69,1.3c-0.19,0.45-0.33,0.92-0.43,1.4c-0.09,0.479-0.14,0.979-0.14,1.47s0.05,0.98,0.14,1.46
	c0.1,0.48,0.24,0.95,0.43,1.41c0.19,0.45,0.42,0.88,0.69,1.29c0.27,0.41,0.59,0.8,0.93,1.14c0.35,0.351,0.73,0.66,1.14,0.931
	c0.41,0.27,0.85,0.51,1.3,0.689c0.45,0.19,0.92,0.33,1.4,0.431c0.49,0.1,0.98,0.149,1.47,0.149s0.98-0.05,1.46-0.149
	c0.48-0.101,0.95-0.24,1.41-0.431c0.45-0.18,0.88-0.42,1.29-0.689c0.41-0.271,0.8-0.58,1.14-0.931c0.35-0.34,0.66-0.729,0.93-1.14
	c0.27-0.411,0.51-0.84,0.69-1.29c0.19-0.46,0.33-0.93,0.43-1.41c0.1-0.479,0.15-0.97,0.15-1.46s-0.05-0.99-0.15-1.47
	S285.89,248.213,285.7,247.763z"/>
<path d="M285.7,293.976c-0.18-0.449-0.42-0.88-0.69-1.29c-0.27-0.409-0.58-0.79-0.93-1.14c-0.35-0.35-0.73-0.66-1.14-0.93
	c-0.41-0.271-0.84-0.5-1.29-0.69c-0.46-0.189-0.93-0.33-1.41-0.43c-2.44-0.49-5.03,0.31-6.77,2.05c-0.34,0.35-0.65,0.73-0.93,1.14
	c-0.27,0.41-0.5,0.841-0.69,1.29c-0.19,0.46-0.33,0.931-0.43,1.41c-0.09,0.48-0.14,0.98-0.14,1.46c0,0.49,0.05,0.99,0.14,1.471
	c0.1,0.479,0.24,0.949,0.43,1.399c0.19,0.46,0.42,0.89,0.69,1.3c0.28,0.41,0.59,0.79,0.93,1.141c1.4,1.39,3.33,2.189,5.31,2.189
	c0.49,0,0.98-0.05,1.46-0.14c0.48-0.101,0.95-0.24,1.41-0.43c0.45-0.19,0.88-0.421,1.29-0.69c0.41-0.27,0.79-0.59,1.14-0.93
	c0.35-0.351,0.66-0.73,0.93-1.141c0.27-0.411,0.51-0.84,0.69-1.3c0.19-0.45,0.33-0.92,0.43-1.399c0.1-0.48,0.15-0.98,0.15-1.471
	c0-0.479-0.05-0.979-0.15-1.46C286.03,294.906,285.89,294.436,285.7,293.976z"/>
<path d="M282.94,336.829c-0.41-0.271-0.84-0.5-1.29-0.69c-0.46-0.18-0.93-0.33-1.41-0.42c-0.96-0.2-1.96-0.2-2.93,0
	c-0.48,0.09-0.95,0.24-1.4,0.42c-0.45,0.19-0.89,0.42-1.3,0.69c-0.41,0.279-0.79,0.59-1.14,0.939c-1.39,1.391-2.19,3.32-2.19,5.301
	c0,0.489,0.05,0.979,0.14,1.46c0.1,0.479,0.24,0.949,0.43,1.409c0.19,0.45,0.42,0.891,0.69,1.29c0.28,0.41,0.59,0.801,0.93,1.141
	c0.35,0.35,0.73,0.66,1.14,0.93c0.41,0.271,0.85,0.51,1.3,0.69c0.45,0.189,0.92,0.34,1.4,0.43c0.49,0.1,0.98,0.15,1.47,0.15
	s0.98-0.051,1.46-0.15c0.48-0.09,0.95-0.24,1.41-0.43c0.45-0.181,0.88-0.42,1.29-0.69c0.41-0.27,0.79-0.58,1.14-0.93
	c0.35-0.34,0.66-0.73,0.93-1.141c0.27-0.399,0.5-0.84,0.69-1.29c0.19-0.46,0.33-0.93,0.43-1.409c0.1-0.48,0.15-0.971,0.15-1.46
	c0-1.98-0.8-3.91-2.2-5.301C283.729,337.419,283.35,337.108,282.94,336.829z"/>
<path d="M260.739,270.875c-0.19-0.46-0.42-0.89-0.69-1.3c-0.27-0.41-0.59-0.79-0.93-1.141c-0.35-0.34-0.73-0.659-1.14-0.93
	c-0.41-0.27-0.84-0.5-1.3-0.689c-0.45-0.19-0.92-0.33-1.4-0.431c-0.97-0.189-1.96-0.189-2.93,0c-0.48,0.101-0.95,0.24-1.4,0.431
	c-0.46,0.189-0.89,0.42-1.3,0.689c-0.41,0.271-0.79,0.59-1.14,0.93c-0.34,0.351-0.66,0.73-0.93,1.141c-0.27,0.411-0.5,0.84-0.69,1.3
	c-0.19,0.45-0.33,0.92-0.43,1.4c-0.1,0.479-0.14,0.979-0.14,1.46c0,0.489,0.04,0.989,0.14,1.47c0.1,0.479,0.24,0.95,0.43,1.399
	c0.19,0.461,0.42,0.891,0.69,1.301c0.27,0.41,0.59,0.79,0.93,1.14c1.39,1.39,3.33,2.19,5.3,2.19c0.49,0,0.99-0.051,1.47-0.141
	c0.48-0.1,0.95-0.24,1.4-0.43c0.46-0.19,0.89-0.42,1.3-0.69c0.41-0.27,0.79-0.59,1.14-0.93c0.34-0.35,0.66-0.729,0.93-1.14
	s0.5-0.84,0.69-1.301c0.19-0.449,0.33-0.92,0.43-1.399c0.1-0.48,0.15-0.98,0.15-1.47c0-0.48-0.05-0.98-0.15-1.46
	C261.069,271.795,260.929,271.325,260.739,270.875z"/>
<path d="M260.739,317.087c-0.19-0.45-0.42-0.89-0.69-1.29c-0.27-0.41-0.59-0.8-0.93-1.14c-0.35-0.351-0.73-0.66-1.14-0.931
	c-0.41-0.27-0.84-0.51-1.3-0.689c-0.45-0.19-0.92-0.34-1.4-0.431c-0.97-0.199-1.96-0.199-2.93,0c-0.48,0.091-0.95,0.24-1.4,0.431
	c-0.46,0.18-0.89,0.42-1.3,0.689c-0.41,0.271-0.79,0.58-1.14,0.931c-0.35,0.34-0.66,0.729-0.93,1.14c-0.27,0.4-0.5,0.84-0.69,1.29
	c-0.19,0.46-0.33,0.93-0.43,1.41c-0.1,0.479-0.14,0.97-0.14,1.46c0,1.979,0.79,3.91,2.19,5.3c0.35,0.35,0.73,0.66,1.14,0.94
	c0.41,0.27,0.84,0.5,1.3,0.689c0.45,0.181,0.92,0.33,1.4,0.42c0.48,0.101,0.98,0.15,1.46,0.15c1.98,0,3.91-0.8,5.31-2.2
	c1.39-1.39,2.2-3.32,2.2-5.3c0-0.49-0.05-0.98-0.15-1.46C261.069,318.017,260.929,317.547,260.739,317.087z"/>
<path d="M355.895,137.782c-4.123-0.394-7.782,2.642-8.168,6.766c-0.387,4.124,2.642,7.781,6.766,8.168
	C435.734,160.344,497,221.342,497,294.602c0,78.67-71.464,142.673-159.308,142.673c-52.732,0-99.669-23.141-128.492-58.436
	c-73.104-89.168-9.007-214.792,111.692-226.123c4.124-0.387,7.154-4.044,6.767-8.168c-0.387-4.124-4.045-7.159-8.168-6.766
	c-22.412,2.103-43.936,8.105-63.515,17.513c-14.808-7.109-30.705-12.231-47.125-15.228c2.871-13.824,8.023-33.381,16.17-47.258
	c5.027-8.566-4.445-18.347-13.196-13.631l-14.499,7.821c-1.578,0.854-3.559,0.261-4.413-1.318L180.908,63.47
	c-2.83-5.238-10.368-5.236-13.196,0l-12.006,22.21c-0.854,1.581-2.834,2.173-4.414,1.319l-14.501-7.822
	c-8.744-4.714-18.223,5.063-13.194,13.632c8.141,13.868,13.291,33.411,16.163,47.235C60.139,154.584,0,218.356,0,294.602
	c0,39.376,16.126,77.075,45.407,106.151c28.887,28.686,68.201,46.68,110.7,50.669c0.238,0.022,0.475,0.034,0.71,0.034
	c3.826-0.001,7.094-2.914,7.458-6.8c0.387-4.124-2.642-7.781-6.766-8.168C76.266,428.86,15.001,367.861,15.001,294.602
	c0-105.769,121.409-171.51,224.402-130.236c-101.649,62.86-100.26,198.469,0.018,260.478c-15.275,6.147-31.469,10.052-48.312,11.635
	c-4.124,0.388-7.153,4.045-6.766,8.169c0.388,4.123,4.051,7.156,8.169,6.765c22.402-2.105,43.761-8.004,63.55-17.533
	C371.887,489.651,512,413.059,512,294.602C512,212.915,443.46,146.001,355.895,137.782z M193.978,137.925
	c-13.193-1.339-26.789-1.278-39.338,0c-2.191-10.694-5.734-24.937-11.004-38.01c10.083,5.442,20.76,1.235,25.267-7.099l5.408-10.005
	l5.408,10.005c4.487,8.301,15.143,12.564,25.266,7.099C199.712,112.989,196.169,127.23,193.978,137.925z"/>
<g>
</g>
<g>
</g>
<g>
</g>
<g>
</g>
<g>
</g>
<g>
</g>
<g>
</g>
<g>
</g>
<g>
</g>
<g>
</g>
<g>
</g>
<g>
</g>
<g>
</g>
<g>
</g>
<g>
</g>
</svg>
