<?xml version="1.0" encoding="iso-8859-1"?>
<!-- Generator: Adobe Illustrator 19.0.0, SVG Export Plug-In . SVG Version: 6.00 Build 0)  -->
<svg version="1.1" id="Capa_1" xmlns="http://www.w3.org/2000/svg" xmlns:xlink="http://www.w3.org/1999/xlink" x="0px" y="0px"
	 viewBox="0 0 511.998 511.998" style="enable-background:new 0 0 511.998 511.998;" xml:space="preserve">
<path style="fill:#30AA44;" d="M420.024,382.516c-3.969-5.57-10.47-12.96-19.9-18.604c-3.588-2.148-3.658-7.227-0.192-9.375
	c9.706-6.015,27.676-15.701,50.316-21.327c4.491-1.116,5.517-6.879,1.771-9.718c-4.713-3.572-11.388-7.846-20.007-11.493
	c-3.951-1.672-4.792-6.851-1.505-9.426c8.105-6.348,22.125-15.997,37.929-21.046c4.596-1.468,5.133-7.624,0.858-10.044
	c-5.894-3.337-13.302-7.162-20.538-9.897c-4.208-1.591-5.003-7.125-1.429-9.665c11.104-7.892,29.074-22.426,39.78-40.279
	c2.101-3.504-0.337-8.093-4.514-8.428c-6.009-0.482-14.921-2.067-26.334-6.516c-3.436-1.339-4.804-5.459-2.737-8.378
	c10.4-14.69,34.857-57.637,11.271-110.715c-0.988-2.224-3.315-3.614-5.742-3.429c-57.916,4.399-84.133,46.294-92.138,62.416
	c-1.59,3.203-5.866,3.952-8.674,1.562c-9.328-7.939-14.948-15.035-18.222-20.096c-2.276-3.519-7.472-3.49-9.561,0.022
	c-10.643,17.889-14.92,40.603-16.604,54.121c-0.542,4.351-5.792,6.276-9.187,3.325c-5.839-5.075-12.719-9.783-18.451-13.391
	c-4.158-2.617-9.323,0.774-8.437,5.517c3.047,16.307,1.199,33.228-0.548,43.372c-0.708,4.114-5.668,5.829-9.013,3.143
	c-7.298-5.86-14.226-9.711-19.605-12.168c-4.276-1.952-8.864,1.684-7.717,6.167c5.781,22.601,5.772,43.015,5.078,54.413
	c-0.248,4.07-4.754,6.416-8.345,4.276c-9.441-5.627-19.029-7.847-25.815-8.701c-4.213-0.531-7.382,3.528-5.761,7.424
	c9.228,22.187,11.179,46.413,11.555,58.011c0.111,3.436-2.933,6.062-6.385,5.48c-13.049-2.2-27.249-0.385-36.182,1.319
	c-4.111,0.784-5.76,5.621-3.05,8.868c33.287,39.883,42.201,83.813,43.731,114.133l30.553,18.249
	c27.422-13.029,70.327-26.008,121.224-15.608c4.145,0.847,7.621-2.898,6.363-6.89c-2.735-8.673-7.869-22.036-15.992-32.482
	c-2.149-2.764-1.28-6.69,1.798-8.22c10.39-5.168,32.644-14.936,56.555-17.33C420.418,390.687,422.489,385.974,420.024,382.516z"/>
<path style="fill:#269E35;" d="M287.068,383.326c3.993-1.398,5.057-6.396,1.929-9.178c-6.795-6.044-14.056-14.883-26.386-19.686
	c-3.262-1.271-4.529-5.087-2.672-7.979c6.27-9.765,16.366-29.563,35.667-43.878c3.389-2.514,2.75-7.623-1.139-9.327
	c-6.264-2.746-15.634-5.757-26.625-5.768c-4.181-0.004-6.846-4.329-4.972-7.95c5.248-10.141,15.709-27.671,32.261-44.11
	c3.284-3.261,1.209-8.735-3.463-9.252c-5.878-0.65-13.799-0.896-23.07,0.393c-4.249,0.591-7.627-3.425-6.126-7.32
	c0.827-2.145,1.833-4.595,3.003-7.226c-6.28-4.687-12.163-7.899-16.863-10.046c-4.276-1.952-8.864,1.684-7.717,6.167
	c5.781,22.601,5.772,43.015,5.078,54.413c-0.248,4.07-4.754,6.416-8.345,4.276c-9.441-5.627-19.029-7.847-25.815-8.701
	c-4.213-0.531-7.382,3.528-5.761,7.424c9.229,22.187,11.179,46.413,11.555,58.011c0.111,3.435-2.933,6.062-6.385,5.48
	c-13.049-2.2-27.249-0.385-36.182,1.319c-4.111,0.784-5.76,5.621-3.05,8.868c25.78,30.888,36.935,64.199,41.369,91.739
	C230.859,412.725,254.908,394.589,287.068,383.326z"/>
<path style="fill:#83CC8E;" d="M375.722,218.689L201.213,474.672c-6.079,8.918-3.143,21.248,6.421,26.96l0,0l0,0
	c9.564,5.712,21.812,2.452,26.781-7.129l142.647-275.014C377.5,218.643,376.258,217.901,375.722,218.689z"/>
<path style="fill:#78C181;" d="M217.749,483.008l94.619-138.794l64.694-124.726c0.439-0.846-0.803-1.588-1.34-0.8L201.213,474.672
	c-6.079,8.918-3.143,21.247,6.421,26.96l0,0c3.325,1.986,6.973,2.864,10.529,2.792C213.701,498.144,213.23,489.636,217.749,483.008z
	"/>
<path style="fill:#30AA44;" d="M269.976,293.278c-6.264-2.746-15.634-5.757-26.625-5.768c-4.181-0.004-6.846-4.329-4.972-7.95
	c5.248-10.141,15.709-27.671,32.261-44.11c3.284-3.261,1.209-8.735-3.463-9.252c-5.878-0.65-13.8-0.896-23.07,0.393
	c-4.249,0.591-7.627-3.425-6.126-7.32c3.703-9.606,10.792-25.08,21.77-37.518c3.193-3.617,0.497-9.177-4.414-9.063
	c-6.771,0.158-15.091,0.672-22.707,2.035c-4.428,0.792-7.949-3.552-6.183-7.565c5.487-12.47,13.462-34.162,13.498-54.978
	c0.007-4.086-4.439-6.775-8.197-4.921c-5.406,2.667-13.871,5.877-25.949,7.91c-3.636,0.612-6.923-2.223-6.646-5.789
	c1.395-17.945,0.37-67.357-47.096-100.831c-1.989-1.403-4.699-1.403-6.688,0C97.905,42.026,96.879,91.438,98.274,109.384
	c0.277,3.565-3.009,6.401-6.646,5.789c-12.079-2.033-20.543-5.243-25.949-7.91c-3.758-1.854-8.204,0.836-8.197,4.921
	c0.036,20.816,8.011,42.509,13.498,54.978c1.766,4.013-1.754,8.358-6.183,7.565c-7.615-1.362-15.936-1.877-22.707-2.035
	c-4.911-0.115-7.607,5.445-4.414,9.063c10.979,12.438,18.067,27.912,21.77,37.518c1.502,3.895-1.877,7.911-6.126,7.32
	c-9.271-1.289-17.192-1.043-23.07-0.393c-4.672,0.517-6.746,5.991-3.463,9.252c16.552,16.439,27.013,33.97,32.261,44.11
	c1.874,3.621-0.791,7.946-4.972,7.95c-10.991,0.01-20.361,3.022-26.624,5.768c-3.889,1.705-4.528,6.814-1.139,9.327
	c19.299,14.316,33.396,34.115,39.667,43.878c1.857,2.892,0.59,6.709-2.672,7.979c-12.331,4.802-23.591,13.643-30.386,19.686
	c-3.127,2.782-2.063,7.779,1.929,9.178c49.029,17.171,79.208,50.315,96.07,75.561h35.588c16.861-25.246,47.04-58.39,96.07-75.561
	c3.993-1.398,5.057-6.396,1.929-9.178c-6.795-6.044-18.055-14.883-30.386-19.686c-3.262-1.271-4.529-5.087-2.672-7.979
	c6.27-9.765,20.366-29.563,39.667-43.878C274.504,300.091,273.865,294.983,269.976,293.278z"/>
<g>
	<path style="fill:#269E35;" d="M68.469,381.742c-3.96-1.487-4.913-6.507-1.724-9.218c6.929-5.891,8.385-13.477,20.819-18.001
		c3.29-1.197,4.642-5.984,2.85-8.917c-6.05-9.902-19.7-28.011-38.676-42.755c-3.332-2.589-2.579-7.682,1.348-9.3
		c6.324-2.606,9.759-5.406,20.747-5.171c4.18,0.09,6.941-4.175,5.149-7.837c-5.021-10.256-15.086-28.016-31.267-44.821
		c-3.21-3.334-1.014-8.76,3.669-9.172c0.318-0.028,0.664-0.049,0.993-0.074c-8.86-1.143-16.452-0.906-22.127-0.278
		c-4.672,0.517-6.746,5.991-3.463,9.252c16.552,16.439,27.013,33.97,32.261,44.11c1.874,3.621-0.791,7.946-4.972,7.95
		c-10.991,0.01-20.361,3.022-26.624,5.768c-3.889,1.705-4.528,6.814-1.139,9.327c19.299,14.316,33.396,34.115,39.667,43.878
		c1.857,2.892,0.59,6.709-2.672,7.979c-12.331,4.802-23.591,13.643-30.386,19.686c-3.127,2.782-2.063,7.779,1.929,9.178
		c49.029,17.171,79.208,50.315,96.07,75.561h21.416C138.506,443.588,116.539,399.794,68.469,381.742z"/>
	<path style="fill:#269E35;" d="M59.446,219.272c1.134,2.941-0.516,5.948-3.221,6.992c5.137-0.165,11.309,0.078,18.215,1.197
		c4.235,0.686,7.702-3.253,6.288-7.181c-3.488-9.686-10.229-25.315-20.926-37.995c-2.316-2.746-1.342-6.492,1.331-8.136
		c-6.55-0.931-13.344-1.323-19.042-1.456c-4.911-0.115-7.607,5.445-4.414,9.063C48.654,194.192,55.743,209.666,59.446,219.272z"/>
	<path style="fill:#269E35;" d="M69.323,173.607c5.66,0.395,11.917,1.078,17.75,2.257c4.41,0.891,8.026-3.373,6.35-7.425
		c-5.206-12.589-12.694-34.455-12.264-55.266c0.001-0.083,0.016-0.162,0.021-0.245c-6.705-1.778-11.816-3.848-15.501-5.667
		c-3.758-1.854-8.204,0.836-8.197,4.921c0.036,20.816,8.011,42.509,13.498,54.978C72.051,169.598,71.168,172.15,69.323,173.607z"/>
	<path style="fill:#269E35;" d="M97.751,112.103c4.664,1.754,10.445,3.475,17.478,4.821c3.622,0.693,6.971-2.068,6.774-5.639
		c-0.934-16.905,0.9-61.599,41.244-93.815c-3.41-3.069-7.125-6.054-11.189-8.92c-1.989-1.403-4.699-1.403-6.688,0
		C97.905,42.026,96.879,91.438,98.274,109.384C98.351,110.365,98.149,111.288,97.751,112.103z"/>
</g>
<path style="fill:#83CC8E;" d="M147.934,175.346l-18.556,309.252c-0.646,10.773,8.198,19.853,19.336,19.853l0,0l0,0
	c11.14,0,19.983-9.08,19.336-19.853l-18.556-309.252C149.438,174.395,147.991,174.395,147.934,175.346z"/>
<path style="fill:#78C181;" d="M147.831,484.598l10.11-168.49l-8.447-140.762c-0.057-0.951-1.504-0.951-1.561,0l-18.556,309.252
	c-0.646,10.773,8.198,19.853,19.336,19.853c3.352,0,6.487-0.834,9.227-2.277C151.574,498.822,147.379,492.13,147.831,484.598z"/>
<path d="M20.72,308.629c16.904,12.54,29.651,29.538,36.44,39.788c-12.246,5.254-23.171,13.746-30.349,20.129
	c-7.393,6.578-4.966,18.566,4.436,21.858c45.901,16.075,74.607,46.826,90.91,70.581l-1.39,23.165
	c-1.481,24.674,29.641,37.326,46.593,19.324c4.979-5.286,7.483-12.149,7.053-19.324l-1.39-23.165
	c7.479-10.899,17.573-23.266,30.738-35.018c1.729,8.45,2.885,17.083,3.453,25.807l-13.16,19.388
	c-13.971,20.582,6.37,46.788,30.269,39.632c7.043-2.111,12.756-6.812,16.086-13.235l10.779-20.785
	c13.514-6.505,27.574-11.514,41.846-14.86c4.032-0.945,6.535-4.981,5.589-9.015c-0.945-4.032-4.979-6.529-9.015-5.589
	c-9.284,2.178-18.484,5-27.515,8.437l23.966-46.216c0.27-0.197,0.535-0.407,0.783-0.645c28.956-27.753,70.47-30.049,70.885-30.068
	c4.133-0.192,7.33-3.694,7.145-7.829c-0.186-4.138-3.665-7.375-7.829-7.155c-1.467,0.066-28.346,1.478-55.718,16.259l23.814-45.923
	c23.93-12.99,47.332-10.073,47.567-10.041c4.087,0.556,7.871-2.302,8.441-6.397c0.571-4.103-2.292-7.892-6.395-8.463
	c-0.906-0.124-17.866-2.344-38.866,4.173l21.195-40.873c14.949-4.245,31.805-4.447,32.158-4.45c4.142-0.027,7.478-3.406,7.451-7.549
	c-0.026-4.05-3.286-7.451-7.549-7.451c-0.597,0.004-10.861,0.104-23.082,2.136l17.892-34.504c0-0.001,0-0.001,0-0.002
	c3.867-7.459-4.649-15.225-11.762-10.775c-1.96,1.226-1.369,0.755-13.235,18.237c-4.249-10.964-9.103-19.298-9.393-19.793
	c-2.098-3.573-6.693-4.768-10.265-2.673c-3.572,2.097-4.769,6.692-2.673,10.265c0.085,0.144,7.899,13.558,11.725,27.827
	l-26.239,38.658c-4.802-20.464-15.027-33.297-15.588-33.988c-2.61-3.216-7.334-3.708-10.55-1.097
	c-3.216,2.61-3.707,7.334-1.097,10.55c0.142,0.176,13.805,17.307,14.647,43.079l-29.515,43.484
	c-0.373-13.571-3.05-25.799-6.075-35.491c9.277-6.968,6.508-18.86-2.071-22.622c-6.062-2.657-15.358-5.781-26.397-6.319
	c5.14-9.425,14.796-24.879,29.335-39.319c5.149-5.114,4.824-12.863,0.532-17.7c4.482-1.515,7.861-5.255,8.694-10.071
	c1.838-10.611,3.429-26.06,1.192-41.522c5.583,3.451,10.37,6.819,14.266,10.039c7.984,6.599,20.202,1.769,21.478-8.407
	c1.402-11.201,5.101-31.981,14.312-48.828c4.671,6.4,10.797,12.683,18.246,18.706c6.592,5.33,16.452,3.204,20.175-4.29
	c8.036-16.18,32.393-54.239,85.64-60.252c21.046,47.388-0.714,86.683-11.122,101.46c-4.923,6.988-1.796,16.712,6.387,19.618
	c8.944,3.18,17.467,5.16,25.389,5.904c-10.489,15.957-27.005,29.27-36.241,35.992c-3.937,2.865-5.938,7.61-5.221,12.386
	c0.717,4.777,4.03,8.731,8.646,10.318c4.665,1.604,9.866,3.833,15.505,6.645c-14.757,5.831-27.618,14.79-36.105,21.572
	c-3.655,2.92-5.418,7.404-4.715,11.997c0.7,4.573,3.846,8.467,8.21,10.161c5.324,2.066,10.325,4.582,14.92,7.504
	c-21.05,6.291-37.882,15.478-48.541,22.28c-8.293,5.291-7.972,17.371,0.57,22.156c6.884,3.859,12.017,8.835,15.522,13.023
	c-23.645,3.636-45.087,13.408-56.049,19.082c-3.51,1.816-5.983,5.054-6.784,8.88c-2.207,10.546,6.751,9.63,16.364,36.866
	c-13.367-2.092-26.975-2.803-40.487-2.111c-4.137,0.212-7.319,3.736-7.107,7.873c0.212,4.137,3.744,7.332,7.873,7.107
	c37.504-1.923,44.113,7.791,52.547-1.935c2.978-3.436,3.922-8.057,2.525-12.363c-2.918-8.995-7.983-21.613-15.853-32.108
	c11.168-5.597,31.078-14.209,52.308-16.895c9.94-1.255,14.805-12.576,8.915-20.531c-3.858-5.212-10.244-12.37-19.428-18.175
	c9.333-5.686,25.705-14.41,45.794-19.885c10.627-2.897,13.076-16.639,4.175-23.02c-5.652-4.054-11.884-7.542-18.562-10.396
	c7.443-5.659,19.709-13.906,33.131-18.5c10.737-3.68,12.135-18.316,1.93-23.713c-6.499-3.435-12.591-6.245-18.163-8.381
	c12.699-9.587,28.759-23.887,38.995-40.997c5.012-8.38-0.742-19.069-10.613-19.571c-4.692-0.24-12.19-1.224-21.983-4.459
	c12.443-18.586,34.501-62.583,10.351-115.265c-2.346-5.11-7.715-8.147-13.376-7.574c-59.353,6.099-87.552,47.058-97.731,66.579
	c-7.96-6.69-12.656-12.565-15.234-16.409c-5.383-8.027-17.411-7.621-22.316,0.64c-10.287,17.327-15.041,38.217-17.238,53.738
	c-4.797-3.726-10.52-7.558-17.057-11.421c-9.66-5.709-21.812,2.476-19.68,13.58c2.627,13.691,1.313,28.276-0.041,37.287
	c-4.609-3.307-9.429-6.184-14.395-8.602c2.592-4.136,5.556-8.272,8.903-12.065c7.561-8.566,1.17-21.767-10.211-21.523
	c-7.541,0.177-14.38,0.71-20.389,1.589c6.072-14.483,12.638-34.728,12.672-54.587c0.017-9.647-10.27-15.979-19.015-11.659
	c-4.221,2.082-11.312,4.894-21.628,6.839c0.463-8.45,0.207-20.633-2.917-34.511c-0.91-4.041-4.924-6.574-8.964-5.67
	c-4.041,0.91-6.58,4.923-5.67,8.965c3.049,13.545,3.001,25.227,2.425,32.642c-0.653,8.399,6.89,15.201,15.368,13.767
	c9.517-1.602,18.022-4.06,25.334-7.318c-0.787,18.943-8.253,38.569-12.795,48.892c-4.17,9.476,4.021,19.82,14.367,17.968
	c4.955-0.887,10.725-1.48,17.197-1.771c-9.786,12.227-16.31,26.234-20.165,36.235c-3.352,8.693,3.318,18.87,14.933,17.357
	c5.528-0.72,11.001-0.934,16.318-0.624c-12.427,12.993-22.796,27.887-30.518,42.807c-4.454,8.605,1.82,18.888,11.625,18.896
	c8.042,0.008,15.131,1.865,20.366,3.818c-18.533,14.604-32.016,33.395-38.571,43.602c-4.113,6.404-1.82,14.891,4.925,18.413
	c1.853,0.968,11.819,3.959,26.769,16.579c-33.928,12.558-62.175,33.762-84.072,60.452l-4.421-73.671
	c11.082-37.215,45.023-58.819,45.389-59.048c3.511-2.188,4.589-6.807,2.406-10.322c-2.186-3.518-6.809-4.602-10.328-2.416
	c-1.224,0.761-23.29,14.703-39.362,40.225c-0.624-10.403-2.453-40.884-3.104-51.729c13.945-21.765,34.792-30.237,35.108-30.362
	c3.849-1.505,5.756-5.842,4.261-9.697c-1.498-3.862-5.843-5.779-9.705-4.28c-0.841,0.326-16.316,6.484-31.011,21.899l-2.755-45.92
	c10.684-10.521,24.494-18.442,24.642-18.526c3.599-2.047,4.859-6.623,2.814-10.224c-2.045-3.602-6.623-4.863-10.226-2.817
	c-0.506,0.287-9.029,5.165-18.368,12.612l-1.122-18.701c-0.161-2.684-1.618-5.056-3.796-6.455
	c-5.317-3.411-12.361,0.179-12.738,6.455l-2.335,38.91c-9.636-7.793-18.616-12.932-19.136-13.227
	c-3.6-2.044-8.175-0.783-10.222,2.814c-2.047,3.6-0.788,8.178,2.81,10.227c0.152,0.086,14.626,8.391,25.402,19.287l-2.757,45.951
	c-14.914-16.004-30.913-22.359-31.769-22.691c-3.865-1.499-8.207,0.418-9.705,4.28c-1.498,3.862,0.419,8.207,4.281,9.704
	c0.218,0.085,21.74,8.647,35.823,31.535l-3.105,51.744c-16.125-26.275-38.852-40.648-40.095-41.42
	c-3.517-2.182-8.128-1.104-10.316,2.409c-2.188,3.512-1.114,8.135,2.395,10.328c0.349,0.219,35.022,22.259,45.739,60.192
	c0.088,0.31,0.211,0.6,0.333,0.889l-3.123,52.045c-18.033-21.979-45.173-46.054-84.075-60.453
	c22.671-19.137,29.73-13.648,33.116-24.064c1.195-3.679,0.678-7.661-1.419-10.927c-6.555-10.209-20.036-28.997-38.572-43.603
	c5.235-1.953,12.324-3.811,20.365-3.818c9.808-0.008,16.078-10.293,11.626-18.895c-5.722-11.057-15.553-27.161-30.52-42.809
	c5.584-0.328,11.317-0.09,17.098,0.715c9.817,1.371,17.74-8.151,14.156-17.446c-3.855-10.001-10.38-24.009-20.165-36.235
	c6.474,0.291,12.244,0.885,17.198,1.771c10.337,1.848,18.54-8.484,14.368-17.968c-4.542-10.324-12.008-29.95-12.795-48.892
	c7.312,3.259,15.817,5.717,25.336,7.319c8.504,1.432,16.017-5.389,15.366-13.767c-1.389-17.86,0.063-62.516,42.962-93.424
	c11.717,8.443,21.225,18.589,28.274,30.175c2.154,3.539,6.768,4.664,10.306,2.509c3.538-2.153,4.661-6.768,2.508-10.306
	c-8.321-13.674-19.565-25.562-33.422-35.334c-4.586-3.234-10.748-3.234-15.332,0C91.768,36.39,88.291,85.344,89.506,107.378
	c-10.317-1.945-17.406-4.757-21.627-6.839c-8.743-4.313-19.031,2.004-19.015,11.659c0.035,19.856,6.601,40.102,12.672,54.587
	c-6.009-0.879-12.849-1.413-20.39-1.589c-11.468-0.185-17.733,13.002-10.211,21.522c9.248,10.479,15.605,23.571,19.115,32.053
	c-7.365-0.8-14.664-0.808-21.742-0.025c-10.98,1.215-15.643,14.359-7.924,22.027c14.539,14.439,24.195,29.894,29.334,39.319
	c-11.038,0.538-20.335,3.662-26.395,6.319C14.117,290.439,12.732,302.703,20.72,308.629z M249.623,218.386
	c-0.42-2.14-0.881-4.27-1.38-6.38c3.698,1.766,7.309,3.839,10.796,6.2C257.219,218.127,253.255,218.152,249.623,218.386z
	 M238.018,348.416c4.908-7.41,12.944-18.343,23.399-28.573c3.169,12.383,5.15,28.063,2.168,44.628
	C255.906,358.206,247.126,352.323,238.018,348.416z M318.191,314.98c-2.965,5.719-88.472,170.61-91.098,175.673
	c-4.888,9.426-19.761,7.932-22.231-2.507c-0.701-2.965-0.132-6.006,1.603-8.563C210.275,473.971,314.367,320.613,318.191,314.98z
	 M242.78,399.373c-5.949,8.765,2.512-3.701-22.574,33.258c-0.901-5.819-2.049-11.578-3.439-17.244
	C224.995,409.295,233.739,403.911,242.78,399.373z M135.738,485.047c0.348-5.796,11.456-190.917,11.851-197.494
	c0.188,3.128,11.677,194.592,11.851,197.494c0.18,3.006-0.885,5.897-3,8.144C149.012,501.077,135.099,495.713,135.738,485.047z"/>
<g>
</g>
<g>
</g>
<g>
</g>
<g>
</g>
<g>
</g>
<g>
</g>
<g>
</g>
<g>
</g>
<g>
</g>
<g>
</g>
<g>
</g>
<g>
</g>
<g>
</g>
<g>
</g>
<g>
</g>
</svg>
