<?xml version="1.0" encoding="iso-8859-1"?>
<!-- Generator: Adobe Illustrator 19.0.0, SVG Export Plug-In . SVG Version: 6.00 Build 0)  -->
<svg version="1.1" id="Capa_1" xmlns="http://www.w3.org/2000/svg" xmlns:xlink="http://www.w3.org/1999/xlink" x="0px" y="0px"
	 viewBox="0 0 511.999 511.999" style="enable-background:new 0 0 511.999 511.999;" xml:space="preserve">
<path style="fill:#E0B377;" d="M257.214,6.837c-118.388,0-215.54,90.901-225.481,206.715c-0.418,4.861,2.884,9.287,7.679,10.187
	c46.372,8.709,96.344,14.715,148.737,17.548c18.846,1.018,32.719,18.035,29.786,36.679l-22.321,141.892
	c-13.222,40.937,16.399,82.171,57.825,84.523c45.542,2.585,79.328-41.297,65.376-84.523l-21.662-137.706
	c-3.28-20.858,12.209-39.887,33.288-41.096c51.279-2.944,100.197-8.931,145.64-17.516c4.17-0.788,7.051-4.623,6.708-8.853
	C473.389,98.332,375.99,6.837,257.214,6.837z"/>
<g>
	<path style="fill:#CC9A5E;" d="M52.137,217.558C62.078,101.744,159.23,10.842,277.619,10.842c11.439,0,22.677,0.857,33.659,2.494
		c-17.324-4.246-35.431-6.5-54.063-6.5c-118.389,0-215.541,90.901-225.482,206.715c-0.418,4.861,2.884,9.287,7.679,10.187
		c5.952,1.118,11.965,2.19,18.034,3.217C53.98,225.272,51.792,221.565,52.137,217.558z"/>
	<path style="fill:#CC9A5E;" d="M216.018,423.863l22.321-141.892c2.933-18.645-10.94-35.66-29.786-36.679
		c-2.443-0.132-4.877-0.278-7.31-0.424c11.669,6.106,18.887,19.145,16.692,33.097l-22.321,141.892
		c-13.222,40.937,16.399,82.171,57.825,84.523c0.538,0.03,1.071,0.048,1.605,0.066C224.058,492.88,204.906,458.269,216.018,423.863z
		"/>
	<path style="fill:#CC9A5E;" d="M390.389,236.109c-1.801-43.856-16.498-74.26-35.162-95.294
		c-28.688-32.329-81.859-6.895-74.949,35.771l16.486,101.792l0,0c-0.987-19.327,13.878-36.187,33.677-37.323
		C350.827,239.884,370.819,238.213,390.389,236.109L390.389,236.109z"/>
	<path style="fill:#CC9A5E;" d="M159.33,140.814c-18.665,21.034-33.362,51.437-35.162,95.294l0,0
		c19.456,2.092,39.332,3.753,59.595,4.923c1.463,0.084,2.921,0.175,4.387,0.254c18.183,0.983,31.73,16.857,30.028,34.718
		l16.101-99.418C241.189,133.919,188.017,108.485,159.33,140.814z"/>
</g>
<g>
	<path style="fill:#B78855;" d="M182.795,142.244c6.292-7.09,13.656-11.642,21.352-14.026c-14.884-4.659-32.214-1.608-44.818,12.596
		c-18.665,21.034-33.362,51.437-35.162,95.294l0,0c6.794,0.731,13.658,1.388,20.553,2.011
		C148.178,194.637,163.568,163.912,182.795,142.244z"/>
	<path style="fill:#B78855;" d="M349.859,189.113c-27.037-20.871-65.743,1.747-60.858,35.552l7.764,53.714
		c-0.987-19.327,13.878-36.187,33.677-37.323c20.386-1.171,40.379-2.842,59.948-4.946
		C378.125,215.097,363.922,199.968,349.859,189.113z"/>
	<path style="fill:#B78855;" d="M164.699,189.113c-14.065,10.857-28.268,25.986-40.533,46.998
		c20.862,2.241,42.198,3.998,63.983,5.176c18.192,0.983,31.702,16.88,29.983,34.752l7.425-51.374
		C230.443,190.86,191.737,168.242,164.699,189.113z"/>
</g>
<g>
	<path style="fill:#A3764A;" d="M203.499,246.176c0.533,0.338,1.051,0.696,1.562,1.064c0.247,0.178,0.491,0.36,0.732,0.546
		c0.318,0.243,0.63,0.496,0.938,0.75c0.426,0.351,0.839,0.714,1.245,1.085c0.21,0.193,0.423,0.387,0.628,0.586
		c0.306,0.296,0.606,0.597,0.9,0.905c0.087,0.092,0.171,0.186,0.257,0.279c0.626,0.671,1.222,1.368,1.787,2.091
		c0.024,0.03,0.048,0.06,0.072,0.091c4.66,5.99,7.209,13.627,6.618,21.723l3.788-26.211c-4.019-2.174-8.576-3.527-13.474-3.792
		c-2.443-0.132-4.877-0.278-7.31-0.424c0.113,0.059,0.219,0.13,0.331,0.19c0.487,0.262,0.964,0.537,1.435,0.823
		C203.172,245.98,203.338,246.074,203.499,246.176z"/>
	<path style="fill:#A3764A;" d="M151.237,200.893c-9.484,9.356-18.725,20.922-27.068,35.216c0.443,0.048,0.891,0.089,1.334,0.136
		c3.433,0.366,6.887,0.706,10.345,1.044c2.951,0.283,5.907,0.563,8.873,0.83C145.803,224.496,148.059,212.126,151.237,200.893z"/>
</g>
<path d="M239.048,15c4.136-0.315,7.233-3.924,6.916-8.06s-3.919-7.244-8.061-6.916C123.781,8.743,32.736,99.394,22.992,212.909
	c-0.752,8.766,5.17,16.595,13.776,18.211c47.475,8.916,96.772,14.636,145.658,17.433c14.125,0.811,26.972,12.196,26.607,29.67
	l-22.008,139.902c-14.621,46.569,20.168,93.875,68.985,93.875c48.487-0.003,83.546-47.092,68.875-93.875l-7.794-49.548
	c-0.645-4.097-4.483-6.898-8.586-6.252c-4.098,0.645-6.897,4.488-6.253,8.586c8.394,53.364,7.874,50.384,8.155,51.252
	c12.324,38.167-17.394,76.999-57.803,74.718c-27.119-1.54-49.533-22.113-53.294-48.92c-2.106-15.009,2.173-25.092,2.462-26.938
	c30.568-194.324,20.158-129.001,38.658-243.237c3.705-22.876-7.45-44.089-28.42-54.043c-20.874-9.909-44.252-5.164-59.56,12.086
	c-21.393,24.11-33.675,55.021-36.569,91.97c-26.11-2.984-51.63-6.801-76.345-11.443c-0.975-0.183-1.67-1.134-1.582-2.164
	C47.161,106.972,131.732,23.199,239.048,15z M216.865,223.59l-3.221,22.293c-11.789-12.29-24.353-11.976-32.868-12.484
	c-15.941-0.949-30.373-2.114-45.063-3.544c9.3-13.722,20.137-25.395,32.316-34.797l0,0
	C189.702,178.33,220.787,196.46,216.865,223.59z M163.689,145.799c13.073-14.732,30.733-13.78,41.883-8.487
	c11.223,5.327,23.205,18.495,20.034,38.072l-2.621,16.182c-14.522-18.795-42.629-24.997-64.134-8.4l0,0
	c-9.026,6.967-17.361,15.048-24.953,24.151C138.851,183.198,148.804,162.574,163.689,145.799z"/>
<path d="M489.018,214.081c-4.465-55.263-28.627-107.316-68.033-146.573C381.568,28.24,329.404,4.276,274.099,0.03
	c-4.137-0.321-7.746,2.778-8.063,6.913c-0.317,4.136,2.777,7.746,6.912,8.063c107.815,8.278,192.388,92.51,201.097,200.284
	c0.033,0.415-0.237,0.795-0.617,0.867c-24.998,4.722-50.833,8.603-77.275,11.629c-2.897-36.943-15.177-67.85-36.569-91.958
	c-33.669-37.947-96.103-8.189-87.979,41.956c20.367,125.76,5.923,35.937,25.135,158.076c0.583,3.702,3.776,6.344,7.41,6.344
	c0.388,0,0.78-0.03,1.176-0.092c4.098-0.645,6.897-4.488,6.253-8.586c-9.068-57.649-8.462-53.377-8.575-55.534
	c-0.762-14.91,10.444-27.708,25.134-29.318c5.069-0.558,69.864-2.982,148.079-17.758
	C484.17,229.416,489.673,222.177,489.018,214.081z M310.038,239.034c-4.228,2.366-8.063,5.436-11.313,9.119l-3.55-24.564
	c-3.915-27.087,27.119-45.295,48.836-28.533c12.181,9.402,23.017,21.076,32.316,34.797
	C325.066,234.847,322.925,231.786,310.038,239.034z M353.19,183.167c-21.474-16.577-49.594-10.419-64.136,8.402l-2.621-16.184
	c-5.713-35.275,38.26-56.246,61.918-29.586c14.884,16.774,24.838,37.397,29.789,61.515
	C370.549,198.213,362.214,190.133,353.19,183.167z"/>
<g>
</g>
<g>
</g>
<g>
</g>
<g>
</g>
<g>
</g>
<g>
</g>
<g>
</g>
<g>
</g>
<g>
</g>
<g>
</g>
<g>
</g>
<g>
</g>
<g>
</g>
<g>
</g>
<g>
</g>
</svg>
