<?xml version="1.0" encoding="iso-8859-1"?>
<!-- Generator: Adobe Illustrator 19.0.0, SVG Export Plug-In . SVG Version: 6.00 Build 0)  -->
<svg version="1.1" id="Capa_1" xmlns="http://www.w3.org/2000/svg" xmlns:xlink="http://www.w3.org/1999/xlink" x="0px" y="0px"
	 viewBox="0 0 511.998 511.998" style="enable-background:new 0 0 511.998 511.998;" xml:space="preserve">
<path style="fill:#EFC797;" d="M339.823,147.132c-41.496-40.632-37.162-96.315-29.568-129.139c1.847-7.985-7.518-13.714-13.76-8.403
	l-36.257,30.851h-2.53L221.452,9.59c-6.242-5.311-15.607,0.418-13.76,8.403c7.594,32.824,11.928,88.507-29.568,129.139
	L339.823,147.132L339.823,147.132z"/>
<path style="fill:#E0B586;" d="M228.025,17.993c-0.239-1.032-0.287-2.026-0.182-2.964l-6.392-5.439
	c-6.242-5.311-15.607,0.418-13.76,8.403c7.594,32.824,11.928,88.507-29.568,129.139h20.333
	C239.953,106.5,235.619,50.817,228.025,17.993z"/>
<path style="fill:#F7E9A9;" d="M324.576,140.682L324.576,140.682c-49.37-37.549-62.472-88.028-65.794-107.515
	c-0.207-1.216-1.94-1.216-2.147,0c-3.322,19.487-16.424,69.965-65.794,107.515l0,0C233.315,122.01,282.004,121.967,324.576,140.682z
	"/>
<path style="fill:#EAD992;" d="M265.147,57.922c-3.477-10.248-5.368-18.904-6.365-24.754c-0.207-1.216-1.939-1.216-2.147,0
	c-3.322,19.487-16.424,69.965-65.794,107.515c8.301-3.649,16.841-6.577,25.524-8.802C243.798,107.397,257.926,79.207,265.147,57.922
	z"/>
<circle style="fill:#F7E9A9;" cx="257.71" cy="293.469" r="167.78"/>
<path style="fill:#EAD992;" d="M109.926,293.469c0-89.306,69.776-162.303,157.783-167.478c-3.31-0.195-6.642-0.305-10-0.305
	c-92.664,0-167.783,75.119-167.783,167.783s75.119,167.783,167.783,167.783c3.358,0,6.69-0.11,10-0.305
	C179.702,455.772,109.926,382.774,109.926,293.469z"/>
<ellipse style="fill:#EFC797;" cx="257.71" cy="293.469" rx="114.81" ry="167.78"/>
<g>
	<path style="fill:#E0B586;" d="M162.895,293.469c0-87.739,46.088-159.736,104.814-167.142c-3.296-0.416-6.63-0.641-10-0.641
		c-63.41,0-114.814,75.119-114.814,167.783s51.404,167.783,114.814,167.783c3.37,0,6.704-0.225,10-0.641
		C208.982,453.204,162.895,381.208,162.895,293.469z"/>
	<ellipse style="fill:#E0B586;" cx="257.71" cy="293.469" rx="51.99" ry="167.78"/>
</g>
<path style="fill:#CCA279;" d="M225.719,293.469c0-81.624,18.062-149.622,41.99-164.67c-3.237-2.035-6.579-3.113-10-3.113
	c-28.713,0-51.99,75.119-51.99,167.783s23.277,167.783,51.99,167.783c3.421,0,6.763-1.078,10-3.113
	C243.781,443.091,225.719,375.092,225.719,293.469z"/>
<path d="M81.17,293.468c0,81.528,55.949,150.233,131.468,169.739c-17.048,8.267-31.07,22.553-31.07,41.291
	c0,4.143,3.358,7.5,7.5,7.5s7.5-3.357,7.5-7.5c0-13.197,12.727-24.994,31.097-31.18c-4.695,8.549-7.466,19.325-7.466,31.18
	c0,4.143,3.358,7.5,7.5,7.5s7.5-3.357,7.5-7.5c0-19.377,9.733-35.747,21.253-35.747c11.521,0,21.253,16.37,21.253,35.747
	c0,4.143,3.358,7.5,7.5,7.5s7.5-3.357,7.5-7.5c0-11.855-2.771-22.631-7.466-31.18c18.37,6.186,31.097,17.983,31.097,31.18
	c0,4.143,3.358,7.5,7.5,7.5s7.5-3.357,7.5-7.5c0-18.674-13.923-32.976-31.069-41.291c70.317-18.113,122.94-78.329,130.521-151.466
	c0.427-4.12-2.567-7.807-6.687-8.233c-4.121-0.434-7.806,2.565-8.233,6.687c-5.933,57.245-41.251,104.638-90.14,127.957
	c70.589-69.608,70.717-219.632,0-289.367c49.532,23.626,84.28,71.418,90.14,127.957c0.427,4.12,4.108,7.118,8.233,6.687
	c4.12-0.427,7.114-4.113,6.687-8.233c-5.936-57.268-39.471-106.63-87.625-134.072c-38.835-38.685-33.525-92.628-26.858-121.44
	C319.78,4.66,302.121-6.118,290.377,3.879l-26.275,22.357c-0.118-1.005-0.164-1.574-0.168-1.63
	c-0.258-3.938-3.524-6.995-7.471-7.002c-0.005,0-0.009,0-0.014,0c-3.828,0-7.014,2.887-7.443,6.655l-23.95-20.38
	c-5.346-4.548-12.668-5.135-18.657-1.489c-6.002,3.651-8.856,10.439-7.271,17.294c6.505,28.116,11.723,80.162-24.114,118.609
	C119.268,167.668,81.17,226.198,81.17,293.468z M363.766,293.468c0,72.981-32.828,134.72-77.585,154.022
	c18.031-29.22,27.801-84.118,29.476-136.281c0.133-4.14-3.115-7.604-7.255-7.736c-4.156-0.145-7.604,3.115-7.737,7.256
	c-2.819,87.776-26.038,143.023-44.213,143.023c-18.578,0-44.49-60.978-44.49-160.283s25.912-160.283,44.49-160.283
	c18.103,0,41.385,54.971,44.213,143.023c0.133,4.141,3.579,7.408,7.737,7.256c4.14-0.133,7.388-3.597,7.255-7.736
	c-1.675-52.163-11.446-107.061-29.476-136.281C330.939,158.748,363.766,220.487,363.766,293.468z M301.24,15.204
	c0.62,0.377,0.511,0.847,0.453,1.099c-5.486,23.714-10.054,62.907,6.1,99.457c-24.76-25.918-35.662-54.515-40.379-72.644
	C302.734,13.061,300.308,14.64,301.24,15.204z M256.452,59.365c6.072,18.031,16.998,40.917,36.583,62.638
	c-22.962-4.884-48.357-5.276-73.165,0C239.455,100.282,250.38,77.396,256.452,59.365z M213.742,16.302
	c-0.059-0.252-0.167-0.722,0.453-1.099c0.599-0.36,0.938-0.074,1.14,0.099l30.606,26.042c-4.18,16.874-13.926,43.971-36.195,69.351
	C223.375,75.633,218.976,38.924,213.742,16.302z M226.818,139.405c-23.326,37.694-29.855,108.605-29.855,154.064
	c0,46.098,6.705,116.654,29.855,154.064c-44.806-19.255-77.68-81.031-77.68-154.064S182.012,158.66,226.818,139.405z M184.16,150.44
	c0.898-0.456,1.798-0.907,2.705-1.346c-36.57,36.302-52.727,92.644-52.727,144.374c0,51.822,16.216,108.13,52.727,144.374
	c-53.623-25.95-90.695-80.913-90.695-144.374c0-59.268,32.336-111.123,80.291-138.856
	C180.103,154.811,181.839,152.822,184.16,150.44z"/>
<g>
</g>
<g>
</g>
<g>
</g>
<g>
</g>
<g>
</g>
<g>
</g>
<g>
</g>
<g>
</g>
<g>
</g>
<g>
</g>
<g>
</g>
<g>
</g>
<g>
</g>
<g>
</g>
<g>
</g>
</svg>
