<?xml version="1.0" encoding="iso-8859-1"?>
<!-- Generator: Adobe Illustrator 19.0.0, SVG Export Plug-In . SVG Version: 6.00 Build 0)  -->
<svg version="1.1" id="Capa_1" xmlns="http://www.w3.org/2000/svg" xmlns:xlink="http://www.w3.org/1999/xlink" x="0px" y="0px"
	 viewBox="0 0 512.001 512.001" style="enable-background:new 0 0 512.001 512.001;" xml:space="preserve">
<path style="fill:#3BBC56;" d="M272.052,104.528c10.356-10.17,59.211-52.55,125.18-19.864c3.138,1.554,4.074,5.589,1.925,8.355
	c-13.354,17.18-60.706,66.986-128.21,14.341C271.324,106.413,271.69,105.47,272.052,104.528z"/>
<path style="fill:#30AA44;" d="M397.232,84.664c-1.964-0.973-3.913-1.876-5.846-2.719c-18.199,18.963-56.816,46.408-108.801,13.573
	c-4.911,3.711-8.481,6.994-10.534,9.009c-0.362,0.942-0.727,1.885-1.104,2.831c67.504,52.645,114.855,2.838,128.21-14.341
	C401.306,90.254,400.37,86.219,397.232,84.664z"/>
<path style="fill:#93603E;" d="M322.205,29.015L300.511,9.492c-3.47-3.123-8.904-2.465-11.504,1.412
	c-11.79,17.588-39.846,69.466-40.23,136.627h10.646c7.267-34.28,23.973-81.017,62.283-108.771
	C324.939,36.419,325.17,31.685,322.205,29.015z"/>
<path style="fill:#7F573C;" d="M305.294,20.676c1.05-1.566,2.567-2.598,4.226-3.077l-9.009-8.108
	c-3.47-3.123-8.904-2.465-11.504,1.412c-11.79,17.588-39.846,69.466-40.23,136.628h10.646c2.27-10.707,5.461-22.629,9.943-34.809
	C277.755,67.654,296.275,34.128,305.294,20.676z"/>
<path style="fill:#F7E9A9;" d="M323.98,215.191v-20.467c0-27.611-22.59-50.201-50.201-50.201h-42.372
	c-27.611,0-50.201,22.59-50.201,50.201v21.809c0,18.19-7.628,35.589-21.15,47.756c-28.314,25.476-46.06,62.465-45.859,103.599
	c0.373,76.333,63.475,138.461,139.805,137.699c75.786-0.756,136.988-62.426,136.988-138.391c0-40.254-17.187-76.492-44.622-101.779
	C332.281,252.432,323.98,234.351,323.98,215.191z"/>
<path style="fill:#EAD992;" d="M134.242,367.888c-0.2-41.134,17.545-78.123,45.859-103.599c13.522-12.166,21.15-29.566,21.15-47.756
	v-21.809c0-27.611,22.59-50.2,50.201-50.2h-20.045c-27.611,0-50.201,22.59-50.201,50.2v21.809c0,18.19-7.628,35.589-21.15,47.756
	c-28.314,25.475-46.06,62.465-45.859,103.599c0.373,76.333,63.475,138.461,139.805,137.699c2.903-0.029,5.783-0.158,8.641-0.364
	C191.533,500.059,134.597,440.384,134.242,367.888z"/>
<path d="M338.826,137.776c33.777-4.204,56.714-29.475,65.007-40.145c5.065-6.517,2.877-16.037-4.523-19.703
	c-45.254-22.424-83.177-11.556-107.279,1.778c22.884-34.876,37.777-31.716,38.497-45.283c0.221-4.185-1.438-8.193-4.552-10.997l0,0
	L304.281,3.904c-6.873-6.188-17.637-4.852-22.776,2.813c-11.897,17.747-39.021,65.093-41.337,130.29h-10.018
	c-31.825,0-57.717,25.892-57.717,57.717v21.809c0,16.128-6.802,31.497-18.662,42.168c-30.929,27.828-48.551,67.638-48.348,109.223
	c0.355,72.805,55.132,134.709,127.415,143.994c4.136,0.529,7.887-2.396,8.414-6.497c0.529-4.117-2.38-7.885-6.497-8.414
	c-64.842-8.33-113.979-63.854-114.297-129.156c-0.182-37.301,15.625-73.011,43.37-97.975c15.023-13.517,23.639-32.96,23.639-53.344
	v-21.809c0-23.535,19.148-42.683,42.683-42.683c19.414,0,23.63,0,42.372,0c23.535,0,42.684,19.148,42.684,42.683v20.467
	c0,20.898,9.043,41.219,24.811,55.753c21.631,19.938,36.048,46.836,40.597,75.74c0.645,4.101,4.494,6.904,8.594,6.257
	c4.101-0.645,6.902-4.493,6.257-8.594c-5.073-32.237-21.146-62.231-45.258-84.456c-12.689-11.696-19.967-27.988-19.967-44.7v-20.465
	c0-31.825-25.892-57.717-57.718-57.717h-4.892c1.458-5.753,3.229-11.777,5.358-17.925
	C292.924,132.719,315.17,140.72,338.826,137.776z M390.426,90.331c-29.348,35.865-68.641,44.508-110.057,15.58
	C296.493,91.858,336.967,65.11,390.426,90.331z M256.255,121.883c6.214-60.88,36.966-107.713,37.969-106.805l20.566,18.509
	C282.691,57.397,265.479,91.828,256.255,121.883z"/>
<path d="M389.803,373.112c-4.128-0.393-7.803,2.631-8.201,6.764c-5.791,60.282-53.597,109.552-113.672,117.15
	c-4.118,0.521-7.035,4.283-6.515,8.401c0.518,4.098,4.255,7.035,8.401,6.515c67.179-8.498,120.233-62.798,126.75-130.627
	C396.964,377.181,393.936,373.509,389.803,373.112z"/>
<g>
</g>
<g>
</g>
<g>
</g>
<g>
</g>
<g>
</g>
<g>
</g>
<g>
</g>
<g>
</g>
<g>
</g>
<g>
</g>
<g>
</g>
<g>
</g>
<g>
</g>
<g>
</g>
<g>
</g>
</svg>
