<?xml version="1.0" encoding="iso-8859-1"?>
<!-- Generator: Adobe Illustrator 19.0.0, SVG Export Plug-In . SVG Version: 6.00 Build 0)  -->
<svg version="1.1" id="Capa_1" xmlns="http://www.w3.org/2000/svg" xmlns:xlink="http://www.w3.org/1999/xlink" x="0px" y="0px"
	 viewBox="0 0 512.002 512.002" style="enable-background:new 0 0 512.002 512.002;" xml:space="preserve">
<path style="fill:#3BBC56;" d="M29.019,338.714c-11.776-1.762-18.021,13.56-8.21,20.307c39.249,26.996,86.791,42.802,138.029,42.802
	c137.733,0,248.797-114.159,243.726-252.99C337.816,278.627,175.022,360.558,29.019,338.714z"/>
<path style="fill:#30AA44;" d="M40.604,355.903c136.693,20.451,288.099-50.062,359.988-165.653
	c1.785-13.491,2.487-27.324,1.972-41.417c-64.748,129.795-227.541,211.725-373.544,189.88c-11.776-1.762-18.021,13.56-8.21,20.307
	c2.389,1.643,4.809,3.242,7.258,4.801C29.587,358.912,34.302,354.96,40.604,355.903z"/>
<path style="fill:#3BBC56;" d="M269.932,483.565c-10.196,6.149-5.24,21.934,6.618,20.88c47.45-4.22,94.155-22.348,133.633-55.011
	c106.12-87.8,118.92-246.556,26.513-350.29C469.55,240.424,396.349,407.324,269.932,483.565z"/>
<path style="fill:#30AA44;" d="M290.582,488.948c117.733-71.005,189.292-220.639,172.032-354.98
	c-7.462-12.128-16.09-23.788-25.918-34.822c32.854,141.279-40.347,308.179-166.765,384.421c-10.196,6.149-5.24,21.934,6.618,20.88
	c3.197-0.284,6.39-0.637,9.58-1.048C283.962,498.594,284.986,492.322,290.582,488.948z"/>
<g>
	<circle style="fill:#9BE0A3;" cx="124.908" cy="368.73" r="12.75"/>
	<circle style="fill:#9BE0A3;" cx="189.661" cy="362.26" r="18.171"/>
</g>
<path style="fill:#30AA44;" d="M75.812,366.065c0-9.694,4.463-18.341,11.443-24.011c-19.923,0.601-39.433-0.528-58.235-3.341
	c-11.776-1.762-18.021,13.56-8.21,20.307c20.86,14.348,44.063,25.534,68.919,32.868C81.346,386.356,75.812,376.859,75.812,366.065z"
	/>
<path style="fill:#269E35;" d="M20.809,359.02c1.234,0.848,2.477,1.684,3.726,2.51c0.628,0.415,1.263,0.82,1.895,1.23
	c0.545,0.353,1.089,0.708,1.638,1.057c1.522-4.908,6.235-8.856,12.536-7.914c11.903,1.781,23.917,2.856,35.981,3.288
	c1.558-6.856,5.391-12.848,10.668-17.135c-14.582,0.441-29.147-0.039-43.586-1.512c-0.156-0.016-0.313-0.028-0.468-0.044
	c-2.093-0.217-4.182-0.459-6.27-0.717c-0.293-0.036-0.59-0.065-0.883-0.102c-2.335-0.295-4.666-0.615-6.993-0.963
	c-0.01-0.002-0.021-0.003-0.031-0.004c-0.736-0.11-1.45-0.154-2.14-0.136c-6.556,0.162-10.932,5.781-10.923,11.488
	c0.001,0.601,0.051,1.202,0.151,1.798c0.101,0.596,0.253,1.187,0.458,1.767c0.103,0.29,0.219,0.576,0.349,0.86
	C17.695,356.188,18.97,357.755,20.809,359.02z"/>
<g>
	<circle style="fill:#9BE0A3;" cx="250.795" cy="340.199" r="18.624"/>
	<circle style="fill:#9BE0A3;" cx="305.158" cy="307.207" r="16.408"/>
</g>
<path style="fill:#30AA44;" d="M389.552,237.223c9.709-28.248,14.123-57.954,13.012-88.39
	c-11.851,23.757-27.43,46.638-46.301,67.875C371.349,212.866,386.311,222.405,389.552,237.223z"/>
<path style="fill:#269E35;" d="M402.715,157.35c-0.002-1.029,0.001-2.056-0.014-3.088c-0.027-1.774-0.07-3.551-0.134-5.33
	c-0.001-0.033-0.001-0.065-0.003-0.098c-0.892,1.788-1.812,3.569-2.746,5.347c-0.323,0.614-0.65,1.225-0.977,1.837
	c-0.61,1.141-1.229,2.279-1.856,3.416c-0.413,0.75-0.825,1.5-1.245,2.245c-0.52,0.923-1.053,1.843-1.584,2.763
	c-1.103,1.912-2.227,3.813-3.373,5.701c-0.169,0.279-0.335,0.558-0.505,0.836c-0.837,1.37-1.688,2.733-2.547,4.09
	c-0.035,0.054-0.069,0.109-0.104,0.163c-9.239,14.578-19.73,28.435-31.312,41.461c8.149-2.059,16.256-0.211,22.497,4.258
	c7.881-9.831,15.17-20.075,21.78-30.704c0.892-6.743,1.514-13.573,1.848-20.476c0-0.009,0.001-0.018,0.001-0.027
	c0.081-1.668,0.143-3.342,0.19-5.019c0.008-0.31,0.011-0.621,0.019-0.932c0.034-1.41,0.061-2.821,0.071-4.237
	C402.725,158.823,402.717,158.086,402.715,157.35z"/>
<g>
	<circle style="fill:#83CC8E;" cx="343.13" cy="270.255" r="11.051"/>
	<path style="fill:#83CC8E;" d="M132.163,368.734c0-2.983,1.032-5.72,2.749-7.892c-2.335-2.954-5.942-4.857-10.001-4.857
		c-7.041,0-12.75,5.708-12.75,12.75c0,7.041,5.708,12.75,12.75,12.75c4.058,0,7.665-1.902,10.001-4.857
		C133.195,374.454,132.163,371.717,132.163,368.734z"/>
	<path style="fill:#83CC8E;" d="M191.487,362.261c0-6.341,3.252-11.917,8.174-15.169c-2.87-1.896-6.304-3.006-10.001-3.006
		c-10.038,0-18.175,8.137-18.175,18.175c0,10.038,8.137,18.175,18.175,18.175c3.696,0,7.13-1.11,10.001-3.006
		C194.74,374.177,191.487,368.601,191.487,362.261z"/>
	<path style="fill:#83CC8E;" d="M252.17,340.198c0-6.601,3.444-12.387,8.623-15.694c-2.891-1.846-6.316-2.93-10.001-2.93
		c-10.286,0-18.624,8.338-18.624,18.624c0,10.286,8.338,18.624,18.624,18.624c3.684,0,7.109-1.084,10.001-2.93
		C255.613,352.584,252.17,346.799,252.17,340.198z"/>
	<path style="fill:#83CC8E;" d="M308.752,307.202c0-5.293,2.517-9.987,6.407-12.987c-2.77-2.136-6.231-3.42-10.001-3.42
		c-9.061,0-16.408,7.346-16.408,16.408c0,9.062,7.345,16.408,16.408,16.408c3.769,0,7.23-1.284,10.001-3.42
		C311.268,317.189,308.752,312.495,308.752,307.202z"/>
</g>
<path d="M103.405,368.734c0,11.166,9.083,20.25,20.25,20.25c11.166,0,20.25-9.085,20.25-20.25s-9.083-20.249-20.25-20.249
	C112.489,348.485,103.405,357.569,103.405,368.734z M128.904,368.734c0,2.895-2.354,5.249-5.249,5.249
	c-2.895,0-5.249-2.354-5.249-5.249c0-2.894,2.354-5.248,5.249-5.248S128.904,365.84,128.904,368.734z"/>
<path d="M214.08,362.261c0-14.157-11.518-25.675-25.675-25.675c-14.157,0-25.674,11.519-25.674,25.675s11.518,25.675,25.674,25.675
	C202.562,387.936,214.08,376.418,214.08,362.261z M177.731,362.261c0-5.886,4.788-10.675,10.674-10.675
	c5.886,0,10.675,4.788,10.675,10.675c0,5.886-4.788,10.675-10.675,10.675C182.519,372.935,177.731,368.147,177.731,362.261z"/>
<path d="M275.661,340.198c0-14.406-11.72-26.125-26.125-26.125c-14.405,0-26.124,11.72-26.124,26.125
	c0,14.405,11.72,26.124,26.124,26.124C263.941,366.322,275.661,354.603,275.661,340.198z M238.412,340.198
	c0-6.134,4.99-11.125,11.124-11.125c6.134,0,11.125,4.99,11.125,11.125c0,6.133-4.99,11.124-11.125,11.124
	C243.402,351.321,238.412,346.331,238.412,340.198z"/>
<path d="M303.902,283.294c-13.184,0-23.908,10.726-23.908,23.908c0,13.183,10.726,23.907,23.908,23.907
	c13.183,0,23.907-10.726,23.907-23.907C327.81,294.019,317.084,283.294,303.902,283.294z M303.902,316.109
	c-4.911,0-8.908-3.995-8.908-8.906c0-4.911,3.996-8.908,8.908-8.908c4.911,0,8.906,3.996,8.906,8.908
	C312.808,312.114,308.813,316.109,303.902,316.109z"/>
<path d="M341.878,288.804c10.23,0,18.553-8.322,18.553-18.554c0-10.23-8.322-18.553-18.553-18.553
	c-10.231,0-18.553,8.322-18.553,18.553C323.325,280.481,331.647,288.804,341.878,288.804z M345.43,270.25
	c0,4.693-7.104,4.696-7.104,0C338.325,265.557,345.43,265.556,345.43,270.25z"/>
<path d="M497.314,265.327c4.19,0,7.561-3.427,7.501-7.608c-0.87-60.323-23.223-117.61-62.675-162.319
	c-3.734-8.24-17.092-31.858-31.555-49.029c-1.286-12.508-3.141-25.945-5.747-40.217c-0.744-4.076-4.653-6.77-8.725-6.031
	c-4.075,0.744-6.775,4.65-6.031,8.725c14.057,76.997,5.436,129.999,4.061,137.52c-64.138,127.466-224.079,206.045-365.27,184.929
	c-19.693-2.945-29.879,22.688-13.571,33.903c38.257,26.315,82.212,40.907,126.64,43.637c0.157,0.009,0.312,0.014,0.467,0.014
	c3.932,0,7.235-3.063,7.479-7.04c0.254-4.135-2.892-7.691-7.026-7.946c-17.409-1.069-34.566-4.064-51.17-8.876
	c-11.695-8.532-12.939-25.461-2.651-35.591c100.498-3.963,201.868-50.444,269.921-125.826c9.608-1.358,18.391,4.48,21.368,13.053
	c-30.527,85.376-109.087,149.322-203.527,156.92c-4.129,0.332-7.207,3.948-6.875,8.077c0.333,4.129,3.963,7.206,8.077,6.874
	c133.29-10.721,235.414-124.674,230.828-259.045c1.041-5.408,5.71-32.536,3.824-75.081c4.777,7.183,10.205,16.147,15.507,26.608
	c32.917,141.852-43.182,303.689-163.362,376.169c-17.047,10.283-8.56,36.528,11.157,34.773
	c101.364-9.014,186.949-78.571,217.2-174.601c0.027-0.08,0.067-0.151,0.092-0.232c0.029-0.096,0.047-0.193,0.072-0.29
	c4.352-13.924,7.531-28.298,9.434-43.003c0.53-4.108-2.369-7.869-6.477-8.4c-4.106-0.531-7.869,2.368-8.4,6.477
	c-1.481,11.457-3.785,22.7-6.856,33.666l-12.756-3.872c-3.967-1.206-8.151,1.034-9.356,4.998c-1.203,3.964,1.034,8.152,4.998,9.356
	l12.612,3.829c-14.996,42.847-42.096,80.639-78.846,108.976l-12.639-10.428c-3.196-2.637-7.921-2.183-10.56,1.012
	c-2.636,3.195-2.183,7.923,1.012,10.56l9.601,7.921c-32.922,22.132-70.676,35.553-110.458,39.091
	c-3.965,0.367-5.504-4.921-2.081-6.985c47.042-28.371,88.6-70.502,119.675-120.772c9.977,6.266,10.562,7.018,13.328,7.018
	c7.471,0,10.376-9.846,3.996-13.854l-9.679-6.078c17.976-31.697,32.217-66.854,40.978-103.862
	c12.348,3.245,11.954,3.226,13.244,3.226c8.716,0,10.367-12.532,1.901-14.757l-11.985-3.15c7.128-36.561,8.852-73.96,4.126-110.415
	c26.655,38.477,40.997,83.222,41.682,130.588C489.876,262.039,493.222,265.327,497.314,265.327z M68.633,376.983
	c-15.268-6.2-30.366-14.194-44.83-24.142c-3.319-2.282-1.079-7.315,2.9-6.701c13.616,2.035,28.824,3.319,44.009,3.537
	C66.628,358.334,66.009,368.104,68.633,376.983z M386.029,218.366c-4.192-4.109-9.396-7.157-15.129-8.749
	c8.074-9.976,15.475-20.282,22.167-30.895C391.859,192.27,389.472,205.517,386.029,218.366z"/>
<g>
</g>
<g>
</g>
<g>
</g>
<g>
</g>
<g>
</g>
<g>
</g>
<g>
</g>
<g>
</g>
<g>
</g>
<g>
</g>
<g>
</g>
<g>
</g>
<g>
</g>
<g>
</g>
<g>
</g>
</svg>
