<?xml version="1.0" encoding="iso-8859-1"?>
<!-- Generator: Adobe Illustrator 19.0.0, SVG Export Plug-In . SVG Version: 6.00 Build 0)  -->
<svg version="1.1" id="Capa_1" xmlns="http://www.w3.org/2000/svg" xmlns:xlink="http://www.w3.org/1999/xlink" x="0px" y="0px"
	 viewBox="0 0 511.998 511.998" style="enable-background:new 0 0 511.998 511.998;" xml:space="preserve">
<path style="fill:#93603E;" d="M276.165,138.714c13.323-30.684,33.676-63.171,64.784-85.708c4.284-3.103,4.592-9.378,0.66-12.917
	l-28.754-25.878c-4.599-4.139-11.803-3.268-15.248,1.872c-12.077,18.016-37.019,62.818-47.97,122.415
	C272.586,138.499,271.944,138.442,276.165,138.714z"/>
<path style="fill:#7F573C;" d="M277.229,136.299c11.82-53.992,34.405-94.345,45.713-111.215c0.253-0.377,0.531-0.724,0.822-1.055
	l-10.909-9.818c-4.599-4.139-11.803-3.268-15.248,1.872c-12.077,18.017-37.019,62.818-47.97,122.415
	c22.948,0,22.307-0.057,26.528,0.215C276.514,137.91,276.87,137.104,277.229,136.299z"/>
<path style="fill:#F7991E;" d="M399.892,156.814c21.411,17.082,35.208,43.357,35.208,72.712v177.757
	c0,29.357-13.797,55.631-35.208,72.712c62.358,5.645,105.862-40.833,105.862-92.629V249.443
	C505.756,197.883,462.515,151.144,399.892,156.814z"/>
<path style="fill:#EA8B18;" d="M457.147,409.106v-181.4c0-27.741-12.079-52.779-31.215-70.175
	c-8.221-1.249-16.923-1.541-26.04-0.716c21.411,17.082,35.208,43.357,35.208,72.712v177.757c0,29.357-13.797,55.631-35.208,72.712
	c9.113,0.825,17.819,0.529,26.051-0.726C445.073,461.876,457.147,436.841,457.147,409.106z"/>
<path style="fill:#F7991E;" d="M82.412,407.285V229.527c0-29.356,13.797-55.631,35.208-72.712
	c-5.218-0.472-7.923-0.399-13.393-0.399h-2.442c-51.165,0-93.028,41.863-93.028,93.028v137.925
	c0,51.166,41.863,93.029,93.028,93.029h2.442c5.468,0,8.175,0.073,13.393-0.399C96.208,462.916,82.412,436.64,82.412,407.285z"/>
<path style="fill:#EA8B18;" d="M28.758,387.368V249.443c0-49.03,38.442-89.51,86.672-92.805c-3.897-0.275-6.553-0.223-11.205-0.223
	h-2.442c-51.165,0-93.028,41.863-93.028,93.028v137.925c0,51.166,41.863,93.029,93.028,93.029h2.442
	c4.649,0,7.306,0.051,11.204-0.223C67.199,476.879,28.758,436.398,28.758,387.368z"/>
<path style="fill:#F7991E;" d="M342.074,136.499c-28.011,0-32.909-0.4-43.985,1.851c35.972,7.863,63.123,40.056,63.123,78.299v12.87
	c0,0.003,0,0.006,0,0.008c0,7.694,0,182.955,0,190.636c0,38.242-27.15,70.435-63.122,78.299c11.168,2.27,15.855,1.851,45.984,1.851
	c51.165,0,93.028-41.863,93.028-93.028V229.527C437.101,180.906,398.53,136.499,342.074,136.499z"/>
<path style="fill:#EA8B18;" d="M298.089,498.461c9.209,1.872,14.025,1.915,32.318,1.873c31.936-11.307,54.98-41.85,54.98-77.534
	c0-7.878,0-187.684,0-195.578c0-0.003,0-0.006,0-0.009v-13.203c0-35.679-23.038-66.22-54.968-77.53
	c-18.055-0.042-23.003-0.027-32.33,1.869c35.972,7.863,63.123,40.056,63.123,78.299v12.87c0,0.003,0,0.006,0,0.008
	c0,7.694,0,182.955,0,190.636C361.211,458.405,334.061,490.598,298.089,498.461z"/>
<path style="fill:#F7991E;" d="M167.539,420.162v-6.511c-0.595-8.682,0-195.987,0-197.002c0-38.201,27.093-70.364,63.007-78.272
	c-11.773-2.41-15.109-1.878-60.108-1.878c-51.165,0-93.028,41.863-93.028,93.029v177.757c0,51.165,41.863,93.028,93.028,93.028
	c45.182,0,48.607,0.476,60.108-1.878C194.631,490.527,167.539,458.364,167.539,420.162z"/>
<path style="fill:#EA8B18;" d="M190.44,500.312c-51.165,0-93.028-41.863-93.028-93.028V229.527
	c0-51.165,41.863-93.029,93.028-93.029c7.008,0,13.005-0.013,18.181-0.026c-7.907-0.067-19.423,0.026-38.182,0.026
	c-51.165,0-93.028,41.863-93.028,93.029v177.757c0,51.165,41.863,93.028,93.028,93.028c17.789,0,29.103,0.074,36.987,0.02
	C202.521,500.322,196.911,500.312,190.44,500.312z"/>
<path style="fill:#F7991E;" d="M283.061,136.499h-51.373c-44.083,0-80.15,36.067-80.15,80.15v203.513
	c0,44.083,36.067,80.15,80.15,80.15h51.373c44.083,0,80.15-36.067,80.15-80.15V216.649
	C363.211,172.566,327.144,136.499,283.061,136.499z"/>
<path style="fill:#EA8B18;" d="M171.539,420.162V216.649c0-44.083,36.067-80.15,80.15-80.15h-20.001
	c-44.083,0-80.15,36.067-80.15,80.15v203.513c0,44.083,36.067,80.15,80.15,80.15h20.001
	C207.608,500.312,171.539,464.245,171.539,420.162z"/>
<path d="M411.471,148.915h-2.442c-1.941,0-3.913,0.069-5.953,0.196c-30.275-22.743-57.015-20.112-85.876-20.112
	c-6.093,0-12.218,0.573-18.231,1.692c-3.999-0.797-8.094-1.322-12.268-1.553c14.478-29.376,33.737-52.92,57.39-70.056
	c3.877-2.809,6.246-7.165,6.5-11.952c0.254-4.802-1.65-9.4-5.223-12.614L316.616,8.635c-3.817-3.435-8.931-5.042-14.022-4.408
	c-5.079,0.632-9.626,3.432-12.475,7.681c-9.366,13.972-23.868,38.694-35.595,72.245c-0.07,0.147-0.144,0.293-0.205,0.446
	c-1.596,3.993-3.808,7.719-6.577,11.074c-5.417,6.566-13.069,10.631-21.543,11.442c-8.469,0.814-16.757-1.724-23.323-7.143
	c-4.944-4.079-8.003-9.84-8.616-16.221c-0.611-6.38,1.298-12.617,5.377-17.561c2.636-3.195,2.183-7.922-1.012-10.56
	c-3.196-2.638-7.924-2.183-10.56,1.012c-6.629,8.034-9.733,18.17-8.74,28.54c0.994,10.369,5.965,19.73,14.001,26.36
	c8.477,6.994,18.897,10.724,29.747,10.724c1.511,0,3.031-0.072,4.555-0.219c6.124-0.586,11.952-2.333,17.245-5.099
	c-0.947,3.935-1.848,7.944-2.68,12.049c-11.922,0-18.67-0.369-29.049,1.715c-11.335-2.123-16.437-1.715-43.965-1.715
	c-22.586,0-43.456,7.489-60.259,20.112C46.35,145.207,0,193.617,0,249.443v137.925c0,55.796,46.323,104.238,108.924,100.333
	c30.275,22.743,57.014,20.112,85.876,20.112c6.127,0,12.291-0.581,18.347-1.715c9.761,1.96,16.107,1.715,25.471,1.715
	c4.142,0,7.5-3.357,7.5-7.5s-3.358-7.5-7.5-7.5h-8.186c-5.176,0-10.201-0.53-15.531-1.702c-31.595-6.956-55.463-34.735-57.032-67.54
	c-0.122-2.623-0.214-207.455,0.111-212.003c0.07-1,0.145-2.179,0.459-4.541C163.216,171.952,193.493,144,230.431,144
	c59.877,0,58.107-0.224,66.799,1.679c30.757,6.723,53.01,32.641,56.647,61.981c0.817,6.428,0.576-8.186,0.576,199.634v12.87
	c0,1.144-0.034,2.281-0.087,3.412c-0.026,0.553-0.071,1.103-0.11,1.654c-0.037,0.53-0.073,1.06-0.121,1.587
	c-0.073,0.782-0.16,1.561-0.259,2.337c-0.028,0.223-0.055,0.445-0.085,0.667c-4.063,29.756-26.598,54.763-56.562,61.314
	c-0.146,0.032-0.286,0.074-0.428,0.113c-8.714,1.836-14.301,1.565-23.183,1.565c-4.142,0-7.5,3.357-7.5,7.5s3.358,7.5,7.5,7.5h8.185
	c5.873,0,11.612-0.585,17.164-1.692c11.177,2.079,16.071,1.692,43.849,1.692c22.586,0,43.456-7.489,60.259-20.112
	c62.561,3.903,108.924-44.492,108.924-100.333v-58.958c0-4.143-3.358-7.5-7.5-7.5s-7.5,3.357-7.5,7.5v58.958
	c0,44.55-34.238,81.251-77.783,85.178c13.266-15.507,21.891-35.07,23.746-56.545c0.569-6.59,0.382,6.275,0.382-186.474
	c0-23.733-8.364-46.833-24.129-65.262c43.545,3.927,77.783,40.628,77.783,85.178v43.966c0,4.143,3.358,7.5,7.5,7.5
	s7.5-3.357,7.5-7.5v-43.966C512,194.011,466.903,148.915,411.471,148.915z M15.001,387.368V249.443
	c0-44.55,34.238-81.251,77.783-85.178c-15.594,18.228-24.129,41.254-24.129,65.262c0,192.473-0.164,180.598,0.435,187.064
	c1.933,20.957,10.362,40.37,23.694,55.956C49.239,468.619,15.001,431.918,15.001,387.368z M142.824,214.046
	c0,0.001-0.28,15.48-0.28,15.481c0,193.246,0.238,190.636,0.238,190.636c0,30.086,15.274,56.828,38.662,72.65h-12.261
	c-47.228,0-85.527-38.655-85.527-85.527c0-189.83-2.789-189.832,7.504-212.724c9.331-20.666,23.868-30.813,25.517-32.474
	C141.954,142.364,166.14,144,181.445,144C157.833,159.972,143.665,186.062,142.824,214.046z M257.516,128.999
	c11.682-54.742,35.147-93.944,45.065-108.738c0.582-0.868,1.418-1.091,1.865-1.146c0.458-0.055,1.338-0.044,2.135,0.672
	l28.754,25.88c0.198,0.179,0.292,0.404,0.277,0.671c-0.02,0.379-0.246,0.542-0.321,0.597c-27.399,19.85-49.301,47.443-65.155,82.066
	C265.5,128.999,262.814,128.999,257.516,128.999z M428.242,225.487c0.047,1,0.787,183.449-0.829,194.37
	c-5.151,34.707-28.94,51.694-32.09,54.868c-25.322,19.759-49.631,18.088-64.53,18.088c21.846-14.779,36.696-39.144,38.475-67.007
	c0.006-0.086,0.011-0.171,0.016-0.257c0.046-0.748,0.082-1.499,0.108-2.252c0.006-0.177,0.015-0.355,0.02-0.532
	c0.025-0.865,0.042-1.731,0.042-2.602v-12.792c0-0.029,0-0.058,0-0.086c0-202.646,0.082-192.179-0.187-196.279
	c-1.779-27.863-16.629-52.228-38.475-67.007h12.024C388.636,144,426.12,180.426,428.242,225.487z"/>
<g>
</g>
<g>
</g>
<g>
</g>
<g>
</g>
<g>
</g>
<g>
</g>
<g>
</g>
<g>
</g>
<g>
</g>
<g>
</g>
<g>
</g>
<g>
</g>
<g>
</g>
<g>
</g>
<g>
</g>
</svg>
