<?xml version="1.0" encoding="iso-8859-1"?>
<!-- Generator: Adobe Illustrator 19.0.0, SVG Export Plug-In . SVG Version: 6.00 Build 0)  -->
<svg version="1.1" id="Capa_1" xmlns="http://www.w3.org/2000/svg" xmlns:xlink="http://www.w3.org/1999/xlink" x="0px" y="0px"
	 viewBox="0 0 512.001 512.001" style="enable-background:new 0 0 512.001 512.001;" xml:space="preserve">
<path style="fill:#30AA44;" d="M261.757,272.625c3.413-0.62,6.901-1.013,10.449-1.16c-11.616-39.722-32.513-49.733-23.353-85.671
	c8.378-32.874-6.946-47.619-16.008-53.242c-3.279-2.035-4.89-5.94-4.152-9.728c6.571-33.721-24.7-62.382-52.822-51.27
	c-22.937,9.063-23.348,29.216-22.273,38.192c0.353,2.95-0.192,5.941-1.583,8.566c-14.484,27.33,4.613,44.689,14.662,51.47
	c2.606,1.759,3.53,5.07,2.468,8.029c-2.608,7.267-1.027,22.377,38.49,42.377C233.7,233.381,250.845,255.157,261.757,272.625z"/>
<path style="fill:#269E35;" d="M228.543,220.188c-39.517-19.998-41.098-35.11-38.49-42.377c1.062-2.959,0.138-6.271-2.468-8.029
	c-10.05-6.781-29.147-24.14-14.662-51.47c1.391-2.625,1.937-5.616,1.583-8.566c-1.075-8.976-0.664-29.129,22.273-38.192
	c0.766-0.303,1.534-0.57,2.304-0.815c-7.399-2.285-15.427-2.262-23.213,0.815c-22.937,9.063-23.348,29.216-22.273,38.192
	c0.353,2.95-0.192,5.941-1.583,8.566c-14.483,27.33,4.613,44.689,14.662,51.47c2.606,1.759,3.53,5.07,2.468,8.029
	c-2.608,7.267-1.027,22.377,38.49,42.377c26.068,13.192,43.213,34.969,54.124,52.437c3.413-0.62,6.901-1.013,10.449-1.16
	c-3.026-10.346-6.68-18.667-10.27-25.965C252.901,235.966,241.9,226.948,228.543,220.188z"/>
<path style="fill:#3BBC56;" d="M356.062,202.158c-19.815-14.531-49.639,24.605-67.187,52.059
	c21.298-48.193,4.385-69.957,38.086-97.001c28.966-23.244,25.265-46.229,21.038-57.113c-1.53-3.939-0.368-8.415,2.771-11.243
	c27.944-25.174,19.45-70.829-12.464-79.618c-26.032-7.168-39.655,10.191-44.622,18.751c-1.632,2.813-4.078,5.071-7.023,6.451
	c-30.659,14.376-25.379,42.13-21.049,54.678c1.122,3.253-0.249,6.759-3.126,8.649c-7.064,4.64-15.627,18.9,5.78,62.404
	c21.564,43.825,14.832,89.37,8.987,111.252c5.545,0.126,10.941,0.842,16.137,2.08C337.023,255.756,384.637,223.112,356.062,202.158z
	"/>
<path style="fill:#30AA44;" d="M297.252,271.427c2.418-9.053,4.982-22.162,5.637-37.518c-5.151,6.851-9.917,13.897-14.014,20.306
	c8.626-19.519,10.984-34.703,12.975-47.658c-1.817-14.914-5.896-30.756-13.585-46.384c-21.406-43.504-12.844-57.764-5.78-62.404
	c2.876-1.889,4.248-5.395,3.126-8.649c-4.328-12.547-9.609-40.302,21.049-54.678c2.945-1.381,5.391-3.638,7.023-6.451
	c3.36-5.79,10.687-15.596,23.128-19.124c-25.054-6.107-38.258,10.73-43.129,19.124c-1.632,2.813-4.078,5.071-7.023,6.451
	c-30.659,14.375-25.378,42.131-21.049,54.678c1.122,3.254-0.249,6.759-3.126,8.649c-7.064,4.64-15.627,18.9,5.78,62.404
	c21.564,43.825,14.832,89.37,8.987,111.252c5.545,0.126,10.941,0.842,16.137,2.08c1.613-0.656,3.232-1.335,4.853-2.031
	C297.91,271.464,297.584,271.435,297.252,271.427z"/>
<path style="fill:#E5E1E1;" d="M352.531,346.458c0-43.564-36.146-78.685-80.083-77.009c-67.472,2.574-99.457,85.874-50.104,132.823
	c22.588,21.488,38.848,48.756,45.525,79.21l4.508,20.56c0.726,3.311,5.447,3.311,6.173,0c5.032-22.95,11.048-64.187,48.844-98.662
	C342.839,389.294,352.531,369.011,352.531,346.458z"/>
<path style="fill:#BABABA;" d="M242.618,402.272c-47.556-45.24-19.583-124.218,42.885-132.214
	c-4.254-0.554-8.611-0.778-13.054-0.609c-67.472,2.574-99.457,85.874-50.105,132.823c22.588,21.488,38.848,48.756,45.525,79.21
	l4.508,20.56c0.726,3.311,5.448,3.311,6.173,0c1.785-8.138,3.7-18.581,7.105-30.202
	C277.897,445.276,262.794,421.464,242.618,402.272z"/>
<path style="fill:#E0B377;" d="M272.449,269.449c-14.942,0.57-28.843,5.486-40.473,13.501c11.63,8.014,25.531,12.93,40.473,13.501
	c17.35,0.662,33.474-4.432,46.648-13.501C305.922,273.881,289.799,268.788,272.449,269.449z"/>
<path style="fill:#CC9A5E;" d="M285.503,270.058c-4.224-0.55-8.551-0.773-12.961-0.61c-0.031,0.001-0.062,0-0.094,0.002
	c-0.054,0.002-0.107,0.007-0.161,0.009c-0.9,0.036-1.792,0.089-2.678,0.153c-13.863,1.047-26.744,5.833-37.634,13.338
	c3.688,2.541,7.605,4.768,11.709,6.646C254.656,279.364,268.854,272.189,285.503,270.058z"/>
<path style="fill:#BABABA;" d="M277.621,383.109c-0.23,0.037-0.461,0.074-0.692,0.11"/>
<path d="M160.7,175.642c-3.98,11.701,0.284,29.98,42.29,51.238c17.797,9.007,33.001,22.141,45.323,39.097
	c-61.014,19.75-78.762,97.617-32.394,141.729c37.388,35.567,42.396,70.949,47.877,95.941c2.442,11.14,18.384,11.136,20.825,0.001
	c5.169-23.568,10.738-62.042,46.571-94.727c43.432-39.611,34.344-111.167-18.987-138.064c24.081-11.452,55.976-30.437,58.593-51.566
	c0.762-6.151-0.625-15.166-11.556-23.182c-17.613-12.916-38.018,3.382-52.521,19.642c3.915-22.958,3.375-36.396,23.677-52.687
	c24.358-19.547,27.826-39.502,26.444-52.799c-0.429-4.121-4.105-7.116-8.235-6.685c-4.12,0.428-7.112,4.115-6.685,8.235
	c1.449,13.945-5.587,27.252-20.912,39.55c-29.414,23.604-24.382,44.831-31.715,74.831c0.096-20.81-3.589-45.012-15.557-69.334
	c-15.995-32.505-14.822-48.6-8.394-52.824c5.804-3.811,8.312-10.95,6.1-17.364c-5.067-14.687-6.206-34.492,17.143-45.441
	c4.337-2.033,7.908-5.31,10.326-9.477c5.762-9.927,16.705-20.638,36.145-15.285c22.238,6.124,30.327,34.584,18.253,55.867
	c-2.044,3.603-0.78,8.18,2.823,10.224c3.601,2.044,8.18,0.78,10.224-2.823c8.716-15.364,9.967-34.068,3.349-50.03
	c-14.389-34.707-62.509-42.111-83.767-5.482c-0.877,1.511-2.164,2.696-3.722,3.426c-25.29,11.858-34.632,35.688-25.007,63.763
	c-1.72,1.907-20.458,10.21-5.593,51.875c-4.895-9.059-11.737-14.419-16.077-17.112c-0.598-0.371-0.896-1.143-0.745-1.921
	c3.776-19.378-3.188-39.155-18.174-51.611c-31.015-25.782-76.679-3.343-71.73,37.991c0.174,1.452-0.091,2.891-0.764,4.161
	C132.083,137.53,138.282,160.232,160.7,175.642z M285.584,261.437c3.12,0.882,6.541-0.346,8.354-3.181
	c10.173-15.914,41.454-61.031,56.433-50.05c6.128,4.494,5.701,7.944,5.54,9.243c-1.506,12.168-27.867,31.03-64.41,46.209
	c-1-0.208-3.709-0.711-6.165-1.033C285.419,262.232,285.502,261.837,285.584,261.437z M302.613,282.944
	c-4.084,1.828-8.345,3.257-12.752,4.274c-4.036,0.931-6.554,4.958-5.622,8.994c0.931,4.036,4.965,6.552,8.993,5.622
	c8.618-1.988,16.765-5.292,24.306-9.805c8.576,6.858,15.02,15.157,19.375,24.188c-14.623,9.873-38.031,15.89-62.572,15.89
	c-4.715,0-9.44-0.215-14.046-0.64c-4.13-0.38-7.776,2.655-8.157,6.779c-0.38,4.125,2.655,7.777,6.78,8.157
	c5.061,0.467,10.25,0.704,15.423,0.704c26.047,0,50.509-6.007,67.656-16.346c1.869,8.164,2.255,16.589,1.155,24.844
	c-7.996,7.594-20.924,13.731-36.629,17.34c-4.037,0.928-6.558,4.953-5.63,8.99c0.798,3.472,3.886,5.821,7.303,5.821
	c0.557,0,1.122-0.062,1.687-0.192c9.616-2.21,18.433-5.324,26.081-9.151c-3.68,7.119-8.631,13.723-14.881,19.423
	c-23.089,21.06-39.436,49.235-46.875,83.265c-7.329-33.407-24.065-61.543-47.952-84.266c-18.502-17.602-25.165-43.004-19.766-66.198
	c5.636,3.43,12.085,6.412,19.311,8.886c0.806,0.275,1.624,0.406,2.431,0.406c3.116,0,6.028-1.959,7.095-5.072
	c1.342-3.919-0.747-8.184-4.666-9.525c-7.307-2.502-13.784-5.66-19.032-9.226c4.382-9.006,10.828-17.271,19.379-24.08
	c7.59,4.554,15.769,7.876,24.401,9.858c9.759,2.237,12.919-12.424,3.355-14.62c-4.432-1.017-8.722-2.459-12.841-4.313
	C264.312,274.674,285.131,275.086,302.613,282.944z M254.863,187.646c3.589-14.081,3.181-25.313,0.787-34.187
	c5.69,13.177,25.019,44.58,16.613,97.444C260.296,222.781,247.843,215.191,254.863,187.646z M157.385,121.822
	c2.11-3.984,2.941-8.469,2.402-12.968c-2.812-23.495,15.866-32.204,27.469-32.204c19.537,0,37.465,20.898,32.819,44.738
	c-1.336,6.854,1.701,13.901,7.558,17.535c7.794,4.836,19.806,17.116,12.695,45.018c-8.033,31.52,5.018,44.929,15.65,67.335
	c-12.889-16.083-28.375-28.752-46.215-37.781c-29.181-14.768-36.993-27.089-34.818-33.15c2.244-6.249,0.052-13.15-5.331-16.781
	C158.071,155.776,146.578,142.211,157.385,121.822z"/>
<g>
</g>
<g>
</g>
<g>
</g>
<g>
</g>
<g>
</g>
<g>
</g>
<g>
</g>
<g>
</g>
<g>
</g>
<g>
</g>
<g>
</g>
<g>
</g>
<g>
</g>
<g>
</g>
<g>
</g>
</svg>
