<?xml version="1.0" encoding="iso-8859-1"?>
<!-- Generator: Adobe Illustrator 19.0.0, SVG Export Plug-In . SVG Version: 6.00 Build 0)  -->
<svg version="1.1" id="Capa_1" xmlns="http://www.w3.org/2000/svg" xmlns:xlink="http://www.w3.org/1999/xlink" x="0px" y="0px"
	 viewBox="0 0 511.999 511.999" style="enable-background:new 0 0 511.999 511.999;" xml:space="preserve">
<path style="fill:#30AA44;" d="M430.924,276.734c-21.463-13.886-53.523-38.98-104.705-30.3
	c-24.157,4.097-47.143,11.05-67.082,18.516c-16.389,19.536-32.077,32.193-49.487,44.236c-10.953,16.128-20.641,26.477-31.522,37.359
	c53.452-53.452,213.103-63.033,251.172-64.574C432.035,281.859,433.111,278.38,430.924,276.734z"/>
<path style="fill:#269E35;" d="M268.926,292.608c10.092-10.197,22.485-17.837,36.196-22.061c13.79-4.249,28.507-7.951,43.689-10.526
	c31.542-5.349,55.814,2.133,74.826,11.91c-21.278-14.081-51.723-33.248-97.417-25.498c-24.157,4.097-47.143,11.05-67.083,18.516
	c-16.389,19.536-32.077,32.193-49.487,44.236c-10.953,16.128-20.641,26.477-31.522,37.359c16.517-16.517,43.179-28.84,73.255-38.037
	C257.297,303.689,263.107,298.487,268.926,292.608z"/>
<path style="fill:#30AA44;" d="M259.137,265.949c4.752-1.779,9.688-3.526,14.761-5.215
	c68.892-61.256,158.605-137.494,228.801-184.898c2.225-1.503,0.539-4.952-2.016-4.126c-29.036,9.39-98.036,35.749-183.763,95.94
	C303.389,198.546,280.334,240.681,259.137,265.949z"/>
<path style="fill:#269E35;" d="M347.468,172.871c38.744-26.109,73.63-45.183,102.368-58.894
	c18.361-13.948,36.169-26.866,52.865-38.142c2.225-1.503,0.539-4.952-2.016-4.126c-29.036,9.39-98.036,35.749-183.763,95.941
	c-13.531,30.896-36.587,73.031-57.783,98.3c4.752-1.779,9.688-3.526,14.761-5.215c11.537-10.258,23.667-20.942,36.183-31.835
	c6.076-10.825,11.742-21.788,16.67-32.083C331.389,187.129,338.561,178.873,347.468,172.871z"/>
<path style="fill:#30AA44;" d="M210.65,309.185c25.967-17.962,47.171-37.719,65.689-66.052
	c30.536-46.723,73.219-127.568,74.112-215.48c0.037-3.662-4.881-4.911-6.616-1.686l-82.816,154.006
	C252.379,219.034,234.453,274.138,210.65,309.185z"/>
<path style="fill:#269E35;" d="M255.424,270.44c12-28.366,21.159-59.42,26.615-84.08L347.76,64.144
	c1.62-11.975,2.567-24.164,2.692-36.492c0.037-3.662-4.881-4.911-6.615-1.686l-82.818,154.006
	c-8.64,39.061-26.565,94.164-50.369,129.212C227.366,297.622,242.1,285.3,255.424,270.44z"/>
<path style="fill:#30AA44;" d="M122.992,403.68l60.735-60.735c21.089-21.089,37.96-46.022,49.538-73.508
	c21.165-50.247,47.896-134.601,35.257-219.245c-0.772-5.172-8.021-5.752-9.632-0.777l-54.471,168.208
	c-14.597,45.078-39.678,86.05-73.182,119.555c-36.461,36.461-55.222,57.391-85.774,75.982
	c-18.92,11.513-24.783,36.441-11.379,49.846c13.307,13.307,37.994,7.645,49.635-11.035
	C94.719,434.316,108.281,418.391,122.992,403.68z"/>
<path style="fill:#269E35;" d="M63.633,424.868c30.553-18.592,49.314-39.522,85.774-75.982
	c33.505-33.505,58.585-74.477,73.182-119.555l48.764-150.585c-0.489-9.482-1.409-19.015-2.833-28.552
	c-0.772-5.172-8.021-5.752-9.632-0.777l-54.471,168.208c-14.597,45.078-39.678,86.05-73.182,119.555
	c-36.461,36.461-55.222,57.391-85.774,75.982c-18.92,11.513-24.783,36.441-11.379,49.846c4.026,4.026,9.097,6.305,14.531,7.023
	C40.269,456.111,46.74,435.146,63.633,424.868z"/>
<path style="fill:#83CC8E;" d="M118.228,350.185c-24.392,24.392-43.436,45.127-72.768,62.976
	c-18.945,11.527-24.767,36.457-11.379,49.846c13.305,13.305,37.992,7.648,49.635-11.035c17.772-28.517,38.038-47.053,63.642-72.657
	L118.228,350.185z"/>
<path style="fill:#78C181;" d="M133.218,365.174l-14.953-14.953c-9.509,9.593-17.816,17.991-25.666,25.537
	c-6.063,5.854-12.161,11.465-18.59,16.848c-0.021,0.018-0.042,0.035-0.064,0.053c-0.646,0.54-1.294,1.078-1.947,1.614
	c-0.356,0.293-0.714,0.585-1.072,0.875c-0.303,0.246-0.607,0.492-0.911,0.737c-0.612,0.493-1.226,0.983-1.841,1.469
	c-0.041,0.032-0.081,0.064-0.122,0.096c-6.268,4.946-12.755,9.564-19.86,14.023c-0.9,0.566-1.81,1.128-2.73,1.688
	c-0.591,0.36-1.17,0.733-1.736,1.118c-9.601,6.54-15.471,16.635-16.687,26.563c-0.002,0.014-0.004,0.028-0.006,0.042
	c-0.044,0.367-0.071,0.733-0.103,1.099c-0.019,0.219-0.047,0.44-0.061,0.659c-0.011,0.166-0.01,0.331-0.019,0.497
	c-0.337,6.819,1.568,13.42,6.033,18.578c0.381,0.44,0.781,0.87,1.199,1.288l0,0c0.466,0.466,0.95,0.904,1.443,1.324
	c0.148,0.126,0.302,0.243,0.452,0.365c0.359,0.291,0.722,0.573,1.093,0.84c0.167,0.12,0.337,0.236,0.507,0.352
	c0.384,0.261,0.773,0.511,1.168,0.748c0.149,0.089,0.297,0.18,0.448,0.266c0.494,0.282,0.997,0.548,1.507,0.794
	c0.051,0.024,0.1,0.052,0.151,0.076c1.209,0.572,2.46,1.043,3.744,1.416c0.022,0.006,0.044,0.012,0.066,0.018
	c0.616,0.177,1.24,0.332,1.869,0.464c0.044,0.009,0.087,0.018,0.131,0.027c0.644,0.133,1.294,0.244,1.95,0.331l0,0
	c-8.343-13.917-1.872-34.883,15.02-45.162C89.32,409.237,106.674,391.95,133.218,365.174z"/>
<path d="M499.119,63.573c-24.478,7.915-86.876,31.139-165.178,82.907c4.682-12.486,8.932-25.518,12.489-38.981
	c1.058-4.005-1.331-8.109-5.335-9.167c-4.004-1.059-8.109,1.331-9.167,5.335c-16.217,61.379-55.162,137.383-96.159,175.82
	c6.532-14.169,22.354-52.994,32.207-97.094l73.999-137.609c-0.59,8.123-1.535,16.363-2.827,24.642
	c-0.639,4.092,2.161,7.928,6.253,8.567c4.097,0.644,7.929-2.161,8.567-6.253c2.328-14.907,3.581-29.715,3.726-44.013
	c0.052-5.072-3.348-9.498-8.266-10.763c-4.927-1.268-10.048,0.974-12.455,5.449l-61.232,113.868
	c3.134-28.177,3.354-57.633-1.06-87.197c-0.857-5.739-5.5-10.081-11.29-10.56c-5.806-0.48-11.104,3.049-12.896,8.58l-54.471,168.208
	c-14.165,43.744-38.838,84.05-71.35,116.563c-36.713,36.712-54.826,56.9-84.37,74.878c-3.309,2.013-6.352,4.419-9.253,7.382
	l-12.212-7.305c-3.558-2.128-8.161-0.969-10.287,2.585c-2.126,3.555-0.969,8.16,2.586,10.287l11.217,6.71
	c-2,4.111-3.341,8.46-3.944,12.893l-11.305,0.595c-4.136,0.218-7.313,3.748-7.095,7.884c0.211,4.002,3.522,7.105,7.483,7.105
	c0.322,0,11.523-0.596,11.847-0.613c2.91,10.374,10.735,18.784,21.753,22.025l-0.589,11.188c-0.218,4.136,2.959,7.666,7.096,7.884
	c4.171,0.212,7.667-2.986,7.884-7.096l0.571-10.854c4.454-0.552,8.928-1.852,13.21-3.904l6.417,10.727
	c1.405,2.349,3.892,3.651,6.443,3.651c5.786,0,9.424-6.344,6.429-11.351l-6.977-11.663c2.879-2.798,5.232-5.72,7.244-8.948
	c9.728-15.609,22.227-30.967,38.214-46.955c1.943-1.943,57.453-57.453,57.137-57.136c21-21,64.188-38.021,124.893-49.218
	c4.074-0.751,6.767-4.663,6.015-8.736c-0.751-4.074-4.663-6.771-8.736-6.015c-35.381,6.526-64.78,14.86-87.998,24.923
	c16.786-11.642,32.248-25.369,46.004-41.509c20.503-7.561,42.042-13.765,63.865-17.465c27.713-4.7,56.06,1.179,79.82,16.55
	l7.42,4.801c-18.12,1.04-44.457,3.085-73.761,7.07c-4.104,0.558-6.979,4.338-6.421,8.442s4.337,6.979,8.442,6.421
	c37.742-5.132,70.475-6.995,86.63-7.649c10.192-0.415,13.623-13.684,5.393-19.027c-21.303-13.783-55.617-40.627-110.033-31.398
	c-6.955,1.179-14.031,2.63-21.206,4.341c61.991-54.316,140.539-120.055,203.138-162.328
	C517.026,74.711,509.897,60.09,499.119,63.573z M76.095,448.004c-5.523,8.864-15.817,15.304-26.01,14.767
	c-0.545-0.084-0.696-0.074-1.031-0.079c-20.878-2.115-21.37-30.699-0.949-43.125c29.196-17.766,48.473-38.381,68.869-58.776
	l18.522,18.522C114.125,400.684,93.933,419.379,76.095,448.004z M146.102,368.707l-18.522-18.522l7.703-7.703
	c34.182-34.182,60.121-76.558,75.014-122.548L261.288,62.47c6.857,62.884-6.967,128.6-29.457,187.306
	C208.744,309.925,189.041,325.768,146.102,368.707z M288.731,237.264c13.332-21.359,25.361-44.033,34.952-65.673
	C381.59,131.134,431.9,106.275,466.331,91.86C407.888,134.705,341.672,190.712,288.731,237.264z"/>
<g>
</g>
<g>
</g>
<g>
</g>
<g>
</g>
<g>
</g>
<g>
</g>
<g>
</g>
<g>
</g>
<g>
</g>
<g>
</g>
<g>
</g>
<g>
</g>
<g>
</g>
<g>
</g>
<g>
</g>
</svg>
