<?xml version="1.0" encoding="iso-8859-1"?>
<!-- Generator: Adobe Illustrator 19.0.0, SVG Export Plug-In . SVG Version: 6.00 Build 0)  -->
<svg version="1.1" id="Capa_1" xmlns="http://www.w3.org/2000/svg" xmlns:xlink="http://www.w3.org/1999/xlink" x="0px" y="0px"
	 viewBox="0 0 512.004 512.004" style="enable-background:new 0 0 512.004 512.004;" xml:space="preserve">
<path style="fill:#30AA44;" d="M265.063,10.517C263.095,8.282,260.25,7,257.259,7s-5.836,1.282-7.805,3.517
	c-18.183,20.652-29.719,42.387-34.287,64.6l-0.055,0.269l0.197,0.191c20.492,19.85,34.822,47.054,39.97,80.512
	c2.375-0.012,1.528-0.012,3.959,0c4.748-30.866,17.723-58.981,40.168-80.703C294.343,50.747,281.467,29.148,265.063,10.517z"/>
<path style="fill:#269E35;" d="M236.829,77.074L236.829,77.074c-1.067-1.049-1.519-2.574-1.197-4.035l0.281-1.274
	c4.38-21.299,14.44-38.802,31.35-58.688c-0.728-0.856-1.456-1.714-2.199-2.558c-1.968-2.235-4.813-3.517-7.805-3.517
	s-5.836,1.282-7.805,3.517c-18.183,20.652-29.719,42.387-34.287,64.6l-0.055,0.269l0.197,0.191
	c20.491,19.85,34.822,47.054,39.97,80.512c2.375-0.012,1.528-0.012,3.959,0c1.652-10.741,4.325-21.136,8.023-31.057
	C259.972,105.476,250.55,90.366,236.829,77.074z"/>
<path style="fill:#30AA44;" d="M157.915,41.539c-2.204-0.676-4.566-0.33-6.48,0.947c-1.907,1.272-3.127,3.311-3.349,5.592
	c-2.498,25.783,1.436,53.648,15.006,76.547c17.536,6.009,34.594,17.563,48.093,34.027c13.66-1.597,28.219-2.511,45.105-2.568
	C247.828,101.113,214.924,59.007,157.915,41.539z"/>
<path style="fill:#269E35;" d="M189.359,127.02c-4.461-1.882-8.069-5.329-10.187-9.684c-10.398-21.377-13.323-46.153-11.085-69.258
	c0.094-0.975,0.382-1.9,0.817-2.746c-3.486-1.339-7.065-2.585-10.754-3.721c-1.898-0.585-3.98-0.528-5.768,0.334
	c-2.446,1.179-4.04,3.493-4.296,6.132c-2.498,25.783,1.436,53.648,15.006,76.547c17.536,6.009,34.594,17.563,48.093,34.027
	c5.974-0.698,12.138-1.257,18.575-1.68C218.138,143.338,204.054,133.219,189.359,127.02z"/>
<path style="fill:#30AA44;" d="M366.431,48.079c-0.221-2.281-1.441-4.319-3.348-5.591c-1.915-1.279-4.277-1.622-6.48-0.948
	c-56.94,17.448-89.902,59.499-98.375,114.547c16.878,0.057,31.439,0.97,45.105,2.568c12.738-15.536,29.464-27.644,48.093-34.027
	C364.804,102.051,368.978,74.341,366.431,48.079z"/>
<path style="fill:#269E35;" d="M366.174,46.76c-0.485-1.736-1.562-3.253-3.091-4.273c-1.915-1.279-4.277-1.622-6.48-0.948
	c-56.94,17.448-89.902,59.499-98.375,114.547c6.778,0.023,13.17,0.19,19.292,0.478C285.858,105.381,315.545,65.63,366.174,46.76z"/>
<path style="fill:#30AA44;" d="M415.787,124.138c-45.241-14.533-86.071,0.704-113.633,34.378
	c23.642,2.759,40.756,5.948,60.613,18.811c24.522-5.011,44.176-23.319,56.29-44.897C420.836,129.26,419.259,125.253,415.787,124.138
	z"/>
<path style="fill:#269E35;" d="M419.452,127.695c-0.576-1.617-1.862-2.978-3.665-3.557c-45.241-14.533-86.071,0.704-113.633,34.378
	c8.548,0.998,16.235,2.059,23.514,3.605C349.619,135.199,382.607,121.505,419.452,127.695z"/>
<path style="fill:#30AA44;" d="M98.731,124.138c-1.657,0.532-2.971,1.765-3.606,3.382c-0.633,1.611-0.51,3.401,0.337,4.91
	c12.008,21.389,31.61,39.853,56.289,44.897c19.891-12.884,37.249-16.083,60.614-18.811
	C182.454,121.973,140.583,110.694,98.731,124.138z"/>
<path style="fill:#269E35;" d="M115.463,132.429c-0.847-1.509-0.97-3.299-0.337-4.91c0.635-1.617,1.95-2.85,3.606-3.382
	c7.92-2.544,15.839-4.198,23.679-4.968c-14.215-1.418-28.948,0.236-43.68,4.968c-1.657,0.532-2.971,1.765-3.606,3.382
	c-0.633,1.611-0.51,3.401,0.337,4.91c12.008,21.389,31.61,39.854,56.289,44.897c2.315-1.5,4.594-2.856,6.854-4.108
	C140.088,165.356,125.251,149.867,115.463,132.429z"/>
<path style="fill:#EA473B;" d="M323.347,161.131c-40.604-7.421-91.512-7.432-132.178,0
	c-63.851,11.669-103.036,76.402-83.928,138.434c29.225,94.876,71.162,152.505,103.269,185.305c25.627,26.178,67.869,26.178,93.495,0
	c32.107-32.798,74.044-90.428,103.269-185.305C426.383,237.534,387.199,172.799,323.347,161.131z"/>
<path style="fill:#DD332F;" d="M230.512,484.87c-32.107-32.798-74.044-90.428-103.269-185.305
	c-19.108-62.032,20.076-126.766,83.928-138.434c17.361-3.172,36.59-4.984,56.088-5.446c-26.15-0.62-52.799,1.19-76.089,5.446
	c-63.851,11.669-103.036,76.402-83.928,138.434c29.225,94.876,71.162,152.505,103.269,185.305
	c15.339,15.669,36.63,21.949,56.749,18.86C253.767,501.659,240.8,495.378,230.512,484.87z"/>
<path style="fill:#FFA92C;" d="M191.597,253.986c0,9.292-7.533,16.825-16.825,16.825c-9.292,0-16.825-7.533-16.825-16.825
	c0-9.293,7.533-26.152,16.825-26.152S191.597,244.694,191.597,253.986z"/>
<path style="fill:#F7991E;" d="M177.949,253.986c0-5.546,2.685-13.786,6.824-19.53c-2.796-3.879-6.254-6.621-10.001-6.621
	c-9.293,0-16.825,16.86-16.825,26.152c0,9.292,7.533,16.825,16.825,16.825c3.75,0,7.202-1.242,10.001-3.317
	C180.641,264.427,177.949,259.527,177.949,253.986z"/>
<path style="fill:#FFA92C;" d="M274.083,253.986c0,9.292-7.533,16.825-16.824,16.825c-9.292,0-16.825-7.533-16.825-16.825
	c0-9.293,7.533-26.152,16.825-26.152C266.551,227.834,274.083,244.694,274.083,253.986z"/>
<path style="fill:#F7991E;" d="M260.435,253.986c0-5.546,2.685-13.786,6.824-19.53c-2.796-3.879-6.254-6.621-10.001-6.621
	c-9.293,0-16.825,16.86-16.825,26.152c0,9.292,7.533,16.825,16.825,16.825c3.75,0,7.202-1.242,10.001-3.317
	C263.126,264.427,260.435,259.527,260.435,253.986z"/>
<path style="fill:#FFA92C;" d="M356.57,253.986c0,9.292-7.533,16.825-16.825,16.825c-9.292,0-16.824-7.533-16.824-16.825
	c0-9.293,7.533-26.152,16.824-26.152C349.037,227.834,356.57,244.694,356.57,253.986z"/>
<path style="fill:#F7991E;" d="M342.922,253.986c0-5.546,2.685-13.786,6.824-19.53c-2.796-3.879-6.254-6.621-10.001-6.621
	c-9.293,0-16.825,16.86-16.825,26.152c0,9.292,7.533,16.825,16.825,16.825c3.75,0,7.202-1.242,10.001-3.317
	C345.612,264.427,342.922,259.527,342.922,253.986z"/>
<path style="fill:#FFA92C;" d="M315.327,335.61c0,9.292-7.533,16.825-16.824,16.825c-9.292,0-16.825-7.533-16.825-16.825
	c0-9.292,7.533-26.152,16.825-26.152C307.793,309.459,315.327,326.318,315.327,335.61z"/>
<path style="fill:#F7991E;" d="M301.679,335.61c0-5.546,2.685-13.786,6.824-19.53c-2.796-3.879-6.254-6.621-10.001-6.621
	c-9.293,0-16.825,16.86-16.825,26.152c0,9.292,7.533,16.824,16.825,16.824c3.75,0,7.203-1.242,10.001-3.317
	C304.369,346.051,301.679,341.151,301.679,335.61z"/>
<path style="fill:#FFA92C;" d="M232.84,335.61c0,9.292-7.533,16.825-16.825,16.825c-9.292,0-16.825-7.533-16.825-16.825
	c0-9.292,7.533-26.152,16.825-26.152C225.308,309.459,232.84,326.318,232.84,335.61z"/>
<path style="fill:#F7991E;" d="M219.192,335.61c0-5.546,2.685-13.786,6.824-19.53c-2.796-3.879-6.254-6.621-10.001-6.621
	c-9.293,0-16.825,16.86-16.825,26.152c0,9.292,7.533,16.824,16.825,16.824c3.75,0,7.202-1.242,10.001-3.317
	C221.883,346.051,219.192,341.151,219.192,335.61z"/>
<path style="fill:#FFA92C;" d="M274.083,417.234c0,9.292-7.533,16.824-16.824,16.824c-9.292,0-16.825-7.533-16.825-16.824
	c0-9.292,7.533-26.152,16.825-26.152C266.551,391.082,274.083,407.942,274.083,417.234z"/>
<path style="fill:#F7991E;" d="M260.435,417.234c0-5.546,2.685-13.786,6.824-19.53c-2.796-3.879-6.254-6.621-10.001-6.621
	c-9.293,0-16.825,16.86-16.825,26.152c0,9.292,7.533,16.824,16.825,16.824c3.75,0,7.202-1.242,10.001-3.317
	C263.126,427.676,260.435,422.775,260.435,417.234z"/>
<path d="M256.003,441.559c13.413,0,24.325-10.912,24.325-24.325c0-11.864-9.235-33.652-24.325-33.652
	c-15.09,0-24.325,21.788-24.325,33.652C231.677,430.647,242.59,441.559,256.003,441.559z M256.003,398.583
	c2.478,0,9.324,10.433,9.324,18.651c0,5.141-4.183,9.324-9.324,9.324c-5.14,0-9.324-4.183-9.324-9.324
	C246.678,409.022,253.521,398.583,256.003,398.583z"/>
<path d="M173.516,220.333c-15.09,0-24.325,21.788-24.325,33.652c0,13.413,10.912,24.326,24.325,24.326s24.325-10.913,24.325-24.326
	C197.841,242.122,188.606,220.333,173.516,220.333z M168.147,241.122c2.5-4.415,4.811-5.787,5.369-5.787
	c0.558,0,2.87,1.372,5.37,5.787C195.636,270.702,151.389,270.71,168.147,241.122z"/>
<path d="M280.328,253.986c0-11.864-9.235-33.652-24.325-33.652c-15.09,0-24.325,21.788-24.325,33.652
	c0,13.413,10.912,24.326,24.325,24.326C269.416,278.311,280.328,267.399,280.328,253.986z M246.678,253.986
	c0-8.224,6.845-18.651,9.324-18.651c2.498,0,9.324,10.476,9.324,18.651c0,5.141-4.183,9.325-9.324,9.325
	C250.861,263.31,246.678,259.127,246.678,253.986z"/>
<path d="M362.813,253.986c0-11.864-9.235-33.652-24.325-33.652s-24.326,21.788-24.326,33.652c0,13.413,10.913,24.326,24.326,24.326
	S362.813,267.399,362.813,253.986z M329.164,253.986c0-8.258,6.857-18.651,9.325-18.651c2.498,0,9.324,10.476,9.324,18.651
	c0,5.141-4.183,9.325-9.324,9.325C333.347,263.31,329.164,259.127,329.164,253.986z"/>
<path d="M214.759,359.935c13.413,0,24.325-10.913,24.325-24.326c0-11.864-9.235-33.652-24.325-33.652
	c-15.09,0-24.325,21.788-24.325,33.652C190.434,349.023,201.346,359.935,214.759,359.935z M209.39,322.745
	c2.5-4.415,4.811-5.787,5.369-5.787c2.478,0,9.324,10.433,9.324,18.651C224.084,350.794,195.16,347.871,209.39,322.745z"/>
<path d="M321.57,335.61c0-11.864-9.235-33.652-24.325-33.652c-15.09,0-24.325,21.787-24.325,33.652
	c0,13.413,10.912,24.326,24.325,24.326C310.659,359.936,321.57,349.023,321.57,335.61z M287.922,335.61
	c0-8.209,6.835-18.651,9.324-18.651c2.478,0,9.324,10.433,9.324,18.651c0,5.141-4.183,9.325-9.324,9.325
	C292.105,344.935,287.922,340.752,287.922,335.61z"/>
<path d="M423.904,135.856c3.948-7.033,0.449-15.916-7.233-18.383c-18.295-5.876-36.03-7.374-53.009-4.518
	c1.542-3.864,2.907-7.859,4.065-11.983c1.12-3.988-1.205-8.129-5.192-9.25c-3.987-1.118-8.129,1.205-9.25,5.192
	c-2.135,7.604-5.018,14.709-8.583,21.161c-15.242,5.732-29.225,15.087-40.752,26.609c3.992-8.439,8.81-17.156,14.441-26.058
	c2.214-3.5,1.171-8.134-2.33-10.348c-3.5-2.214-8.133-1.171-10.349,2.33c-8.376,13.242-15.106,26.177-20.074,38.501
	c-6.228-0.43-12.856-0.756-19.109-0.904c10.127-47.548,40.563-83.366,90.727-98.886c0.438,4.711,0.633,9.6,0.576,14.535
	c-0.047,4.142,3.273,7.539,7.416,7.585c4.067,0.068,7.538-3.221,7.586-7.416c0.063-5.637-0.169-11.23-0.691-16.623
	c-0.424-4.382-2.769-8.297-6.431-10.741c-3.67-2.448-8.195-3.112-12.417-1.817c-19.763,6.056-36.976,15.004-51.527,26.704
	c-6.056-19.158-17.012-37.832-32.707-55.659c-6.916-7.854-19.208-7.848-26.117,0.001c-15.695,17.826-26.651,36.498-32.707,55.658
	c-14.552-11.7-31.763-20.647-51.527-26.704c-8.844-2.707-17.956,3.348-18.849,12.558c-1.398,14.421-1.736,40.094,8.453,65.545
	c-16.97-2.849-34.695-1.35-52.981,4.523c-7.681,2.467-11.182,11.349-7.232,18.384c5.798,10.329,20.79,32.813,46.168,43.693
	C98.71,209.868,85.365,258.1,98.817,301.774c30.093,97.691,73.752,156.343,105.078,188.344
	c13.816,14.114,32.321,21.886,52.108,21.886s38.291-7.773,52.108-21.886c27.388-27.977,66.242-78.551,95.816-160.615
	c1.404-3.896-0.616-8.195-4.513-9.599c-3.896-1.403-8.195,0.615-9.6,4.513c-28.658,79.523-66.078,128.296-92.422,155.207
	c-22.672,23.159-60.026,23.239-82.776,0c-30.165-30.814-72.254-87.449-101.461-182.265c-17.768-57.68,18.693-117.976,78.109-128.848
	c18.118-3.285,36.245-4.851,54.266-5.289c58.561-1.423,111.054,3.038,141.242,48.999c15.286,23.273,20.252,50.99,13.983,78.044
	c-0.935,4.035,1.578,8.065,5.613,9c4.042,0.938,8.065-1.578,9.001-5.613c10.252-44.242-6.337-87.379-37.546-114.136
	C403.149,168.621,418.113,146.173,423.904,135.856z M149.035,168.788c-24.593-6.308-39.86-26.893-46.447-37.857
	c36.355-10.755,68.02-0.774,92.162,21.757C181.195,154.88,166.693,158,149.035,168.788z M226.684,149.086
	c-13.052-32.351-34.476-59.212-35.402-60.365c-2.594-3.228-7.313-3.742-10.542-1.149c-3.229,2.593-3.745,7.314-1.153,10.544
	c0.19,0.237,16.828,21.118,29.078,47.18c-11.441-11.594-25.616-21.295-41.364-27.219c-14.536-26.314-13.705-56.347-12.553-68.755
	c49.226,15.23,80.391,50.367,90.727,98.886C239.214,148.355,232.75,148.671,226.684,149.086z M222.631,72.819
	c4.793-19.485,15.401-38.647,31.572-57.015c0.946-1.073,2.657-1.071,3.6,0c16.171,18.368,26.779,37.53,31.572,57.015
	c-10.351,10.689-19.109,23.294-25.872,37.561V55.75c0-4.142-3.357-7.501-7.501-7.501s-7.501,3.358-7.501,7.501v54.632
	C241.661,95.945,232.853,83.376,222.631,72.819z M363.027,168.773c-15.113-9.218-28.77-13.339-45.772-16.082
	c25.345-23.653,57.04-32.147,92.163-21.758C402.836,141.888,387.587,162.447,363.027,168.773z"/>
<g>
</g>
<g>
</g>
<g>
</g>
<g>
</g>
<g>
</g>
<g>
</g>
<g>
</g>
<g>
</g>
<g>
</g>
<g>
</g>
<g>
</g>
<g>
</g>
<g>
</g>
<g>
</g>
<g>
</g>
</svg>
