<?xml version="1.0" encoding="iso-8859-1"?>
<!-- Generator: Adobe Illustrator 19.0.0, SVG Export Plug-In . SVG Version: 6.00 Build 0)  -->
<svg version="1.1" id="Capa_1" xmlns="http://www.w3.org/2000/svg" xmlns:xlink="http://www.w3.org/1999/xlink" x="0px" y="0px"
	 viewBox="0 0 512.001 512.001" style="enable-background:new 0 0 512.001 512.001;" xml:space="preserve">
<path style="fill:#3BBC56;" d="M102.374,122.637c16.516,10.747,27.998,26.295,35.362,36.168c11.767,0.157,23.153,2.106,33.945,5.649
	c6.275,2.059,13.068,2.059,19.342,0c8.841-2.901,18.081-4.73,27.6-5.389c11.868-27.189,32.527-46.294,41.719-52.429
	c1.685-1.125,1.139-3.734-0.858-4.078c-26.331-4.526-49.162,9.395-57.924,15.731c-1.549,1.12-3.695-0.116-3.53-2.021
	c0.699-8.094,2.41-16.047,3.578-20.821c0.457-1.864-1.505-3.387-3.211-2.511c-12.364,6.352-19.471,16.531-22.54,21.872
	c-0.849,1.476-2.963,1.487-3.838,0.027c-16.38-27.31-41.617-41.431-55.273-47.442c-2.182-0.96-4.151,1.743-2.564,3.522
	c19.707,22.096,25.225,45.852,26.695,55.186c0.277,1.754-1.514,3.096-3.131,2.363c-12.682-5.75-25.316-8.552-33.802-9.897
	C101.578,118.192,100.366,121.331,102.374,122.637z"/>
<g>
	<path style="fill:#30AA44;" d="M140.878,126.101c0.048,0.308,0.015,0.594-0.052,0.867c5.384,1.539,11.163,3.545,16.958,6.172
		c1.618,0.733,3.407-0.609,3.131-2.363c-1.413-8.963-6.564-31.225-24.421-52.545c-7.521-5.004-14.493-8.525-19.748-10.838
		c-2.182-0.96-4.151,1.743-2.564,3.522C133.888,93.011,139.406,116.767,140.878,126.101z"/>
	<path style="fill:#30AA44;" d="M122.412,127.312c-2.004-1.303-0.8-4.431,1.556-4.071c-7.64-2.39-14.662-3.824-20.024-4.675
		c-2.365-0.375-3.577,2.764-1.57,4.07c16.516,10.747,27.998,26.295,35.362,36.168c6.031,0.08,11.961,0.639,17.762,1.634
		C148.119,150.619,137.324,137.017,122.412,127.312z"/>
</g>
<path style="fill:#EA473B;" d="M226.487,155.77c-12.308,0-24.206,1.985-35.464,5.679c-6.274,2.059-13.068,2.059-19.341,0
	C90.213,134.713,8.773,204.136,8.773,300.288c0,92.449,75.159,160.297,153.928,141.387c12.281-2.949,25.02-2.949,37.301,0
	c8.543,2.051,17.402,3.132,26.484,3.132c70.386,0,127.444-64.703,127.444-144.519C353.931,220.473,296.872,155.77,226.487,155.77z"
	/>
<path style="fill:#DD332F;" d="M29.852,300.288c0-77.761,53.267-138.029,116.736-144.102
	C74.295,149.321,8.773,214.045,8.773,300.288c0,86.131,65.239,150.895,137.856,144.055
	C82.933,438.289,29.852,377.981,29.852,300.288z"/>
<path style="fill:#EA473B;" d="M379.236,155.77c-32.178,0-37.554,11.34-54.806,5.679c-11.258-3.695-23.156-5.679-35.464-5.679
	c-70.385,0-127.444,64.703-127.444,144.519c0,92.449,75.159,160.297,153.928,141.387c27.921-6.703,35.947,3.132,63.786,3.132
	c70.386,0,127.444-64.703,127.444-144.519S449.621,155.77,379.236,155.77z"/>
<path style="fill:#DD332F;" d="M182.354,300.288c0-75.814,51.483-137.986,116.965-144.029c-3.416-0.313-6.867-0.489-10.354-0.489
	c-70.385,0-127.444,64.703-127.444,144.518c0,86.079,65.16,150.816,137.724,144.066
	C235.499,438.362,182.354,378.028,182.354,300.288z"/>
<path style="fill:#D12828;" d="M367.751,192.544h-0.133c-7.167,0-12.977,5.81-12.977,12.977v62.983
	c0,6.575,6.861,11.286,13.02,8.268c4.307-2.112,9.277-3.076,14.522-2.478c12.537,1.43,22.41,11.976,23.074,24.576
	c1.049,19.889-19.522,33.491-37.273,25.09c-6.383-3.021-13.343,1.85-13.343,8.567v62.378c0,7.211,5.9,13.118,13.111,13.127l0,0
	c52.475,0,95.014-48.239,95.014-107.744S420.226,192.544,367.751,192.544z"/>
<g>
	<path style="fill:#C12121;" d="M367.66,276.772c3.154-1.546,6.665-2.469,10.377-2.622c-1.206-1.547-1.951-3.493-1.951-5.646
		v-62.983c0-5.046,2.886-9.409,7.092-11.556c-5.021-0.93-10.174-1.422-15.427-1.422h-0.133c-7.166,0-12.976,5.81-12.976,12.977
		v62.983C354.64,275.08,361.5,279.792,367.66,276.772z"/>
	<path style="fill:#C12121;" d="M376.086,394.907v-62.378c0-2.329,0.85-4.425,2.209-6.058c-3.426-0.108-6.92-0.905-10.311-2.51
		c-6.383-3.021-13.343,1.85-13.343,8.568v62.378c0,7.211,5.899,13.118,13.111,13.127c5.29,0,10.476-0.498,15.53-1.441
		C379.024,404.415,376.086,399.99,376.086,394.907z"/>
</g>
<path style="fill:#D12828;" d="M300.451,192.544h0.133c7.167,0,12.977,5.81,12.977,12.977v62.983c0,6.575-6.861,11.286-13.02,8.268
	c-17.043-8.355-36.631,3.8-37.597,22.099c-1.049,19.889,19.522,33.491,37.273,25.09c6.383-3.021,13.343,1.85,13.343,8.567v62.378
	c0,7.211-5.9,13.118-13.111,13.127l0,0c-52.475,0-95.014-48.239-95.014-107.744C205.437,240.783,247.976,192.544,300.451,192.544z"
	/>
<path style="fill:#C12121;" d="M225.475,300.288c0-53.95,34.967-98.637,80.602-106.512c-1.67-0.782-3.527-1.232-5.492-1.232h-0.133
	c-52.475,0-95.014,48.239-95.014,107.744c0,59.506,42.539,107.744,95.014,107.744l0,0c1.973-0.002,3.84-0.459,5.522-1.25
	C260.389,398.859,225.475,354.198,225.475,300.288z"/>
<path d="M369.784,317.097c-11.089-5.193-23.916,3.075-23.916,15.432v62.378c0,11.367,9.247,20.627,20.624,20.641
	c56.536,0,102.529-51.704,102.529-115.258s-45.994-115.258-102.529-115.258h-0.133c-11.298,0-20.491,9.192-20.491,20.491v62.983
	c0,12.408,13.081,20.438,23.841,15.013l0.001,0.001c18.644-9.142,35.806,14.73,21.694,29.607
	C386.01,318.809,377.528,320.725,369.784,317.097z M411.502,298.476c-1.225-23.25-26.192-39.343-48.493-28.408
	c-0.955,0.46-2.111-0.438-2.111-1.564v-62.983c0-3.012,2.451-5.462,5.462-5.462h0.133c48.248,0,87.501,44.963,87.501,100.23
	s-39.253,100.23-87.492,100.23c-3.038-0.004-5.605-2.574-5.605-5.613c0-67.16-0.403-63.209,0.94-64.062
	c0.597-0.381,1.216-0.366,1.674-0.091C386.367,341.57,412.851,324.064,411.502,298.476z"/>
<path d="M296.131,283.595c10.926,5.288,23.686-2.87,23.686-15.091v-62.983c0-11.037-8.877-20.491-20.624-20.491
	c-56.536,0-102.529,51.704-102.529,115.258s45.994,115.259,102.538,115.259c11.367-0.014,20.615-9.273,20.615-20.641v-62.378
	c0-12.155-12.582-20.744-24.071-15.36c-6.95,3.292-15.676,2.057-21.464-4.045C260.144,298.225,277.338,274.374,296.131,283.595z
	 M302.175,330.754c1.069-0.641,2.613,0.343,2.613,1.775v62.378c0,3.038-2.567,5.609-5.596,5.613
	c-48.248,0-87.501-44.963-87.501-100.23c0-55.142,39.095-100.23,87.634-100.23c3.012,0,5.462,2.451,5.462,5.462
	c0,67.951,0.352,63.706-0.822,64.438c-0.659,0.413-1.134,0.183-1.376,0.064c-22.063-10.812-47.175,5.071-48.407,28.45
	C252.829,324.149,279.397,341.533,302.175,330.754z"/>
<path d="M397.13,236.709c-0.4-0.271-0.842-0.501-1.292-0.691c-0.45-0.189-0.932-0.33-1.402-0.431c-0.973-0.189-1.975-0.189-2.937,0
	c-0.48,0.101-0.962,0.24-1.412,0.431c-0.451,0.19-0.893,0.422-1.292,0.691c-0.411,0.271-0.802,0.591-1.143,0.932
	c-1.402,1.403-2.204,3.336-2.204,5.321c0,0.491,0.051,0.981,0.15,1.463c0.09,0.48,0.24,0.952,0.421,1.413
	c0.19,0.45,0.421,0.882,0.691,1.292c0.28,0.41,0.591,0.802,0.941,1.142c1.394,1.403,3.336,2.204,5.31,2.204
	c0.491,0,0.982-0.05,1.474-0.15c0.471-0.09,0.952-0.24,1.402-0.431c0.451-0.18,0.893-0.421,1.292-0.691
	c0.411-0.271,0.802-0.581,1.143-0.932c0.351-0.341,0.66-0.731,0.941-1.142c0.272-0.411,0.501-0.843,0.682-1.292
	c0.189-0.461,0.341-0.933,0.431-1.413c0.1-0.481,0.149-0.972,0.149-1.463c0-1.984-0.802-3.917-2.203-5.321
	C397.932,237.3,397.541,236.98,397.13,236.709z"/>
<path d="M399.906,354.741c-0.19-0.45-0.421-0.892-0.691-1.291c-0.281-0.411-0.591-0.802-0.941-1.143
	c-0.342-0.351-0.731-0.661-1.143-0.932c-2.46-1.666-5.8-1.717-8.335,0c-0.411,0.271-0.802,0.581-1.143,0.932
	c-0.351,0.341-0.661,0.731-0.941,1.143c-0.272,0.4-0.501,0.842-0.691,1.291c-0.18,0.451-0.331,0.933-0.421,1.403
	c-0.1,0.491-0.15,0.982-0.15,1.473c0,0.491,0.051,0.982,0.15,1.474c0.09,0.471,0.24,0.951,0.421,1.402
	c0.19,0.451,0.421,0.893,0.691,1.292c0.28,0.411,0.591,0.801,0.941,1.143c0.341,0.351,0.731,0.66,1.143,0.941
	c0.4,0.272,0.842,0.501,1.292,0.691c0.45,0.18,0.932,0.331,1.402,0.421c0.491,0.1,0.982,0.149,1.473,0.149
	c0.491,0,0.982-0.05,1.474-0.149c0.471-0.09,0.952-0.24,1.402-0.421c0.451-0.19,0.893-0.421,1.292-0.691
	c0.411-0.281,0.802-0.591,1.143-0.941c0.351-0.342,0.66-0.731,0.941-1.143c0.272-0.4,0.501-0.842,0.691-1.292
	c0.18-0.451,0.331-0.932,0.421-1.402c0.1-0.491,0.149-0.982,0.149-1.474c0-0.49-0.05-0.981-0.149-1.473
	C400.236,355.674,400.086,355.192,399.906,354.741z"/>
<path d="M419.753,277.876c0.411,0.26,0.842,0.501,1.302,0.682c0.451,0.189,0.922,0.341,1.403,0.431
	c0.481,0.1,0.982,0.149,1.473,0.149c0.491,0,0.982-0.05,1.463-0.149c0.481-0.09,0.952-0.24,1.413-0.431
	c0.451-0.181,0.882-0.422,1.292-0.682c0.411-0.281,0.801-0.591,1.142-0.941c1.403-1.394,2.204-3.336,2.204-5.311
	c0-1.983-0.801-3.916-2.204-5.31c-0.341-0.351-0.73-0.661-1.142-0.941c-0.411-0.272-0.842-0.501-1.292-0.691
	c-0.461-0.18-0.932-0.331-1.413-0.421c-0.972-0.2-1.964-0.2-2.936,0c-0.481,0.09-0.952,0.24-1.403,0.421
	c-0.461,0.19-0.892,0.421-1.302,0.691c-0.411,0.28-0.792,0.591-1.142,0.941c-1.394,1.394-2.194,3.326-2.194,5.31
	c0,1.975,0.802,3.917,2.194,5.311C418.962,277.286,419.342,277.595,419.753,277.876z"/>
<path d="M421.056,335.896c0.998,0.399,1.958,0.571,2.875,0.571c0.491,0,0.982-0.05,1.463-0.15c0.481-0.09,0.952-0.24,1.413-0.421
	c0.451-0.19,0.882-0.421,1.292-0.691c0.411-0.28,0.801-0.591,1.142-0.941c1.403-1.393,2.204-3.326,2.204-5.31
	c0-1.975-0.801-3.917-2.204-5.31c-0.341-0.352-0.73-0.661-1.142-0.942c-0.411-0.272-0.842-0.501-1.292-0.691
	C417.428,318.345,411.98,332.139,421.056,335.896z"/>
<path d="M265.432,245.837c0.19,0.45,0.422,0.882,0.691,1.292c0.281,0.41,0.591,0.802,0.942,1.142
	c0.341,0.351,0.73,0.661,1.142,0.932c0.401,0.271,0.842,0.512,1.292,0.691c0.451,0.189,0.932,0.341,1.403,0.431
	c0.49,0.101,0.981,0.15,1.473,0.15c0.492,0,0.981-0.05,1.473-0.15c0.471-0.09,0.952-0.24,1.403-0.431
	c0.45-0.18,0.892-0.421,1.292-0.691c0.41-0.271,0.801-0.581,1.142-0.932c0.351-0.341,0.661-0.731,0.942-1.142
	c0.27-0.411,0.501-0.843,0.681-1.292c0.189-0.461,0.341-0.933,0.431-1.413c0.101-0.481,0.15-0.972,0.15-1.463
	c0-1.984-0.802-3.917-2.204-5.321c-0.341-0.341-0.731-0.66-1.142-0.932c-0.401-0.271-0.843-0.501-1.292-0.691
	c-0.451-0.189-0.933-0.33-1.403-0.431c-2.444-0.491-5.039,0.312-6.783,2.054c-1.403,1.403-2.204,3.336-2.204,5.321
	c0,0.491,0.05,0.981,0.149,1.463C265.103,244.904,265.252,245.376,265.432,245.837z"/>
<path d="M265.432,360.492c0.19,0.451,0.422,0.893,0.691,1.292c0.281,0.411,0.591,0.801,0.942,1.143
	c0.341,0.351,0.73,0.66,1.142,0.941c0.401,0.271,0.842,0.501,1.292,0.691c0.451,0.18,0.932,0.331,1.403,0.421
	c0.49,0.1,0.981,0.149,1.473,0.149c0.492,0,0.981-0.05,1.473-0.149c0.471-0.09,0.952-0.24,1.403-0.421
	c0.45-0.19,0.892-0.421,1.292-0.691c0.41-0.281,0.801-0.591,1.142-0.941c0.351-0.342,0.661-0.731,0.942-1.143
	c0.27-0.4,0.501-0.842,0.681-1.292c0.189-0.451,0.341-0.932,0.431-1.402c0.101-0.491,0.15-0.982,0.15-1.474
	c0-0.49-0.05-0.981-0.15-1.473c-0.09-0.471-0.24-0.952-0.431-1.403c-0.18-0.45-0.411-0.892-0.681-1.291
	c-0.281-0.411-0.592-0.802-0.942-1.143c-0.341-0.351-0.731-0.661-1.142-0.932c-0.401-0.272-0.843-0.511-1.292-0.691
	c-0.451-0.189-0.933-0.331-1.403-0.431c-0.972-0.2-1.974-0.2-2.945,0c-0.472,0.1-0.952,0.24-1.403,0.431
	c-0.451,0.181-0.892,0.421-1.292,0.691c-0.411,0.271-0.801,0.581-1.142,0.932c-0.352,0.341-0.661,0.731-0.942,1.143
	c-0.27,0.4-0.501,0.842-0.691,1.291c-0.18,0.451-0.33,0.933-0.421,1.403c-0.1,0.491-0.149,0.982-0.149,1.473
	c0,0.491,0.05,0.982,0.149,1.474C265.103,359.561,265.252,360.041,265.432,360.492z"/>
<path d="M241.407,279.138c1.983,0,3.917-0.802,5.32-2.203c1.394-1.394,2.194-3.336,2.194-5.311c0-1.983-0.802-3.916-2.194-5.31
	c-1.402-1.402-3.336-2.204-5.32-2.204c-1.974,0-3.907,0.802-5.31,2.204c-1.403,1.394-2.204,3.326-2.204,5.31
	c0,1.975,0.802,3.917,2.204,5.311C237.5,278.337,239.433,279.138,241.407,279.138z"/>
<path d="M239.944,321.588c-0.481,0.09-0.952,0.24-1.413,0.421c-0.451,0.19-0.882,0.421-1.292,0.691
	c-0.411,0.281-0.791,0.591-1.142,0.942c-1.403,1.393-2.204,3.335-2.204,5.31c0,1.974,0.802,3.917,2.204,5.31
	c0.351,0.351,0.73,0.661,1.142,0.941c0.411,0.272,0.842,0.501,1.292,0.691c0.461,0.18,0.932,0.331,1.413,0.421
	c0.48,0.101,0.972,0.15,1.463,0.15c1.983,0,3.917-0.801,5.32-2.204C251.954,329.039,247.213,320.125,239.944,321.588z"/>
<path d="M505.281,290.228c4.127-0.44,7.116-4.143,6.676-8.269c-9.937-93.165-92.018-153.825-171.787-127.65
	c-14.282,4.679-19.467-6.053-52.463-6.053c-10.749,0-21.207,1.432-31.237,4.119c-8.744-2.334-17.706-3.694-26.73-4.032
	c11.33-19.218,26.705-30.911,33.515-35.458c7.317-4.884,4.927-16.242-3.757-17.733c-21.842-3.754-41.344,3.85-53.716,10.762
	c0.609-3.305,1.281-6.294,1.867-8.682c1.982-8.096-6.522-14.791-13.943-10.981c-9.676,4.97-16.507,11.953-20.978,17.832
	c-17.299-24.623-40.972-37.738-54.215-43.569c-9.554-4.203-18.134,7.627-11.198,15.402c13.494,15.13,19.85,31.079,22.814,41.887
	c-10.084-3.605-19.5-5.585-26.269-6.658c-10.339-1.641-15.628,12.072-6.844,17.79c9.917,6.453,17.867,13.6,24.001,20.127
	C53.127,156.946,0,221.759,0,300.289C0,395.91,77.988,468.47,161.939,449.267c4.046-0.927,6.575-4.955,5.649-9.001
	c-0.926-4.045-4.952-6.573-9-5.649c-74.196,16.977-143.56-47.979-143.56-134.328c0-84.884,67.68-150.699,142.261-134.607
	c6.416,1.378,10.98,2.993,12.251,3.353c20.291,5.757,26.327-6.867,59.398-5.687c-101.233,54.97-101.656,218.68-0.001,273.879
	c-16.12,0.566-26.758-2.607-32.175-3.661c-4.073-0.788-8.018,1.868-8.811,5.942c-0.792,4.073,1.868,8.018,5.942,8.811
	c1.171,0.228,2.185,0.445,3.095,0.663c19.203,4.609,39.559,4.537,59.479-0.78c19.747,5.292,40.175,5.414,59.478,0.78
	c25.715-6.174,33.567,3.339,62.031,3.339c68.251,0,125.849-57.48,133.981-133.703c0.44-4.127-2.549-7.829-6.675-8.27
	c-4.131-0.44-7.829,2.549-8.27,6.675c-7.314,68.565-58.488,120.27-119.036,120.27c-26.093,0-36.147-9.977-65.54-2.924
	c-70.51,16.923-137.181-40.462-144.072-120.503c-8.337-96.407,71.278-171.918,152.462-145.279c7.749,2.543,16.281,2.542,24.027,0
	c70.601-23.167,143.234,31.3,152.157,114.964C497.454,287.678,501.167,290.661,505.281,290.228z M212.365,148.958
	c-23.68,2.527-27.578,9.295-39.6,5.352c-10.188-3.344-21.419-5.445-32.51-5.93c-4.57-5.802-9.635-11.301-15.084-16.391
	c2.705,0.971,5.458,2.07,8.211,3.319c7.062,3.203,14.863-2.729,13.659-10.376c-1.125-7.136-4.514-22.437-14.244-39.281
	c10.811,7.462,22.596,18.173,31.517,33.048c3.886,6.481,13.153,6.196,16.799-0.146c1.688-2.938,4.695-7.422,9.262-11.704
	c-0.447,2.818-0.832,5.781-1.09,8.772c-0.33,3.793,1.599,7.458,4.911,9.337c3.305,1.875,7.428,1.649,10.507-0.578
	c6.283-4.543,20.845-13.622,38.475-15.012C233.424,117.787,221.12,130.916,212.365,148.958z"/>
<g>
</g>
<g>
</g>
<g>
</g>
<g>
</g>
<g>
</g>
<g>
</g>
<g>
</g>
<g>
</g>
<g>
</g>
<g>
</g>
<g>
</g>
<g>
</g>
<g>
</g>
<g>
</g>
<g>
</g>
</svg>
