<?xml version="1.0" encoding="iso-8859-1"?>
<!-- Generator: Adobe Illustrator 19.0.0, SVG Export Plug-In . SVG Version: 6.00 Build 0)  -->
<svg version="1.1" id="Capa_1" xmlns="http://www.w3.org/2000/svg" xmlns:xlink="http://www.w3.org/1999/xlink" x="0px" y="0px"
	 viewBox="0 0 512.001 512.001" style="enable-background:new 0 0 512.001 512.001;" xml:space="preserve">
<g>
	<path style="fill:#3BBC56;" d="M276.598,156.269c-0.004,0.001-0.009,0.001-0.014,0.001
		C276.589,156.269,276.594,156.269,276.598,156.269z"/>
	<path style="fill:#3BBC56;" d="M406.086,91.411c-63.648-6.545-104.179,24.122-124.577,46.071
		c1.066,5.942,1.845,11.982,2.279,18.112c12.098-0.904,24.145-0.646,36.252,0.802c23.997-36.032,60.993-50.307,86.538-55.961
		C411.634,99.316,411.236,91.94,406.086,91.411z"/>
</g>
<path style="fill:#30AA44;" d="M383.41,90.609c-50.74,1.751-84.039,27.653-101.9,46.873c1.066,5.942,1.845,11.982,2.28,18.112
	c3.069-0.229,6.135-0.382,9.199-0.462C307.593,131.917,335.113,101.939,383.41,90.609z"/>
<g>
	<path style="fill:#3BBC56;" d="M231.212,155.581c0.471-6.164,0.828-12.761,1.003-19.687
		c-20.85-21.806-60.952-50.872-123.081-44.483c-5.15,0.529-5.548,7.905-0.493,9.023c25.545,5.655,62.542,19.93,86.539,55.961
		c12.356-1.478,24.281-1.68,36.038-0.815C231.215,155.581,231.213,155.581,231.212,155.581z"/>
	<path style="fill:#3BBC56;" d="M238.532,156.26c-0.018-0.002-0.037-0.003-0.055-0.005
		C238.495,156.257,238.513,156.258,238.532,156.26z"/>
</g>
<path style="fill:#30AA44;" d="M139.053,92.522c-1.061-0.331-1.831-0.935-2.36-1.669c-8.654-0.573-17.836-0.442-27.558,0.557
	c-5.15,0.53-5.548,7.905-0.493,9.023c25.545,5.655,62.542,19.93,86.539,55.961c8.552-1.023,16.896-1.421,25.122-1.291
	C199.389,117.51,163.926,100.276,139.053,92.522z"/>
<path style="fill:#3BBC56;" d="M230.212,155.581c15.812,1.164,23.415,4.221,40.255,1.637c4.715-0.723,9.491-1.264,14.321-1.625
	C280.255,91.6,238.736,36.996,213.852,9.666c-2.612-2.868-7.232,0.249-5.531,3.735C231.68,61.27,233.17,116.903,230.212,155.581z"/>
<path style="fill:#30AA44;" d="M250.021,157.81c2.186-33.012,1.183-76.979-12.082-118.541
	c-8.552-11.804-16.995-21.815-24.085-29.603c-2.612-2.868-7.232,0.249-5.531,3.735c23.358,47.869,24.847,103.502,21.89,142.179
	C238.147,156.165,244.015,157.225,250.021,157.81z"/>
<path style="fill:#EA473B;" d="M270.468,156.218c-20.798,3.191-26.565-2.151-54.028-2.151c-99.588,0-180.321,78.442-180.321,175.205
	s80.733,175.204,180.321,175.204c9.634,0,19.091-0.736,28.315-2.151c8.528-1.308,17.184-1.308,25.713,0
	c9.224,1.415,18.68,2.151,28.314,2.151c99.589,0,180.321-78.442,180.321-175.205C479.101,221.661,380.152,139.392,270.468,156.218z"
	/>
<path style="fill:#DD332F;" d="M56.107,329.271c0-93.541,75.447-169.953,170.438-174.94c-3.031-0.164-6.362-0.265-10.106-0.265
	c-99.587,0-180.321,78.442-180.321,175.205s80.732,175.205,180.321,175.205c3.357,0,6.692-0.095,10.003-0.271
	C131.5,499.169,56.107,422.779,56.107,329.271z"/>
<path d="M273.796,510.52c106.766,13.125,201.602-62.947,210.81-165.095c0.372-4.125-2.671-7.77-6.797-8.142
	c-4.118-0.37-7.77,2.671-8.142,6.796c-8.325,92.366-95.617,163.651-194.042,151.555c-4.106-0.513-7.853,2.417-8.358,6.529
	C266.763,506.273,269.686,510.015,273.796,510.52z"/>
<path d="M198.577,162.344c16.63-1.548,29.855-0.282,29.855-0.282c3.056,0,16.789,2.019,20.273,2.309
	c22.758,1.897,33.342-5.935,70.189-1.529c0,0,0,0,0.001,0c78.519,9.374,141.48,69.76,150.381,147.763
	c0.469,4.116,4.188,7.068,8.301,6.602c4.115-0.47,7.07-4.187,6.601-8.301c-5.069-44.431-26.753-85.441-61.059-115.477
	c-25.545-22.365-56.619-37.283-89.886-43.532c22.119-26.635,52.244-38.165,74.711-43.139c5.912-1.308,9.796-6.45,9.446-12.504
	c-0.349-6.038-4.787-10.684-10.793-11.302h0.001c-58.376-6.004-98.336,18.315-120.926,38.672
	c-13.282-52.055-46.555-94.97-67.529-118.007c-8.412-9.236-23.298,0.839-17.815,12.073c16.076,32.945,21.423,69.875,22.155,101.931
	c-31.095-26.12-70.757-39.358-116.371-34.67c-13.604,1.399-14.69,20.854-1.348,23.806c22.467,4.973,52.591,16.503,74.712,43.137
	c-86.545,16.271-152.113,90.51-152.113,179.378c0,110.184,100.157,196.007,213.335,181.027c4.106-0.543,6.995-4.313,6.451-8.418
	c-0.543-4.106-4.305-6.995-8.418-6.451c-104.302,13.799-196.37-65.124-196.37-166.158
	C42.362,242.178,111.133,170.449,198.577,162.344z M386.943,97.009c-23.73,7.902-50.877,22.711-70.789,50.453
	c-8.992-0.861-17.619-1.061-25.822-0.76c-0.359-3.14-0.901-6.769-1.06-7.768C308.835,118.871,340.539,97.453,386.943,97.009z
	 M275.35,147.832c-26.94,3.084-22.59,1.731-38.422-0.046c2.201-38.058-0.978-78.158-13.103-114.151
	C249.539,66.68,270.452,106.236,275.35,147.832z M125.777,97.014c45.752,0.463,77.189,21.367,96.587,40.837
	c-0.101,3.009-0.233,5.943-0.399,8.839c-7.931-0.281-16.449-0.089-25.412,0.772C176.645,119.726,149.506,104.917,125.777,97.014z"/>
<g>
</g>
<g>
</g>
<g>
</g>
<g>
</g>
<g>
</g>
<g>
</g>
<g>
</g>
<g>
</g>
<g>
</g>
<g>
</g>
<g>
</g>
<g>
</g>
<g>
</g>
<g>
</g>
<g>
</g>
</svg>
